STARTFONT 2.1
COMMENT
COMMENT Converted from OpenType font "IosevkaNerdFontMono-Regular.ttf" by "otf2bdf 3.0".
COMMENT
FONT -FreeType-Iosevka NFM-Medium-R-Normal--27-200-96-96-P-129-ISO10646-1
SIZE 20 96 96
FONTBOUNDINGBOX 47 48 -14 -16
STARTPROPERTIES 19
FOUNDRY "FreeType"
FAMILY_NAME "Iosevka NFM"
WEIGHT_NAME "Medium"
SLANT "R"
SETWIDTH_NAME "Normal"
ADD_STYLE_NAME ""
PIXEL_SIZE 27
POINT_SIZE 200
RESOLUTION_X 96
RESOLUTION_Y 96
SPACING "P"
AVERAGE_WIDTH 129
CHARSET_REGISTRY "ISO10646"
CHARSET_ENCODING "1"
FONT_ASCENT 26
FONT_DESCENT 7
COPYRIGHT "Copyright 2015-2025, Renzhi Li (aka. Belleve Invis, belleve@typeof.net)."
_OTF_FONTFILE "IosevkaNerdFontMono-Regular.ttf"
_OTF_PSNAME "IosevkaNFM"
ENDPROPERTIES
CHARS 8371
STARTCHAR 000D
ENCODING 13
SWIDTH 525 0
DWIDTH 14 0
BBX 0 0 0 0
BITMAP
ENDCHAR
STARTCHAR 0020
ENCODING 32
SWIDTH 525 0
DWIDTH 14 0
BBX 0 0 0 0
BITMAP
ENDCHAR
STARTCHAR 0021
ENCODING 33
SWIDTH 525 0
DWIDTH 14 0
BBX 4 20 5 0
BITMAP
60
60
60
60
60
60
60
60
60
60
60
60
60
00
00
00
E0
F0
F0
E0
ENDCHAR
STARTCHAR 0022
ENCODING 34
SWIDTH 525 0
DWIDTH 14 0
BBX 8 9 3 12
BITMAP
C7
C7
C7
C7
C7
C7
C7
C6
C6
ENDCHAR
STARTCHAR 0023
ENCODING 35
SWIDTH 525 0
DWIDTH 14 0
BBX 12 19 1 0
BITMAP
3180
3180
3180
3180
3180
FFF0
FFF0
3180
3180
3180
3180
3180
FFF0
FFF0
3180
3180
3180
3180
3180
ENDCHAR
STARTCHAR 0024
ENCODING 36
SWIDTH 525 0
DWIDTH 14 0
BBX 11 25 1 -3
BITMAP
0600
0600
0600
0600
3F80
7FC0
66E0
6660
6660
6600
7600
3E00
1F00
0780
07C0
06E0
E660
E660
66E0
7FC0
3F80
0600
0600
0600
0600
ENDCHAR
STARTCHAR 0025
ENCODING 37
SWIDTH 525 0
DWIDTH 14 0
BBX 12 20 1 0
BITMAP
7870
FC60
CC60
CCC0
CCC0
CCC0
CD80
CD80
FC00
7800
01E0
03F0
1A30
3230
3230
7230
6230
6230
E3F0
C1E0
ENDCHAR
STARTCHAR 0026
ENCODING 38
SWIDTH 525 0
DWIDTH 14 0
BBX 11 20 2 0
BITMAP
3C00
7E00
6300
C300
C300
C300
6700
6600
3E00
3C00
7800
6C00
CC60
C6C0
C3C0
C3C0
C180
E3C0
7EC0
3CE0
ENDCHAR
STARTCHAR 0027
ENCODING 39
SWIDTH 525 0
DWIDTH 14 0
BBX 2 9 6 12
BITMAP
C0
C0
C0
C0
C0
C0
C0
C0
C0
ENDCHAR
STARTCHAR 0028
ENCODING 40
SWIDTH 525 0
DWIDTH 14 0
BBX 8 27 3 -4
BITMAP
02
07
0E
1C
18
30
70
60
60
60
C0
C0
C0
C0
C0
C0
C0
E0
60
60
60
30
38
18
0C
0F
03
ENDCHAR
STARTCHAR 0029
ENCODING 41
SWIDTH 525 0
DWIDTH 14 0
BBX 8 27 2 -4
BITMAP
40
E0
70
38
1C
0E
06
06
03
03
03
03
03
03
03
03
03
03
03
07
06
06
0C
1C
38
F0
60
ENDCHAR
STARTCHAR 002A
ENCODING 42
SWIDTH 525 0
DWIDTH 14 0
BBX 11 11 1 11
BITMAP
0600
0600
0600
C660
FFE0
1F80
0F00
1B00
3980
31C0
1080
ENDCHAR
STARTCHAR 002B
ENCODING 43
SWIDTH 525 0
DWIDTH 14 0
BBX 10 10 2 4
BITMAP
0C00
0C00
0C00
0C00
FFC0
FFC0
0C00
0C00
0C00
0C00
ENDCHAR
STARTCHAR 002C
ENCODING 44
SWIDTH 525 0
DWIDTH 14 0
BBX 5 10 4 -6
BITMAP
70
78
78
78
18
30
30
60
E0
40
ENDCHAR
STARTCHAR 002D
ENCODING 45
SWIDTH 525 0
DWIDTH 14 0
BBX 10 2 2 8
BITMAP
FFC0
FFC0
ENDCHAR
STARTCHAR 002E
ENCODING 46
SWIDTH 525 0
DWIDTH 14 0
BBX 4 4 5 0
BITMAP
E0
F0
F0
E0
ENDCHAR
STARTCHAR 002F
ENCODING 47
SWIDTH 525 0
DWIDTH 14 0
BBX 10 26 2 -4
BITMAP
00C0
01C0
0180
0180
0380
0300
0300
0700
0600
0600
0600
0C00
0C00
0C00
1800
1800
1800
3000
3000
3000
7000
6000
6000
E000
C000
C000
ENDCHAR
STARTCHAR 0030
ENCODING 48
SWIDTH 525 0
DWIDTH 14 0
BBX 10 20 2 0
BITMAP
3E00
7F80
E180
C1C0
C0C0
C0C0
C0C0
C1C0
C7C0
CEC0
DCC0
F0C0
E0C0
C0C0
C0C0
C0C0
C1C0
E180
7F80
3E00
ENDCHAR
STARTCHAR 0031
ENCODING 49
SWIDTH 525 0
DWIDTH 14 0
BBX 7 20 2 0
BITMAP
0E
1E
7E
EE
CE
0E
0E
0E
0E
0E
0E
0E
0E
0E
0E
0E
0E
0E
0E
0E
ENDCHAR
STARTCHAR 0032
ENCODING 50
SWIDTH 525 0
DWIDTH 14 0
BBX 10 20 2 0
BITMAP
3E00
7F80
E180
C1C0
C0C0
00C0
00C0
01C0
0180
0300
0E00
1C00
3800
7000
6000
E000
C000
C000
FFC0
FFC0
ENDCHAR
STARTCHAR 0033
ENCODING 51
SWIDTH 525 0
DWIDTH 14 0
BBX 11 20 1 0
BITMAP
1F00
3FC0
70C0
60E0
6060
0060
00E0
00C0
01C0
0780
0780
01C0
00E0
0060
0060
E060
6060
70E0
3FC0
1F00
ENDCHAR
STARTCHAR 0034
ENCODING 52
SWIDTH 525 0
DWIDTH 14 0
BBX 10 20 2 0
BITMAP
0300
0600
0600
0C00
0C00
1800
1800
3000
3300
6300
6300
C300
C300
FFC0
FFC0
0300
0300
0300
0300
0300
ENDCHAR
STARTCHAR 0035
ENCODING 53
SWIDTH 525 0
DWIDTH 14 0
BBX 10 20 2 0
BITMAP
FF80
FF80
C000
C000
C000
C000
C000
DE00
FF00
E380
C1C0
00C0
00C0
00C0
00C0
C0C0
C1C0
E180
7F00
3E00
ENDCHAR
STARTCHAR 0036
ENCODING 54
SWIDTH 525 0
DWIDTH 14 0
BBX 10 20 2 0
BITMAP
0E00
0C00
1C00
1800
3800
3000
7000
6000
6F00
FF80
E380
C1C0
C0C0
C0C0
C0C0
C0C0
C1C0
E180
7F80
3E00
ENDCHAR
STARTCHAR 0037
ENCODING 55
SWIDTH 525 0
DWIDTH 14 0
BBX 10 20 2 0
BITMAP
FFC0
FFC0
01C0
0180
0180
0380
0300
0300
0700
0600
0600
0600
0C00
0C00
0C00
1C00
1800
1800
3800
3000
ENDCHAR
STARTCHAR 0038
ENCODING 56
SWIDTH 525 0
DWIDTH 14 0
BBX 10 20 2 0
BITMAP
3E00
7F80
E180
C180
C1C0
C180
E180
6380
3F00
1E00
3E00
7700
E180
C1C0
C0C0
C0C0
C0C0
E1C0
7F80
3E00
ENDCHAR
STARTCHAR 0039
ENCODING 57
SWIDTH 525 0
DWIDTH 14 0
BBX 10 20 2 0
BITMAP
3E00
7F80
E180
C1C0
C0C0
C0C0
C0C0
C0C0
C1C0
E3C0
7F80
3D80
0380
0300
0700
0600
0E00
0C00
1C00
3800
ENDCHAR
STARTCHAR 003A
ENCODING 58
SWIDTH 525 0
DWIDTH 14 0
BBX 4 14 5 0
BITMAP
E0
F0
F0
E0
00
00
00
00
00
00
E0
F0
F0
E0
ENDCHAR
STARTCHAR 003B
ENCODING 59
SWIDTH 525 0
DWIDTH 14 0
BBX 5 20 4 -6
BITMAP
70
78
78
70
00
00
00
00
00
00
70
78
78
78
18
30
30
60
E0
40
ENDCHAR
STARTCHAR 003C
ENCODING 60
SWIDTH 525 0
DWIDTH 14 0
BBX 10 14 2 2
BITMAP
00C0
01C0
0700
1E00
3800
F000
C000
E000
7000
3C00
0E00
0380
01C0
0040
ENDCHAR
STARTCHAR 003D
ENCODING 61
SWIDTH 525 0
DWIDTH 14 0
BBX 10 7 2 6
BITMAP
FFC0
FFC0
0000
0000
0000
FFC0
FFC0
ENDCHAR
STARTCHAR 003E
ENCODING 62
SWIDTH 525 0
DWIDTH 14 0
BBX 11 14 1 2
BITMAP
4000
F000
3C00
0E00
0780
01C0
0060
00E0
03C0
0700
1E00
7800
E000
4000
ENDCHAR
STARTCHAR 003F
ENCODING 63
SWIDTH 525 0
DWIDTH 14 0
BBX 10 20 2 0
BITMAP
3E00
7F80
E180
C1C0
C0C0
00C0
0180
0380
0300
0700
0E00
0C00
0C00
0C00
0000
0000
1C00
1E00
1E00
1C00
ENDCHAR
STARTCHAR 0040
ENCODING 64
SWIDTH 525 0
DWIDTH 14 0
BBX 10 22 2 -2
BITMAP
3E00
7F80
E180
C0C0
C0C0
C7C0
CFC0
CCC0
CCC0
CCC0
CCC0
CCC0
CCC0
CCC0
CCC0
CCC0
CF80
C700
C000
E000
7F80
3F80
ENDCHAR
STARTCHAR 0041
ENCODING 65
SWIDTH 525 0
DWIDTH 14 0
BBX 11 20 1 0
BITMAP
0E00
0E00
0F00
0F00
0F00
1B00
1B00
1980
1980
3980
3180
3180
30C0
3FC0
7FC0
60C0
60E0
6060
E060
C060
ENDCHAR
STARTCHAR 0042
ENCODING 66
SWIDTH 525 0
DWIDTH 14 0
BBX 10 20 2 0
BITMAP
FE00
FF00
C380
C180
C180
C1C0
C180
C180
C380
FF00
FF00
C180
C0C0
C0C0
C0C0
C0C0
C0C0
C1C0
FF80
FE00
ENDCHAR
STARTCHAR 0043
ENCODING 67
SWIDTH 525 0
DWIDTH 14 0
BBX 10 20 2 0
BITMAP
3E00
7F80
E180
C1C0
C0C0
C000
C000
C000
C000
C000
C000
C000
C000
C000
C000
C0C0
C1C0
E180
7F80
3E00
ENDCHAR
STARTCHAR 0044
ENCODING 68
SWIDTH 525 0
DWIDTH 14 0
BBX 10 20 2 0
BITMAP
FE00
FF00
C380
C1C0
C0C0
C0C0
C0C0
C0C0
C0C0
C0C0
C0C0
C0C0
C0C0
C0C0
C0C0
C0C0
C1C0
C380
FF00
FE00
ENDCHAR
STARTCHAR 0045
ENCODING 69
SWIDTH 525 0
DWIDTH 14 0
BBX 10 20 2 0
BITMAP
FFC0
FFC0
C000
C000
C000
C000
C000
C000
C000
FF00
FF00
C000
C000
C000
C000
C000
C000
C000
FFC0
FFC0
ENDCHAR
STARTCHAR 0046
ENCODING 70
SWIDTH 525 0
DWIDTH 14 0
BBX 9 20 3 0
BITMAP
FF80
FF80
C000
C000
C000
C000
C000
C000
C000
FE00
FE00
C000
C000
C000
C000
C000
C000
C000
C000
C000
ENDCHAR
STARTCHAR 0047
ENCODING 71
SWIDTH 525 0
DWIDTH 14 0
BBX 10 20 2 0
BITMAP
3E00
7F80
E180
C1C0
C0C0
C000
C000
C000
C000
C7C0
C7C0
C0C0
C0C0
C0C0
C0C0
C0C0
C1C0
E1C0
7EC0
3CC0
ENDCHAR
STARTCHAR 0048
ENCODING 72
SWIDTH 525 0
DWIDTH 14 0
BBX 10 20 2 0
BITMAP
C0C0
C0C0
C0C0
C0C0
C0C0
C0C0
C0C0
C0C0
C0C0
FFC0
FFC0
C0C0
C0C0
C0C0
C0C0
C0C0
C0C0
C0C0
C0C0
C0C0
ENDCHAR
STARTCHAR 0049
ENCODING 73
SWIDTH 525 0
DWIDTH 14 0
BBX 9 20 2 0
BITMAP
FF80
FF80
0C00
0C00
0C00
0C00
0C00
0C00
0C00
0C00
0C00
0C00
0C00
0C00
0C00
0C00
0C00
0C00
FF80
FF80
ENDCHAR
STARTCHAR 004A
ENCODING 74
SWIDTH 525 0
DWIDTH 14 0
BBX 10 20 1 0
BITMAP
0FC0
0FC0
00C0
00C0
00C0
00C0
00C0
00C0
00C0
00C0
00C0
00C0
00C0
00C0
00C0
C0C0
E0C0
61C0
7F80
1F00
ENDCHAR
STARTCHAR 004B
ENCODING 75
SWIDTH 525 0
DWIDTH 14 0
BBX 10 20 2 0
BITMAP
C1C0
C180
C380
C300
C600
C600
CC00
DC00
D800
F800
F800
EC00
EC00
C600
C600
C300
C300
C180
C180
C0C0
ENDCHAR
STARTCHAR 004C
ENCODING 76
SWIDTH 525 0
DWIDTH 14 0
BBX 9 20 3 0
BITMAP
C000
C000
C000
C000
C000
C000
C000
C000
C000
C000
C000
C000
C000
C000
C000
C000
C000
C000
FF80
FF80
ENDCHAR
STARTCHAR 004D
ENCODING 77
SWIDTH 525 0
DWIDTH 14 0
BBX 11 20 1 0
BITMAP
E0E0
E0E0
F0E0
F0E0
F1E0
D1E0
D9E0
D960
DB60
CB60
CF60
CE60
C660
C660
C060
C060
C060
C060
C060
C060
ENDCHAR
STARTCHAR 004E
ENCODING 78
SWIDTH 525 0
DWIDTH 14 0
BBX 10 20 2 0
BITMAP
C0C0
E0C0
E0C0
E0C0
F0C0
F0C0
D8C0
D8C0
D8C0
CCC0
CCC0
CCC0
C6C0
C6C0
C6C0
C3C0
C3C0
C3C0
C1C0
C1C0
ENDCHAR
STARTCHAR 004F
ENCODING 79
SWIDTH 525 0
DWIDTH 14 0
BBX 10 20 2 0
BITMAP
3E00
7F80
E180
C1C0
C0C0
C0C0
C0C0
C0C0
C0C0
C0C0
C0C0
C0C0
C0C0
C0C0
C0C0
C0C0
C0C0
E180
7F80
3E00
ENDCHAR
STARTCHAR 0050
ENCODING 80
SWIDTH 525 0
DWIDTH 14 0
BBX 10 20 2 0
BITMAP
FE00
FF80
C180
C0C0
C0C0
C0C0
C0C0
C0C0
C0C0
C180
FF80
FE00
C000
C000
C000
C000
C000
C000
C000
C000
ENDCHAR
STARTCHAR 0051
ENCODING 81
SWIDTH 525 0
DWIDTH 14 0
BBX 10 25 2 -5
BITMAP
3E00
7F80
E180
C1C0
C0C0
C0C0
C0C0
C0C0
C0C0
C0C0
C0C0
C0C0
C0C0
C0C0
C0C0
C0C0
C0C0
E180
7F80
3F00
0C00
0C00
0E00
0780
0380
ENDCHAR
STARTCHAR 0052
ENCODING 82
SWIDTH 525 0
DWIDTH 14 0
BBX 10 20 2 0
BITMAP
FE00
FF80
C180
C1C0
C0C0
C0C0
C0C0
C0C0
C1C0
C180
FF80
FE00
CE00
C600
C700
C300
C380
C180
C1C0
C0C0
ENDCHAR
STARTCHAR 0053
ENCODING 83
SWIDTH 525 0
DWIDTH 14 0
BBX 11 20 1 0
BITMAP
1F00
3FC0
70C0
60E0
6060
6000
6000
7000
3800
1E00
0F80
03C0
00C0
0060
0060
E060
6060
70C0
3FC0
1F00
ENDCHAR
STARTCHAR 0054
ENCODING 84
SWIDTH 525 0
DWIDTH 14 0
BBX 10 20 2 0
BITMAP
FFC0
FFC0
0C00
0C00
0C00
0C00
0C00
0C00
0C00
0C00
0C00
0C00
0C00
0C00
0C00
0C00
0C00
0C00
0C00
0C00
ENDCHAR
STARTCHAR 0055
ENCODING 85
SWIDTH 525 0
DWIDTH 14 0
BBX 10 20 2 0
BITMAP
C0C0
C0C0
C0C0
C0C0
C0C0
C0C0
C0C0
C0C0
C0C0
C0C0
C0C0
C0C0
C0C0
C0C0
C0C0
C0C0
C1C0
E180
7F00
3E00
ENDCHAR
STARTCHAR 0056
ENCODING 86
SWIDTH 525 0
DWIDTH 14 0
BBX 11 20 1 0
BITMAP
C060
6060
6060
60E0
60C0
60C0
30C0
30C0
3180
3180
3180
1980
1980
1B00
1B00
0B00
0F00
0F00
0E00
0E00
ENDCHAR
STARTCHAR 0057
ENCODING 87
SWIDTH 525 0
DWIDTH 14 0
BBX 12 20 1 0
BITMAP
C070
C060
C060
C060
C060
4060
6660
6660
6E60
6E40
6E40
6B40
6BC0
6BC0
29C0
39C0
39C0
39C0
3180
3180
ENDCHAR
STARTCHAR 0058
ENCODING 88
SWIDTH 525 0
DWIDTH 14 0
BBX 11 20 1 0
BITMAP
E060
60E0
70C0
31C0
3180
1980
1B00
0F00
0F00
0E00
0600
0E00
0F00
1B00
1980
3980
31C0
70C0
60E0
E060
ENDCHAR
STARTCHAR 0059
ENCODING 89
SWIDTH 525 0
DWIDTH 14 0
BBX 11 20 1 0
BITMAP
E060
60E0
60C0
30C0
31C0
3180
1980
1B00
1B00
0F00
0E00
0600
0600
0600
0600
0600
0600
0600
0600
0600
ENDCHAR
STARTCHAR 005A
ENCODING 90
SWIDTH 525 0
DWIDTH 14 0
BBX 10 20 2 0
BITMAP
FFC0
FFC0
0180
0180
0380
0300
0700
0600
0E00
0C00
1C00
1800
3800
3000
7000
6000
E000
C000
FFC0
FFC0
ENDCHAR
STARTCHAR 005B
ENCODING 91
SWIDTH 525 0
DWIDTH 14 0
BBX 8 26 3 -4
BITMAP
FF
FF
C0
C0
C0
C0
C0
C0
C0
C0
C0
C0
C0
C0
C0
C0
C0
C0
C0
C0
C0
C0
C0
C0
FF
FF
ENDCHAR
STARTCHAR 005C
ENCODING 92
SWIDTH 525 0
DWIDTH 14 0
BBX 10 26 2 -4
BITMAP
C000
C000
C000
6000
6000
6000
3000
3000
3000
3800
1800
1800
1C00
0C00
0C00
0E00
0600
0600
0700
0300
0300
0300
0180
0180
0180
00C0
ENDCHAR
STARTCHAR 005D
ENCODING 93
SWIDTH 525 0
DWIDTH 14 0
BBX 7 26 3 -4
BITMAP
FE
FE
06
06
06
06
06
06
06
06
06
06
06
06
06
06
06
06
06
06
06
06
06
06
FE
FE
ENDCHAR
STARTCHAR 005E
ENCODING 94
SWIDTH 525 0
DWIDTH 14 0
BBX 11 7 1 12
BITMAP
0E00
1F00
1B80
39C0
70C0
E0E0
4060
ENDCHAR
STARTCHAR 005F
ENCODING 95
SWIDTH 525 0
DWIDTH 14 0
BBX 10 2 2 -2
BITMAP
FFC0
FFC0
ENDCHAR
STARTCHAR 0060
ENCODING 96
SWIDTH 525 0
DWIDTH 14 0
BBX 7 7 2 15
BITMAP
20
E0
70
38
18
0C
06
ENDCHAR
STARTCHAR 0061
ENCODING 97
SWIDTH 525 0
DWIDTH 14 0
BBX 10 14 2 0
BITMAP
3E00
7F80
E180
C1C0
00C0
00C0
3FC0
7FC0
C0C0
C0C0
C1C0
C1C0
FEC0
7CC0
ENDCHAR
STARTCHAR 0062
ENCODING 98
SWIDTH 525 0
DWIDTH 14 0
BBX 10 20 2 0
BITMAP
C000
C000
C000
C000
C000
C000
CF00
DF80
E180
C0C0
C0C0
C0C0
C0C0
C0C0
C0C0
C0C0
C0C0
E1C0
FF80
CF00
ENDCHAR
STARTCHAR 0063
ENCODING 99
SWIDTH 525 0
DWIDTH 14 0
BBX 10 14 2 0
BITMAP
3E00
7F80
E180
C1C0
C0C0
C000
C000
C000
C000
C0C0
C1C0
E180
7F80
3E00
ENDCHAR
STARTCHAR 0064
ENCODING 100
SWIDTH 525 0
DWIDTH 14 0
BBX 10 20 2 0
BITMAP
00C0
00C0
00C0
00C0
00C0
00C0
3CC0
7EC0
E1C0
C1C0
C0C0
C0C0
C0C0
C0C0
C0C0
C0C0
C1C0
E1C0
7EC0
3CC0
ENDCHAR
STARTCHAR 0065
ENCODING 101
SWIDTH 525 0
DWIDTH 14 0
BBX 10 14 2 0
BITMAP
3E00
7F80
E180
C0C0
C0C0
C0C0
FFC0
FFC0
C000
C000
C0C0
E1C0
7F80
3E00
ENDCHAR
STARTCHAR 0066
ENCODING 102
SWIDTH 525 0
DWIDTH 14 0
BBX 10 20 2 0
BITMAP
0F80
1FC0
18C0
18C0
1800
1800
1800
FF80
FF80
1800
1800
1800
1800
1800
1800
1800
1800
1800
1800
1800
ENDCHAR
STARTCHAR 0067
ENCODING 103
SWIDTH 525 0
DWIDTH 14 0
BBX 10 20 2 -6
BITMAP
3CC0
7EC0
E1C0
C1C0
C0C0
C0C0
C0C0
C0C0
C0C0
C0C0
C1C0
E1C0
7EC0
3CC0
00C0
00C0
C1C0
E180
7F00
3E00
ENDCHAR
STARTCHAR 0068
ENCODING 104
SWIDTH 525 0
DWIDTH 14 0
BBX 10 20 2 0
BITMAP
C000
C000
C000
C000
C000
C000
CF00
DF80
E180
C1C0
C0C0
C0C0
C0C0
C0C0
C0C0
C0C0
C0C0
C0C0
C0C0
C0C0
ENDCHAR
STARTCHAR 0069
ENCODING 105
SWIDTH 525 0
DWIDTH 14 0
BBX 9 19 2 0
BITMAP
0C00
1E00
0C00
0000
0000
FC00
FC00
0C00
0C00
0C00
0C00
0C00
0C00
0C00
0C00
0C00
0C00
FF80
FF80
ENDCHAR
STARTCHAR 006A
ENCODING 106
SWIDTH 525 0
DWIDTH 14 0
BBX 9 25 1 -6
BITMAP
0380
0380
0380
0000
0000
1F80
1F80
0380
0380
0380
0380
0380
0380
0380
0380
0380
0380
0380
0380
0380
0300
C300
C300
FE00
3C00
ENDCHAR
STARTCHAR 006B
ENCODING 107
SWIDTH 525 0
DWIDTH 14 0
BBX 10 20 2 0
BITMAP
C000
C000
C000
C000
C000
C000
C1C0
C380
C300
C600
CC00
DC00
F800
FC00
EC00
C600
C700
C300
C180
C1C0
ENDCHAR
STARTCHAR 006C
ENCODING 108
SWIDTH 525 0
DWIDTH 14 0
BBX 9 20 2 0
BITMAP
FC00
FC00
0C00
0C00
0C00
0C00
0C00
0C00
0C00
0C00
0C00
0C00
0C00
0C00
0C00
0C00
0C00
0C00
FF80
FF80
ENDCHAR
STARTCHAR 006D
ENCODING 109
SWIDTH 525 0
DWIDTH 14 0
BBX 11 14 1 0
BITMAP
DDC0
FDE0
C660
C660
C660
C660
C660
C660
C660
C660
C660
C660
C660
C660
ENDCHAR
STARTCHAR 006E
ENCODING 110
SWIDTH 525 0
DWIDTH 14 0
BBX 10 14 2 0
BITMAP
CF00
DF80
E180
C1C0
C0C0
C0C0
C0C0
C0C0
C0C0
C0C0
C0C0
C0C0
C0C0
C0C0
ENDCHAR
STARTCHAR 006F
ENCODING 111
SWIDTH 525 0
DWIDTH 14 0
BBX 10 14 2 0
BITMAP
3E00
7F80
E180
C0C0
C0C0
C0C0
C0C0
C0C0
C0C0
C0C0
C0C0
E180
7F80
3E00
ENDCHAR
STARTCHAR 0070
ENCODING 112
SWIDTH 525 0
DWIDTH 14 0
BBX 10 20 2 -6
BITMAP
CF00
DF80
E180
C0C0
C0C0
C0C0
C0C0
C0C0
C0C0
C0C0
C0C0
E1C0
FF80
CF00
C000
C000
C000
C000
C000
C000
ENDCHAR
STARTCHAR 0071
ENCODING 113
SWIDTH 525 0
DWIDTH 14 0
BBX 10 20 2 -6
BITMAP
3CC0
7EC0
E1C0
C1C0
C0C0
C0C0
C0C0
C0C0
C0C0
C0C0
C1C0
E1C0
7EC0
3CC0
00C0
00C0
00C0
00C0
00C0
00C0
ENDCHAR
STARTCHAR 0072
ENCODING 114
SWIDTH 525 0
DWIDTH 14 0
BBX 9 14 3 0
BITMAP
CF00
DF80
D180
E180
E000
C000
C000
C000
C000
C000
C000
C000
C000
C000
ENDCHAR
STARTCHAR 0073
ENCODING 115
SWIDTH 525 0
DWIDTH 14 0
BBX 10 14 2 0
BITMAP
3E00
7F80
E180
C1C0
C000
7000
7E00
1F00
0380
01C0
C0C0
C1C0
FF80
3F00
ENDCHAR
STARTCHAR 0074
ENCODING 116
SWIDTH 525 0
DWIDTH 14 0
BBX 11 20 2 0
BITMAP
3800
3800
3800
3800
3800
3800
FF80
FF80
3800
3800
3800
3800
3800
3800
3800
38E0
18C0
18C0
1FC0
0F80
ENDCHAR
STARTCHAR 0075
ENCODING 117
SWIDTH 525 0
DWIDTH 14 0
BBX 10 14 2 0
BITMAP
C0C0
C0C0
C0C0
C0C0
C0C0
C0C0
C0C0
C0C0
C0C0
C0C0
C1C0
E1C0
7EC0
3CC0
ENDCHAR
STARTCHAR 0076
ENCODING 118
SWIDTH 525 0
DWIDTH 14 0
BBX 11 14 1 0
BITMAP
E060
6060
60E0
60C0
30C0
31C0
3180
1980
1980
1B00
1B00
0F00
0E00
0E00
ENDCHAR
STARTCHAR 0077
ENCODING 119
SWIDTH 525 0
DWIDTH 14 0
BBX 12 14 1 0
BITMAP
C070
C060
C060
4060
6660
6E60
6E60
6E40
6B40
6BC0
39C0
39C0
31C0
3180
ENDCHAR
STARTCHAR 0078
ENCODING 120
SWIDTH 525 0
DWIDTH 14 0
BBX 11 14 1 0
BITMAP
E0E0
70C0
31C0
1980
1B00
0F00
0E00
0E00
0F00
1B00
1980
31C0
70C0
E0E0
ENDCHAR
STARTCHAR 0079
ENCODING 121
SWIDTH 525 0
DWIDTH 14 0
BBX 11 20 1 -6
BITMAP
E060
6060
60C0
70C0
30C0
31C0
3180
1980
1980
1B00
1B00
0F00
0E00
0E00
0600
0E00
0C00
0C00
0C00
1800
ENDCHAR
STARTCHAR 007A
ENCODING 122
SWIDTH 525 0
DWIDTH 14 0
BBX 10 14 2 0
BITMAP
FFC0
FFC0
0180
0380
0700
0600
0C00
1C00
3800
3000
6000
E000
FFC0
FFC0
ENDCHAR
STARTCHAR 007B
ENCODING 123
SWIDTH 525 0
DWIDTH 14 0
BBX 9 26 2 -4
BITMAP
0380
0F80
1C00
1800
1800
1800
1800
1C00
0C00
0C00
0C00
1800
F000
F000
1800
0C00
0C00
0C00
1C00
1800
1800
1800
1800
1C00
0F80
0380
ENDCHAR
STARTCHAR 007C
ENCODING 124
SWIDTH 525 0
DWIDTH 14 0
BBX 2 26 6 -4
BITMAP
C0
C0
C0
C0
C0
C0
C0
C0
C0
C0
C0
C0
C0
C0
C0
C0
C0
C0
C0
C0
C0
C0
C0
C0
C0
C0
ENDCHAR
STARTCHAR 007D
ENCODING 125
SWIDTH 525 0
DWIDTH 14 0
BBX 8 26 3 -4
BITMAP
E0
F8
38
1C
0C
0C
1C
18
18
18
18
1C
0F
0F
1C
18
18
18
18
1C
0C
0C
1C
38
F8
E0
ENDCHAR
STARTCHAR 007E
ENCODING 126
SWIDTH 525 0
DWIDTH 14 0
BBX 12 6 1 5
BITMAP
3830
3C60
6E60
66E0
C3C0
C380
ENDCHAR
STARTCHAR 00A0
ENCODING 160
SWIDTH 525 0
DWIDTH 14 0
BBX 0 0 0 0
BITMAP
ENDCHAR
STARTCHAR 00A1
ENCODING 161
SWIDTH 525 0
DWIDTH 14 0
BBX 4 20 5 -6
BITMAP
E0
F0
F0
E0
00
00
00
60
60
60
60
60
60
60
60
60
60
60
60
60
ENDCHAR
STARTCHAR 00A2
ENCODING 162
SWIDTH 525 0
DWIDTH 14 0
BBX 10 19 2 -3
BITMAP
0C00
0C00
0C00
7F00
FF80
CD80
CCC0
CC00
CC00
CC00
CC00
CC00
CCC0
CDC0
FF80
7F00
0C00
0C00
0C00
ENDCHAR
STARTCHAR 00A3
ENCODING 163
SWIDTH 525 0
DWIDTH 14 0
BBX 11 20 1 0
BITMAP
0F80
1FC0
18C0
18C0
1800
1800
1800
1800
1800
FE00
FE00
1800
1800
1800
3800
3000
3000
7000
7FE0
7FE0
ENDCHAR
STARTCHAR 00A4
ENCODING 164
SWIDTH 525 0
DWIDTH 14 0
BBX 11 12 1 3
BITMAP
4020
FF60
7FC0
30C0
60C0
6040
6040
60C0
31C0
7FC0
EF60
4020
ENDCHAR
STARTCHAR 00A5
ENCODING 165
SWIDTH 525 0
DWIDTH 14 0
BBX 11 20 1 0
BITMAP
E060
60E0
60C0
30C0
31C0
3180
1980
1B00
1F00
0F00
0E00
7FE0
7FE0
0600
0600
7FE0
7FE0
0600
0600
0600
ENDCHAR
STARTCHAR 00A6
ENCODING 166
SWIDTH 525 0
DWIDTH 14 0
BBX 2 26 6 -4
BITMAP
C0
C0
C0
C0
C0
C0
C0
C0
C0
C0
C0
C0
00
00
C0
C0
C0
C0
C0
C0
C0
C0
C0
C0
C0
C0
ENDCHAR
STARTCHAR 00A7
ENCODING 167
SWIDTH 525 0
DWIDTH 14 0
BBX 10 26 2 -4
BITMAP
3E00
7F80
E180
C1C0
C0C0
C000
C000
E000
7C00
7F00
E780
C180
C1C0
C0C0
C0C0
6180
3F80
1F00
0380
01C0
00C0
C0C0
C1C0
E180
7F80
3E00
ENDCHAR
STARTCHAR 00A8
ENCODING 168
SWIDTH 525 0
DWIDTH 14 0
BBX 9 3 2 16
BITMAP
6380
F380
6380
ENDCHAR
STARTCHAR 00A9
ENCODING 169
SWIDTH 525 0
DWIDTH 14 0
BBX 12 20 1 -1
BITMAP
1F00
3FC0
60E0
C060
CE20
9F30
99B0
9030
9030
9030
9030
9030
99B0
9F30
8E30
C020
C060
60E0
3FC0
1F80
ENDCHAR
STARTCHAR 00AA
ENCODING 170
SWIDTH 525 0
DWIDTH 14 0
BBX 8 13 3 6
BITMAP
7C
FE
C7
03
7F
FF
C3
C7
FF
7B
00
00
FF
ENDCHAR
STARTCHAR 00AB
ENCODING 171
SWIDTH 525 0
DWIDTH 14 0
BBX 11 14 1 2
BITMAP
0C60
0C60
18C0
18C0
3180
7380
E700
E700
7380
39C0
18C0
0C60
0C60
0840
ENDCHAR
STARTCHAR 00AC
ENCODING 172
SWIDTH 525 0
DWIDTH 14 0
BBX 10 6 2 4
BITMAP
FFC0
FFC0
00C0
00C0
00C0
00C0
ENDCHAR
STARTCHAR 00AD
ENCODING 173
SWIDTH 525 0
DWIDTH 14 0
BBX 10 2 2 8
BITMAP
FFC0
FFC0
ENDCHAR
STARTCHAR 00AE
ENCODING 174
SWIDTH 525 0
DWIDTH 14 0
BBX 13 13 0 11
BITMAP
0F80
3FE0
3F70
6F90
4C98
4F98
CF08
4D18
4D98
6C98
7030
3FE0
0FC0
ENDCHAR
STARTCHAR 00AF
ENCODING 175
SWIDTH 525 0
DWIDTH 14 0
BBX 10 2 2 17
BITMAP
FFC0
FFC0
ENDCHAR
STARTCHAR 00B0
ENCODING 176
SWIDTH 525 0
DWIDTH 14 0
BBX 6 6 4 14
BITMAP
78
FC
CC
CC
FC
78
ENDCHAR
STARTCHAR 00B1
ENCODING 177
SWIDTH 525 0
DWIDTH 14 0
BBX 10 14 2 0
BITMAP
0C00
0C00
0C00
0C00
FFC0
FFC0
0C00
0C00
0C00
0C00
0000
0000
FFC0
FFC0
ENDCHAR
STARTCHAR 00B2
ENCODING 178
SWIDTH 525 0
DWIDTH 14 0
BBX 8 14 3 9
BITMAP
3C
FE
C6
C3
03
06
0E
1C
38
60
E0
C0
FF
FF
ENDCHAR
STARTCHAR 00B3
ENCODING 179
SWIDTH 525 0
DWIDTH 14 0
BBX 8 14 3 9
BITMAP
3C
7E
C6
C3
02
06
1C
1E
06
03
03
C3
FE
7C
ENDCHAR
STARTCHAR 00B4
ENCODING 180
SWIDTH 525 0
DWIDTH 14 0
BBX 6 7 5 15
BITMAP
08
1C
18
30
70
E0
C0
ENDCHAR
STARTCHAR 00B5
ENCODING 181
SWIDTH 525 0
DWIDTH 14 0
BBX 10 20 2 -6
BITMAP
C0C0
C0C0
C0C0
C0C0
C0C0
C0C0
C0C0
C0C0
C0C0
C0C0
C1C0
E1C0
FEC0
FCC0
C000
C000
C000
C000
C000
C000
ENDCHAR
STARTCHAR 00B6
ENCODING 182
SWIDTH 525 0
DWIDTH 14 0
BBX 10 20 2 0
BITMAP
3FC0
7FC0
FCC0
FCC0
FCC0
FCC0
FCC0
FCC0
FCC0
7CC0
3CC0
0CC0
0CC0
0CC0
0CC0
0CC0
0CC0
0CC0
0CC0
0CC0
ENDCHAR
STARTCHAR 00B7
ENCODING 183
SWIDTH 525 0
DWIDTH 14 0
BBX 4 4 5 7
BITMAP
E0
F0
F0
E0
ENDCHAR
STARTCHAR 00B8
ENCODING 184
SWIDTH 525 0
DWIDTH 14 0
BBX 6 6 4 -6
BITMAP
30
38
0C
0C
F8
F8
ENDCHAR
STARTCHAR 00B9
ENCODING 185
SWIDTH 525 0
DWIDTH 14 0
BBX 5 14 3 9
BITMAP
18
38
F8
58
18
18
18
18
18
18
18
18
18
18
ENDCHAR
STARTCHAR 00BA
ENCODING 186
SWIDTH 525 0
DWIDTH 14 0
BBX 8 14 3 5
BITMAP
3C
FE
C7
C3
C3
C3
C3
C7
FE
3C
00
00
FF
FF
ENDCHAR
STARTCHAR 00BB
ENCODING 187
SWIDTH 525 0
DWIDTH 14 0
BBX 12 14 1 2
BITMAP
C600
6300
6300
3180
3180
18C0
0E70
1CE0
18C0
3180
6300
6300
C600
4200
ENDCHAR
STARTCHAR 00BC
ENCODING 188
SWIDTH 525 0
DWIDTH 14 0
BBX 10 28 2 -5
BITMAP
0C00
1C00
3C00
0C00
0C00
0C00
0C00
0C00
0C00
0C00
0C00
0000
0000
FFC0
FFC0
0000
0000
0600
0C00
0C00
1800
1000
3600
6600
7F00
0600
0600
0600
ENDCHAR
STARTCHAR 00BD
ENCODING 189
SWIDTH 525 0
DWIDTH 14 0
BBX 10 28 2 -5
BITMAP
0C00
1C00
3C00
0C00
0C00
0C00
0C00
0C00
0C00
0C00
0C00
0000
0000
FFC0
FFC0
0000
0000
3E00
3700
6300
0300
0200
0C00
1800
3000
2000
3F00
3F00
ENDCHAR
STARTCHAR 00BE
ENCODING 190
SWIDTH 525 0
DWIDTH 14 0
BBX 10 28 2 -5
BITMAP
1E00
3F00
2300
0300
0E00
0E00
0300
0300
6300
3F00
1E00
0000
0000
FFC0
FFC0
0000
0000
0600
0C00
0C00
1800
1000
3600
6600
7F00
0600
0600
0600
ENDCHAR
STARTCHAR 00BF
ENCODING 191
SWIDTH 525 0
DWIDTH 14 0
BBX 10 20 2 -6
BITMAP
1C00
1E00
1E00
1C00
0000
0000
0C00
0C00
1C00
1800
3800
7000
E000
C000
C000
C0C0
C1C0
E180
7F80
3E00
ENDCHAR
STARTCHAR 00C0
ENCODING 192
SWIDTH 525 0
DWIDTH 14 0
BBX 11 26 1 0
BITMAP
1800
1C00
0E00
0600
0200
0000
0E00
0E00
0F00
0F00
0F00
1B00
1B00
1980
1980
3980
3180
3180
30C0
3FC0
7FC0
60C0
60E0
6060
E060
C060
ENDCHAR
STARTCHAR 00C1
ENCODING 193
SWIDTH 525 0
DWIDTH 14 0
BBX 11 26 1 0
BITMAP
0180
0300
0600
0C00
0400
0000
0E00
0E00
0F00
0F00
0F00
1B00
1B00
1980
1980
3980
3180
3180
30C0
3FC0
7FC0
60C0
60E0
6060
E060
C060
ENDCHAR
STARTCHAR 00C2
ENCODING 194
SWIDTH 525 0
DWIDTH 14 0
BBX 11 26 1 0
BITMAP
0E00
0F00
1B80
31C0
1080
0000
0E00
0E00
0F00
0F00
0F00
1B00
1B00
1980
1980
3980
3180
3180
30C0
3FC0
7FC0
60C0
60E0
6060
E060
C060
ENDCHAR
STARTCHAR 00C3
ENCODING 195
SWIDTH 525 0
DWIDTH 14 0
BBX 11 26 1 0
BITMAP
1C60
3EC0
67C0
6380
0000
0000
0E00
0E00
0F00
0F00
0F00
1B00
1B00
1980
1980
3980
3180
3180
30C0
3FC0
7FC0
60C0
60E0
6060
E060
C060
ENDCHAR
STARTCHAR 00C4
ENCODING 196
SWIDTH 525 0
DWIDTH 14 0
BBX 11 25 1 0
BITMAP
31C0
79C0
39C0
0000
0000
0E00
0E00
0F00
0F00
0F00
1B00
1B00
1980
1980
3980
3180
3180
30C0
3FC0
7FC0
60C0
60E0
6060
E060
C060
ENDCHAR
STARTCHAR 00C5
ENCODING 197
SWIDTH 525 0
DWIDTH 14 0
BBX 11 26 1 0
BITMAP
0E00
1F00
1900
1F00
0F00
0000
0E00
0E00
0F00
0F00
0F00
1B00
1B00
1980
1980
3980
3180
3180
30C0
3FC0
7FC0
60C0
60E0
6060
E060
C060
ENDCHAR
STARTCHAR 00C6
ENCODING 198
SWIDTH 525 0
DWIDTH 14 0
BBX 11 20 1 0
BITMAP
0FE0
0FE0
0E00
0E00
1E00
1E00
1E00
1E00
3600
37E0
37E0
3600
2600
7E00
7E00
6600
6600
C600
C7E0
C7E0
ENDCHAR
STARTCHAR 00C7
ENCODING 199
SWIDTH 525 0
DWIDTH 14 0
BBX 10 26 2 -6
BITMAP
3E00
7F80
E180
C1C0
C0C0
C000
C000
C000
C000
C000
C000
C000
C000
C000
C000
C0C0
C1C0
E180
7F80
3E00
0C00
0E00
0300
0300
3E00
3E00
ENDCHAR
STARTCHAR 00C8
ENCODING 200
SWIDTH 525 0
DWIDTH 14 0
BBX 10 26 2 0
BITMAP
3000
3800
1C00
0C00
0400
0000
FFC0
FFC0
C000
C000
C000
C000
C000
C000
C000
FF00
FF00
C000
C000
C000
C000
C000
C000
C000
FFC0
FFC0
ENDCHAR
STARTCHAR 00C9
ENCODING 201
SWIDTH 525 0
DWIDTH 14 0
BBX 10 26 2 0
BITMAP
0300
0600
0C00
1800
0800
0000
FFC0
FFC0
C000
C000
C000
C000
C000
C000
C000
FF00
FF00
C000
C000
C000
C000
C000
C000
C000
FFC0
FFC0
ENDCHAR
STARTCHAR 00CA
ENCODING 202
SWIDTH 525 0
DWIDTH 14 0
BBX 10 26 2 0
BITMAP
1C00
1E00
3700
6380
2100
0000
FFC0
FFC0
C000
C000
C000
C000
C000
C000
C000
FF00
FF00
C000
C000
C000
C000
C000
C000
C000
FFC0
FFC0
ENDCHAR
STARTCHAR 00CB
ENCODING 203
SWIDTH 525 0
DWIDTH 14 0
BBX 10 25 2 0
BITMAP
6380
F380
7380
0000
0000
FFC0
FFC0
C000
C000
C000
C000
C000
C000
C000
FF00
FF00
C000
C000
C000
C000
C000
C000
C000
FFC0
FFC0
ENDCHAR
STARTCHAR 00CC
ENCODING 204
SWIDTH 525 0
DWIDTH 14 0
BBX 9 26 2 0
BITMAP
3000
3800
1C00
0C00
0400
0000
FF80
FF80
0C00
0C00
0C00
0C00
0C00
0C00
0C00
0C00
0C00
0C00
0C00
0C00
0C00
0C00
0C00
0C00
FF80
FF80
ENDCHAR
STARTCHAR 00CD
ENCODING 205
SWIDTH 525 0
DWIDTH 14 0
BBX 9 26 2 0
BITMAP
0300
0600
0C00
1800
0800
0000
FF80
FF80
0C00
0C00
0C00
0C00
0C00
0C00
0C00
0C00
0C00
0C00
0C00
0C00
0C00
0C00
0C00
0C00
FF80
FF80
ENDCHAR
STARTCHAR 00CE
ENCODING 206
SWIDTH 525 0
DWIDTH 14 0
BBX 9 26 2 0
BITMAP
1C00
1E00
3700
6380
2100
0000
FF80
FF80
0C00
0C00
0C00
0C00
0C00
0C00
0C00
0C00
0C00
0C00
0C00
0C00
0C00
0C00
0C00
0C00
FF80
FF80
ENDCHAR
STARTCHAR 00CF
ENCODING 207
SWIDTH 525 0
DWIDTH 14 0
BBX 9 25 2 0
BITMAP
6380
F380
7380
0000
0000
FF80
FF80
0C00
0C00
0C00
0C00
0C00
0C00
0C00
0C00
0C00
0C00
0C00
0C00
0C00
0C00
0C00
0C00
FF80
FF80
ENDCHAR
STARTCHAR 00D0
ENCODING 208
SWIDTH 525 0
DWIDTH 14 0
BBX 12 20 0 0
BITMAP
3F80
3FC0
30E0
3070
3030
3030
3030
3030
3030
FE30
FE30
3030
3030
3030
3030
3030
3070
30E0
3FC0
3F80
ENDCHAR
STARTCHAR 00D1
ENCODING 209
SWIDTH 525 0
DWIDTH 14 0
BBX 10 26 2 0
BITMAP
38C0
7D80
CF80
C700
0000
0000
C0C0
E0C0
E0C0
E0C0
F0C0
F0C0
D8C0
D8C0
D8C0
CCC0
CCC0
CCC0
C6C0
C6C0
C6C0
C3C0
C3C0
C3C0
C1C0
C1C0
ENDCHAR
STARTCHAR 00D2
ENCODING 210
SWIDTH 525 0
DWIDTH 14 0
BBX 10 26 2 0
BITMAP
3000
3800
1C00
0C00
0400
0000
3E00
7F80
E180
C1C0
C0C0
C0C0
C0C0
C0C0
C0C0
C0C0
C0C0
C0C0
C0C0
C0C0
C0C0
C0C0
C0C0
E180
7F80
3E00
ENDCHAR
STARTCHAR 00D3
ENCODING 211
SWIDTH 525 0
DWIDTH 14 0
BBX 10 26 2 0
BITMAP
0300
0600
0C00
1800
0800
0000
3E00
7F80
E180
C1C0
C0C0
C0C0
C0C0
C0C0
C0C0
C0C0
C0C0
C0C0
C0C0
C0C0
C0C0
C0C0
C0C0
E180
7F80
3E00
ENDCHAR
STARTCHAR 00D4
ENCODING 212
SWIDTH 525 0
DWIDTH 14 0
BBX 10 26 2 0
BITMAP
1C00
1E00
3700
6380
2100
0000
3E00
7F80
E180
C1C0
C0C0
C0C0
C0C0
C0C0
C0C0
C0C0
C0C0
C0C0
C0C0
C0C0
C0C0
C0C0
C0C0
E180
7F80
3E00
ENDCHAR
STARTCHAR 00D5
ENCODING 213
SWIDTH 525 0
DWIDTH 14 0
BBX 10 26 2 0
BITMAP
38C0
7D80
CF80
C700
0000
0000
3E00
7F80
E180
C1C0
C0C0
C0C0
C0C0
C0C0
C0C0
C0C0
C0C0
C0C0
C0C0
C0C0
C0C0
C0C0
C0C0
E180
7F80
3E00
ENDCHAR
STARTCHAR 00D6
ENCODING 214
SWIDTH 525 0
DWIDTH 14 0
BBX 10 25 2 0
BITMAP
6380
F380
7380
0000
0000
3E00
7F80
E180
C1C0
C0C0
C0C0
C0C0
C0C0
C0C0
C0C0
C0C0
C0C0
C0C0
C0C0
C0C0
C0C0
C0C0
E180
7F80
3E00
ENDCHAR
STARTCHAR 00D7
ENCODING 215
SWIDTH 525 0
DWIDTH 14 0
BBX 12 12 1 3
BITMAP
C020
E070
70C0
3980
1F00
0E00
0F00
1B80
31C0
60E0
C070
8020
ENDCHAR
STARTCHAR 00D8
ENCODING 216
SWIDTH 525 0
DWIDTH 14 0
BBX 11 22 1 -1
BITMAP
0060
1F60
3FC0
70C0
61E0
61E0
61E0
6360
6360
6660
6660
6460
6C60
6C60
7860
7860
7060
7060
70C0
7FC0
7F00
C000
ENDCHAR
STARTCHAR 00D9
ENCODING 217
SWIDTH 525 0
DWIDTH 14 0
BBX 10 26 2 0
BITMAP
3000
3800
1C00
0C00
0400
0000
C0C0
C0C0
C0C0
C0C0
C0C0
C0C0
C0C0
C0C0
C0C0
C0C0
C0C0
C0C0
C0C0
C0C0
C0C0
C0C0
C1C0
E180
7F00
3E00
ENDCHAR
STARTCHAR 00DA
ENCODING 218
SWIDTH 525 0
DWIDTH 14 0
BBX 10 26 2 0
BITMAP
0300
0600
0C00
1800
0800
0000
C0C0
C0C0
C0C0
C0C0
C0C0
C0C0
C0C0
C0C0
C0C0
C0C0
C0C0
C0C0
C0C0
C0C0
C0C0
C0C0
C1C0
E180
7F00
3E00
ENDCHAR
STARTCHAR 00DB
ENCODING 219
SWIDTH 525 0
DWIDTH 14 0
BBX 10 26 2 0
BITMAP
1C00
1E00
3700
6380
2100
0000
C0C0
C0C0
C0C0
C0C0
C0C0
C0C0
C0C0
C0C0
C0C0
C0C0
C0C0
C0C0
C0C0
C0C0
C0C0
C0C0
C1C0
E180
7F00
3E00
ENDCHAR
STARTCHAR 00DC
ENCODING 220
SWIDTH 525 0
DWIDTH 14 0
BBX 10 25 2 0
BITMAP
6380
F380
7380
0000
0000
C0C0
C0C0
C0C0
C0C0
C0C0
C0C0
C0C0
C0C0
C0C0
C0C0
C0C0
C0C0
C0C0
C0C0
C0C0
C0C0
C1C0
E180
7F00
3E00
ENDCHAR
STARTCHAR 00DD
ENCODING 221
SWIDTH 525 0
DWIDTH 14 0
BBX 11 26 1 0
BITMAP
0180
0300
0600
0C00
0400
0000
E060
60E0
60C0
30C0
31C0
3180
1980
1B00
1B00
0F00
0E00
0600
0600
0600
0600
0600
0600
0600
0600
0600
ENDCHAR
STARTCHAR 00DE
ENCODING 222
SWIDTH 525 0
DWIDTH 14 0
BBX 10 20 2 0
BITMAP
C000
C000
C000
C000
FC00
FF00
C380
C1C0
C0C0
C0C0
C0C0
C0C0
C1C0
C380
FF00
FE00
C000
C000
C000
C000
ENDCHAR
STARTCHAR 00DF
ENCODING 223
SWIDTH 525 0
DWIDTH 14 0
BBX 10 20 2 0
BITMAP
3E00
7F00
E380
C180
C180
C180
C180
C180
C300
CF00
CF00
C380
C1C0
C0C0
C0C0
C0C0
C1C0
C380
DF00
DE00
ENDCHAR
STARTCHAR 00E0
ENCODING 224
SWIDTH 525 0
DWIDTH 14 0
BBX 10 21 2 0
BITMAP
1000
3000
3800
1C00
0C00
0000
0000
3E00
7F80
E180
C1C0
00C0
00C0
3FC0
7FC0
C0C0
C0C0
C1C0
C1C0
FEC0
7CC0
ENDCHAR
STARTCHAR 00E1
ENCODING 225
SWIDTH 525 0
DWIDTH 14 0
BBX 10 21 2 0
BITMAP
0200
0700
0600
0C00
1800
0000
0000
3E00
7F80
E180
C1C0
00C0
00C0
3FC0
7FC0
C0C0
C0C0
C1C0
C1C0
FEC0
7CC0
ENDCHAR
STARTCHAR 00E2
ENCODING 226
SWIDTH 525 0
DWIDTH 14 0
BBX 10 20 2 0
BITMAP
1C00
3E00
3300
6380
2000
0000
3E00
7F80
E180
C1C0
00C0
00C0
3FC0
7FC0
C0C0
C0C0
C1C0
C1C0
FEC0
7CC0
ENDCHAR
STARTCHAR 00E3
ENCODING 227
SWIDTH 525 0
DWIDTH 14 0
BBX 10 21 2 0
BITMAP
1000
78C0
7D80
CF80
4700
0000
0000
3E00
7F80
E180
C1C0
00C0
00C0
3FC0
7FC0
C0C0
C0C0
C1C0
C1C0
FEC0
7CC0
ENDCHAR
STARTCHAR 00E4
ENCODING 228
SWIDTH 525 0
DWIDTH 14 0
BBX 10 19 2 0
BITMAP
6380
F380
6380
0000
0000
3E00
7F80
E180
C1C0
00C0
00C0
3FC0
7FC0
C0C0
C0C0
C1C0
C1C0
FEC0
7CC0
ENDCHAR
STARTCHAR 00E5
ENCODING 229
SWIDTH 525 0
DWIDTH 14 0
BBX 10 20 2 0
BITMAP
1C00
3E00
3200
3E00
1C00
0000
3E00
7F80
E180
C1C0
00C0
00C0
3FC0
7FC0
C0C0
C0C0
C1C0
C1C0
FEC0
7CC0
ENDCHAR
STARTCHAR 00E6
ENCODING 230
SWIDTH 525 0
DWIDTH 14 0
BBX 11 14 1 0
BITMAP
3BC0
7FE0
E660
C660
0660
0660
3FE0
7FE0
E600
C600
C660
CE60
7FE0
3BC0
ENDCHAR
STARTCHAR 00E7
ENCODING 231
SWIDTH 525 0
DWIDTH 14 0
BBX 10 20 2 -6
BITMAP
3E00
7F80
E180
C1C0
C0C0
C000
C000
C000
C000
C0C0
C1C0
E180
7F80
3E00
0C00
0E00
0300
0300
3E00
3E00
ENDCHAR
STARTCHAR 00E8
ENCODING 232
SWIDTH 525 0
DWIDTH 14 0
BBX 10 21 2 0
BITMAP
1000
3000
3800
1C00
0C00
0000
0000
3E00
7F80
E180
C0C0
C0C0
C0C0
FFC0
FFC0
C000
C000
C0C0
E1C0
7F80
3E00
ENDCHAR
STARTCHAR 00E9
ENCODING 233
SWIDTH 525 0
DWIDTH 14 0
BBX 10 21 2 0
BITMAP
0200
0700
0600
0C00
1800
0000
0000
3E00
7F80
E180
C0C0
C0C0
C0C0
FFC0
FFC0
C000
C000
C0C0
E1C0
7F80
3E00
ENDCHAR
STARTCHAR 00EA
ENCODING 234
SWIDTH 525 0
DWIDTH 14 0
BBX 10 20 2 0
BITMAP
1C00
3E00
3300
6380
2000
0000
3E00
7F80
E180
C0C0
C0C0
C0C0
FFC0
FFC0
C000
C000
C0C0
E1C0
7F80
3E00
ENDCHAR
STARTCHAR 00EB
ENCODING 235
SWIDTH 525 0
DWIDTH 14 0
BBX 10 19 2 0
BITMAP
6380
F380
6380
0000
0000
3E00
7F80
E180
C0C0
C0C0
C0C0
FFC0
FFC0
C000
C000
C0C0
E1C0
7F80
3E00
ENDCHAR
STARTCHAR 00EC
ENCODING 236
SWIDTH 525 0
DWIDTH 14 0
BBX 9 21 2 0
BITMAP
1000
3000
1800
1C00
0C00
0000
0000
FC00
FC00
0C00
0C00
0C00
0C00
0C00
0C00
0C00
0C00
0C00
0C00
FF80
FF80
ENDCHAR
STARTCHAR 00ED
ENCODING 237
SWIDTH 525 0
DWIDTH 14 0
BBX 9 21 2 0
BITMAP
0200
0300
0600
0C00
1800
0000
0000
FC00
FC00
0C00
0C00
0C00
0C00
0C00
0C00
0C00
0C00
0C00
0C00
FF80
FF80
ENDCHAR
STARTCHAR 00EE
ENCODING 238
SWIDTH 525 0
DWIDTH 14 0
BBX 9 20 2 0
BITMAP
1C00
1E00
3300
6180
2000
0000
FC00
FC00
0C00
0C00
0C00
0C00
0C00
0C00
0C00
0C00
0C00
0C00
FF80
FF80
ENDCHAR
STARTCHAR 00EF
ENCODING 239
SWIDTH 525 0
DWIDTH 14 0
BBX 9 19 2 0
BITMAP
6380
F380
6380
0000
0000
FC00
FC00
0C00
0C00
0C00
0C00
0C00
0C00
0C00
0C00
0C00
0C00
FF80
FF80
ENDCHAR
STARTCHAR 00F0
ENCODING 240
SWIDTH 525 0
DWIDTH 14 0
BBX 10 20 2 0
BITMAP
4000
7000
3C00
0E80
07C0
FF00
7380
0180
3D80
7EC0
E1C0
C1C0
C0C0
C0C0
C0C0
C0C0
C1C0
E180
7F80
3E00
ENDCHAR
STARTCHAR 00F1
ENCODING 241
SWIDTH 525 0
DWIDTH 14 0
BBX 10 21 2 0
BITMAP
1000
78C0
7D80
CF80
4700
0000
0000
CF00
DF80
E180
C1C0
C0C0
C0C0
C0C0
C0C0
C0C0
C0C0
C0C0
C0C0
C0C0
C0C0
ENDCHAR
STARTCHAR 00F2
ENCODING 242
SWIDTH 525 0
DWIDTH 14 0
BBX 10 21 2 0
BITMAP
1000
3000
3800
1C00
0C00
0000
0000
3E00
7F80
E180
C0C0
C0C0
C0C0
C0C0
C0C0
C0C0
C0C0
C0C0
E180
7F80
3E00
ENDCHAR
STARTCHAR 00F3
ENCODING 243
SWIDTH 525 0
DWIDTH 14 0
BBX 10 21 2 0
BITMAP
0200
0700
0600
0C00
1800
0000
0000
3E00
7F80
E180
C0C0
C0C0
C0C0
C0C0
C0C0
C0C0
C0C0
C0C0
E180
7F80
3E00
ENDCHAR
STARTCHAR 00F4
ENCODING 244
SWIDTH 525 0
DWIDTH 14 0
BBX 10 20 2 0
BITMAP
1C00
3E00
3300
6380
2000
0000
3E00
7F80
E180
C0C0
C0C0
C0C0
C0C0
C0C0
C0C0
C0C0
C0C0
E180
7F80
3E00
ENDCHAR
STARTCHAR 00F5
ENCODING 245
SWIDTH 525 0
DWIDTH 14 0
BBX 10 21 2 0
BITMAP
1000
78C0
7D80
CF80
4700
0000
0000
3E00
7F80
E180
C0C0
C0C0
C0C0
C0C0
C0C0
C0C0
C0C0
C0C0
E180
7F80
3E00
ENDCHAR
STARTCHAR 00F6
ENCODING 246
SWIDTH 525 0
DWIDTH 14 0
BBX 10 19 2 0
BITMAP
6380
F380
6380
0000
0000
3E00
7F80
E180
C0C0
C0C0
C0C0
C0C0
C0C0
C0C0
C0C0
C0C0
E180
7F80
3E00
ENDCHAR
STARTCHAR 00F7
ENCODING 247
SWIDTH 525 0
DWIDTH 14 0
BBX 10 14 2 2
BITMAP
1C00
1E00
1E00
1C00
0000
0000
FFC0
FFC0
0000
0000
1C00
1E00
1E00
1C00
ENDCHAR
STARTCHAR 00F8
ENCODING 248
SWIDTH 525 0
DWIDTH 14 0
BBX 10 16 2 -1
BITMAP
0080
3EC0
7F80
E380
C3C0
C6C0
C6C0
CCC0
CCC0
D8C0
F0C0
F0C0
E180
FF80
FE00
8000
ENDCHAR
STARTCHAR 00F9
ENCODING 249
SWIDTH 525 0
DWIDTH 14 0
BBX 10 21 2 0
BITMAP
1000
3000
3800
1C00
0C00
0000
0000
C0C0
C0C0
C0C0
C0C0
C0C0
C0C0
C0C0
C0C0
C0C0
C0C0
C1C0
E1C0
7EC0
3CC0
ENDCHAR
STARTCHAR 00FA
ENCODING 250
SWIDTH 525 0
DWIDTH 14 0
BBX 10 21 2 0
BITMAP
0200
0700
0600
0C00
1800
0000
0000
C0C0
C0C0
C0C0
C0C0
C0C0
C0C0
C0C0
C0C0
C0C0
C0C0
C1C0
E1C0
7EC0
3CC0
ENDCHAR
STARTCHAR 00FB
ENCODING 251
SWIDTH 525 0
DWIDTH 14 0
BBX 10 20 2 0
BITMAP
1C00
3E00
3300
6380
2000
0000
C0C0
C0C0
C0C0
C0C0
C0C0
C0C0
C0C0
C0C0
C0C0
C0C0
C1C0
E1C0
7EC0
3CC0
ENDCHAR
STARTCHAR 00FC
ENCODING 252
SWIDTH 525 0
DWIDTH 14 0
BBX 10 19 2 0
BITMAP
6380
F380
6380
0000
0000
C0C0
C0C0
C0C0
C0C0
C0C0
C0C0
C0C0
C0C0
C0C0
C0C0
C1C0
E1C0
7EC0
3CC0
ENDCHAR
STARTCHAR 00FD
ENCODING 253
SWIDTH 525 0
DWIDTH 14 0
BBX 11 27 1 -6
BITMAP
0100
0380
0300
0600
0C00
0000
0000
E060
6060
60C0
70C0
30C0
31C0
3180
1980
1980
1B00
1B00
0F00
0E00
0E00
0600
0E00
0C00
0C00
0C00
1800
ENDCHAR
STARTCHAR 00FE
ENCODING 254
SWIDTH 525 0
DWIDTH 14 0
BBX 10 26 2 -6
BITMAP
C000
C000
C000
C000
C000
C000
CF00
DF80
E180
C0C0
C0C0
C0C0
C0C0
C0C0
C0C0
C0C0
C0C0
E1C0
FF80
CF00
C000
C000
C000
C000
C000
C000
ENDCHAR
STARTCHAR 00FF
ENCODING 255
SWIDTH 525 0
DWIDTH 14 0
BBX 11 25 1 -6
BITMAP
31C0
79C0
31C0
0000
0000
E060
6060
60C0
70C0
30C0
31C0
3180
1980
1980
1B00
1B00
0F00
0E00
0E00
0600
0E00
0C00
0C00
0C00
1800
ENDCHAR
STARTCHAR 0100
ENCODING 256
SWIDTH 525 0
DWIDTH 14 0
BBX 11 25 1 0
BITMAP
3FC0
3FC0
0000
0000
0000
0E00
0E00
0F00
0F00
0F00
1B00
1B00
1980
1980
3980
3180
3180
30C0
3FC0
7FC0
60C0
60E0
6060
E060
C060
ENDCHAR
STARTCHAR 0101
ENCODING 257
SWIDTH 525 0
DWIDTH 14 0
BBX 10 19 2 0
BITMAP
7F80
7F80
0000
0000
0000
3E00
7F80
E180
C1C0
00C0
00C0
3FC0
7FC0
C0C0
C0C0
C1C0
C1C0
FEC0
7CC0
ENDCHAR
STARTCHAR 0102
ENCODING 258
SWIDTH 525 0
DWIDTH 14 0
BBX 11 25 1 0
BITMAP
30C0
3FC0
1F00
0000
0000
0E00
0E00
0F00
0F00
0F00
1B00
1B00
1980
1980
3980
3180
3180
30C0
3FC0
7FC0
60C0
60E0
6060
E060
C060
ENDCHAR
STARTCHAR 0103
ENCODING 259
SWIDTH 525 0
DWIDTH 14 0
BBX 10 20 2 0
BITMAP
4180
6180
7F00
3E00
0000
0000
3E00
7F80
E180
C1C0
00C0
00C0
3FC0
7FC0
C0C0
C0C0
C1C0
C1C0
FEC0
7CC0
ENDCHAR
STARTCHAR 0104
ENCODING 260
SWIDTH 525 0
DWIDTH 14 0
BBX 11 26 1 -6
BITMAP
0E00
0E00
0F00
0F00
0F00
1B00
1B00
1980
1980
3980
3180
3180
30C0
3FC0
7FC0
60C0
60E0
6060
E060
C060
00C0
0180
0180
0180
01E0
00E0
ENDCHAR
STARTCHAR 0105
ENCODING 261
SWIDTH 525 0
DWIDTH 14 0
BBX 10 20 2 -6
BITMAP
3E00
7F80
E180
C1C0
00C0
00C0
3FC0
7FC0
C0C0
C0C0
C1C0
C1C0
FEC0
7CC0
0180
0300
0300
0300
03C0
01C0
ENDCHAR
STARTCHAR 0106
ENCODING 262
SWIDTH 525 0
DWIDTH 14 0
BBX 10 26 2 0
BITMAP
0300
0600
0C00
1800
0800
0000
3E00
7F80
E180
C1C0
C0C0
C000
C000
C000
C000
C000
C000
C000
C000
C000
C000
C0C0
C1C0
E180
7F80
3E00
ENDCHAR
STARTCHAR 0107
ENCODING 263
SWIDTH 525 0
DWIDTH 14 0
BBX 10 21 2 0
BITMAP
0200
0700
0600
0C00
1800
0000
0000
3E00
7F80
E180
C1C0
C0C0
C000
C000
C000
C000
C0C0
C1C0
E180
7F80
3E00
ENDCHAR
STARTCHAR 0108
ENCODING 264
SWIDTH 525 0
DWIDTH 14 0
BBX 10 26 2 0
BITMAP
1C00
1E00
3700
6380
2100
0000
3E00
7F80
E180
C1C0
C0C0
C000
C000
C000
C000
C000
C000
C000
C000
C000
C000
C0C0
C1C0
E180
7F80
3E00
ENDCHAR
STARTCHAR 0109
ENCODING 265
SWIDTH 525 0
DWIDTH 14 0
BBX 10 20 2 0
BITMAP
1C00
3E00
3300
6380
2000
0000
3E00
7F80
E180
C1C0
C0C0
C000
C000
C000
C000
C0C0
C1C0
E180
7F80
3E00
ENDCHAR
STARTCHAR 010A
ENCODING 266
SWIDTH 525 0
DWIDTH 14 0
BBX 10 25 2 0
BITMAP
0C00
1C00
1C00
0000
0000
3E00
7F80
E180
C1C0
C0C0
C000
C000
C000
C000
C000
C000
C000
C000
C000
C000
C0C0
C1C0
E180
7F80
3E00
ENDCHAR
STARTCHAR 010B
ENCODING 267
SWIDTH 525 0
DWIDTH 14 0
BBX 10 19 2 0
BITMAP
1C00
1C00
1C00
0000
0000
3E00
7F80
E180
C1C0
C0C0
C000
C000
C000
C000
C0C0
C1C0
E180
7F80
3E00
ENDCHAR
STARTCHAR 010C
ENCODING 268
SWIDTH 525 0
DWIDTH 14 0
BBX 10 26 2 0
BITMAP
6180
3300
3E00
1C00
0000
0000
3E00
7F80
E180
C1C0
C0C0
C000
C000
C000
C000
C000
C000
C000
C000
C000
C000
C0C0
C1C0
E180
7F80
3E00
ENDCHAR
STARTCHAR 010D
ENCODING 269
SWIDTH 525 0
DWIDTH 14 0
BBX 10 21 2 0
BITMAP
2100
6380
3300
3E00
1C00
0000
0000
3E00
7F80
E180
C1C0
C0C0
C000
C000
C000
C000
C0C0
C1C0
E180
7F80
3E00
ENDCHAR
STARTCHAR 010E
ENCODING 270
SWIDTH 525 0
DWIDTH 14 0
BBX 10 26 2 0
BITMAP
6180
3300
3E00
1C00
0000
0000
FE00
FF00
C380
C1C0
C0C0
C0C0
C0C0
C0C0
C0C0
C0C0
C0C0
C0C0
C0C0
C0C0
C0C0
C0C0
C1C0
C380
FF00
FE00
ENDCHAR
STARTCHAR 010F
ENCODING 271
SWIDTH 525 0
DWIDTH 14 0
BBX 12 20 2 0
BITMAP
01B0
01B0
0190
01B0
01A0
0180
7980
FD80
E380
C180
C180
C180
C180
C180
C180
C180
C180
E380
FD80
7980
ENDCHAR
STARTCHAR 0110
ENCODING 272
SWIDTH 525 0
DWIDTH 14 0
BBX 12 20 0 0
BITMAP
3F80
3FC0
30E0
3070
3030
3030
3030
3030
3030
FE30
FE30
3030
3030
3030
3030
3030
3070
30E0
3FC0
3F80
ENDCHAR
STARTCHAR 0111
ENCODING 273
SWIDTH 525 0
DWIDTH 14 0
BBX 11 20 2 0
BITMAP
00C0
00C0
07E0
07E0
00C0
00C0
3CC0
7EC0
E1C0
C1C0
C0C0
C0C0
C0C0
C0C0
C0C0
C0C0
C1C0
E1C0
7EC0
3CC0
ENDCHAR
STARTCHAR 0112
ENCODING 274
SWIDTH 525 0
DWIDTH 14 0
BBX 10 25 2 0
BITMAP
7F80
7F80
0000
0000
0000
FFC0
FFC0
C000
C000
C000
C000
C000
C000
C000
FF00
FF00
C000
C000
C000
C000
C000
C000
C000
FFC0
FFC0
ENDCHAR
STARTCHAR 0113
ENCODING 275
SWIDTH 525 0
DWIDTH 14 0
BBX 10 19 2 0
BITMAP
7F80
7F80
0000
0000
0000
3E00
7F80
E180
C0C0
C0C0
C0C0
FFC0
FFC0
C000
C000
C0C0
E1C0
7F80
3E00
ENDCHAR
STARTCHAR 0114
ENCODING 276
SWIDTH 525 0
DWIDTH 14 0
BBX 10 25 2 0
BITMAP
6180
7F80
3E00
0000
0000
FFC0
FFC0
C000
C000
C000
C000
C000
C000
C000
FF00
FF00
C000
C000
C000
C000
C000
C000
C000
FFC0
FFC0
ENDCHAR
STARTCHAR 0115
ENCODING 277
SWIDTH 525 0
DWIDTH 14 0
BBX 10 20 2 0
BITMAP
4180
6180
7F00
3E00
0000
0000
3E00
7F80
E180
C0C0
C0C0
C0C0
FFC0
FFC0
C000
C000
C0C0
E1C0
7F80
3E00
ENDCHAR
STARTCHAR 0116
ENCODING 278
SWIDTH 525 0
DWIDTH 14 0
BBX 10 25 2 0
BITMAP
0C00
1C00
1C00
0000
0000
FFC0
FFC0
C000
C000
C000
C000
C000
C000
C000
FF00
FF00
C000
C000
C000
C000
C000
C000
C000
FFC0
FFC0
ENDCHAR
STARTCHAR 0117
ENCODING 279
SWIDTH 525 0
DWIDTH 14 0
BBX 10 19 2 0
BITMAP
1C00
1C00
1C00
0000
0000
3E00
7F80
E180
C0C0
C0C0
C0C0
FFC0
FFC0
C000
C000
C0C0
E1C0
7F80
3E00
ENDCHAR
STARTCHAR 0118
ENCODING 280
SWIDTH 525 0
DWIDTH 14 0
BBX 10 26 2 -6
BITMAP
FFC0
FFC0
C000
C000
C000
C000
C000
C000
C000
FF00
FF00
C000
C000
C000
C000
C000
C000
C000
FFC0
FFC0
0180
0300
0300
0300
03C0
01C0
ENDCHAR
STARTCHAR 0119
ENCODING 281
SWIDTH 525 0
DWIDTH 14 0
BBX 10 20 2 -6
BITMAP
3E00
7F80
E180
C1C0
C0C0
C0C0
FFC0
FFC0
C000
C000
C0C0
E1C0
7FC0
3F80
0180
0300
0300
0300
03C0
01C0
ENDCHAR
STARTCHAR 011A
ENCODING 282
SWIDTH 525 0
DWIDTH 14 0
BBX 10 26 2 0
BITMAP
6180
3300
3E00
1C00
0000
0000
FFC0
FFC0
C000
C000
C000
C000
C000
C000
C000
FF00
FF00
C000
C000
C000
C000
C000
C000
C000
FFC0
FFC0
ENDCHAR
STARTCHAR 011B
ENCODING 283
SWIDTH 525 0
DWIDTH 14 0
BBX 10 21 2 0
BITMAP
2100
6380
3300
3E00
1C00
0000
0000
3E00
7F80
E180
C0C0
C0C0
C0C0
FFC0
FFC0
C000
C000
C0C0
E1C0
7F80
3E00
ENDCHAR
STARTCHAR 011C
ENCODING 284
SWIDTH 525 0
DWIDTH 14 0
BBX 10 26 2 0
BITMAP
1C00
1E00
3700
6380
2100
0000
3E00
7F80
E180
C1C0
C0C0
C000
C000
C000
C000
C7C0
C7C0
C0C0
C0C0
C0C0
C0C0
C0C0
C1C0
E1C0
7EC0
3CC0
ENDCHAR
STARTCHAR 011D
ENCODING 285
SWIDTH 525 0
DWIDTH 14 0
BBX 10 26 2 -6
BITMAP
1C00
3E00
3300
6380
2000
0000
3CC0
7EC0
E1C0
C1C0
C0C0
C0C0
C0C0
C0C0
C0C0
C0C0
C1C0
E1C0
7EC0
3CC0
00C0
00C0
C1C0
E180
7F00
3E00
ENDCHAR
STARTCHAR 011E
ENCODING 286
SWIDTH 525 0
DWIDTH 14 0
BBX 10 25 2 0
BITMAP
6180
7F80
3E00
0000
0000
3E00
7F80
E180
C1C0
C0C0
C000
C000
C000
C000
C7C0
C7C0
C0C0
C0C0
C0C0
C0C0
C0C0
C1C0
E1C0
7EC0
3CC0
ENDCHAR
STARTCHAR 011F
ENCODING 287
SWIDTH 525 0
DWIDTH 14 0
BBX 10 26 2 -6
BITMAP
4180
6180
7F00
3E00
0000
0000
3CC0
7EC0
E1C0
C1C0
C0C0
C0C0
C0C0
C0C0
C0C0
C0C0
C1C0
E1C0
7EC0
3CC0
00C0
00C0
C1C0
E180
7F00
3E00
ENDCHAR
STARTCHAR 0120
ENCODING 288
SWIDTH 525 0
DWIDTH 14 0
BBX 10 25 2 0
BITMAP
0C00
1C00
1C00
0000
0000
3E00
7F80
E180
C1C0
C0C0
C000
C000
C000
C000
C7C0
C7C0
C0C0
C0C0
C0C0
C0C0
C0C0
C1C0
E1C0
7EC0
3CC0
ENDCHAR
STARTCHAR 0121
ENCODING 289
SWIDTH 525 0
DWIDTH 14 0
BBX 10 25 2 -6
BITMAP
1C00
1C00
1C00
0000
0000
3CC0
7EC0
E1C0
C1C0
C0C0
C0C0
C0C0
C0C0
C0C0
C0C0
C1C0
E1C0
7EC0
3CC0
00C0
00C0
C1C0
E180
7F00
3E00
ENDCHAR
STARTCHAR 0122
ENCODING 290
SWIDTH 525 0
DWIDTH 14 0
BBX 10 26 2 -6
BITMAP
3E00
7F80
E180
C1C0
C0C0
C000
C000
C000
C000
C7C0
C7C0
C0C0
C0C0
C0C0
C0C0
C0C0
C1C0
E1C0
7EC0
3CC0
0000
0C00
1C00
0C00
0C00
1800
ENDCHAR
STARTCHAR 0123
ENCODING 291
SWIDTH 525 0
DWIDTH 14 0
BBX 10 26 2 -6
BITMAP
0C00
0800
0800
1C00
0C00
0000
3CC0
7EC0
E1C0
C1C0
C0C0
C0C0
C0C0
C0C0
C0C0
C0C0
C1C0
E1C0
7EC0
3CC0
00C0
00C0
C1C0
E180
7F00
3E00
ENDCHAR
STARTCHAR 0124
ENCODING 292
SWIDTH 525 0
DWIDTH 14 0
BBX 10 26 2 0
BITMAP
1C00
1E00
3700
6380
2100
0000
C0C0
C0C0
C0C0
C0C0
C0C0
C0C0
C0C0
C0C0
C0C0
FFC0
FFC0
C0C0
C0C0
C0C0
C0C0
C0C0
C0C0
C0C0
C0C0
C0C0
ENDCHAR
STARTCHAR 0125
ENCODING 293
SWIDTH 525 0
DWIDTH 14 0
BBX 13 26 -1 0
BITMAP
3800
3C00
6E00
C700
4200
0000
1800
1800
1800
1800
1800
1800
19E0
1BF0
1C30
1838
1818
1818
1818
1818
1818
1818
1818
1818
1818
1818
ENDCHAR
STARTCHAR 0126
ENCODING 294
SWIDTH 525 0
DWIDTH 14 0
BBX 12 20 1 0
BITMAP
6060
6060
6060
6060
FFF0
FFF0
6060
6060
6060
7FE0
7FE0
6060
6060
6060
6060
6060
6060
6060
6060
6060
ENDCHAR
STARTCHAR 0127
ENCODING 295
SWIDTH 525 0
DWIDTH 14 0
BBX 11 20 1 0
BITMAP
6000
6000
6000
FC00
FC00
6000
6780
6FC0
70C0
60E0
6060
6060
6060
6060
6060
6060
6060
6060
6060
6060
ENDCHAR
STARTCHAR 0128
ENCODING 296
SWIDTH 525 0
DWIDTH 14 0
BBX 10 26 2 0
BITMAP
38C0
7D80
CF80
C700
0000
0000
FF80
FF80
0C00
0C00
0C00
0C00
0C00
0C00
0C00
0C00
0C00
0C00
0C00
0C00
0C00
0C00
0C00
0C00
FF80
FF80
ENDCHAR
STARTCHAR 0129
ENCODING 297
SWIDTH 525 0
DWIDTH 14 0
BBX 10 21 2 0
BITMAP
1000
78C0
7D80
CF80
4700
0000
0000
FC00
FC00
0C00
0C00
0C00
0C00
0C00
0C00
0C00
0C00
0C00
0C00
FF80
FF80
ENDCHAR
STARTCHAR 012A
ENCODING 298
SWIDTH 525 0
DWIDTH 14 0
BBX 9 25 2 0
BITMAP
7F80
7F80
0000
0000
0000
FF80
FF80
0C00
0C00
0C00
0C00
0C00
0C00
0C00
0C00
0C00
0C00
0C00
0C00
0C00
0C00
0C00
0C00
FF80
FF80
ENDCHAR
STARTCHAR 012B
ENCODING 299
SWIDTH 525 0
DWIDTH 14 0
BBX 9 19 2 0
BITMAP
7F80
7F80
0000
0000
0000
FC00
FC00
0C00
0C00
0C00
0C00
0C00
0C00
0C00
0C00
0C00
0C00
FF80
FF80
ENDCHAR
STARTCHAR 012C
ENCODING 300
SWIDTH 525 0
DWIDTH 14 0
BBX 9 25 2 0
BITMAP
6180
7F80
3E00
0000
0000
FF80
FF80
0C00
0C00
0C00
0C00
0C00
0C00
0C00
0C00
0C00
0C00
0C00
0C00
0C00
0C00
0C00
0C00
FF80
FF80
ENDCHAR
STARTCHAR 012D
ENCODING 301
SWIDTH 525 0
DWIDTH 14 0
BBX 9 20 2 0
BITMAP
4180
6180
7F00
3E00
0000
0000
FC00
FC00
0C00
0C00
0C00
0C00
0C00
0C00
0C00
0C00
0C00
0C00
FF80
FF80
ENDCHAR
STARTCHAR 012E
ENCODING 302
SWIDTH 525 0
DWIDTH 14 0
BBX 10 26 2 -6
BITMAP
FF80
FF80
0C00
0C00
0C00
0C00
0C00
0C00
0C00
0C00
0C00
0C00
0C00
0C00
0C00
0C00
0C00
0C00
FF80
FF80
0180
0300
0300
0300
03C0
01C0
ENDCHAR
STARTCHAR 012F
ENCODING 303
SWIDTH 525 0
DWIDTH 14 0
BBX 10 25 2 -6
BITMAP
0C00
1E00
0C00
0000
0000
FC00
FC00
0C00
0C00
0C00
0C00
0C00
0C00
0C00
0C00
0C00
0C00
FF80
FF80
0180
0300
0300
0300
03C0
01C0
ENDCHAR
STARTCHAR 0130
ENCODING 304
SWIDTH 525 0
DWIDTH 14 0
BBX 9 25 2 0
BITMAP
0C00
1C00
1C00
0000
0000
FF80
FF80
0C00
0C00
0C00
0C00
0C00
0C00
0C00
0C00
0C00
0C00
0C00
0C00
0C00
0C00
0C00
0C00
FF80
FF80
ENDCHAR
STARTCHAR 0131
ENCODING 305
SWIDTH 525 0
DWIDTH 14 0
BBX 9 14 2 0
BITMAP
FC00
FC00
0C00
0C00
0C00
0C00
0C00
0C00
0C00
0C00
0C00
0C00
FF80
FF80
ENDCHAR
STARTCHAR 0132
ENCODING 306
SWIDTH 525 0
DWIDTH 14 0
BBX 12 20 0 0
BITMAP
FEF0
FEF0
1830
1830
1830
1830
1830
1830
1830
1830
1830
1830
1830
1830
1830
19B0
19B0
19B0
FFE0
FEE0
ENDCHAR
STARTCHAR 0133
ENCODING 307
SWIDTH 525 0
DWIDTH 14 0
BBX 13 26 0 -6
BITMAP
3838
3838
3838
0000
0000
0000
78F8
78F8
1818
1818
1818
1818
1818
1818
1818
1818
1818
1818
FE18
FE18
0018
0018
0330
0330
01F0
00E0
ENDCHAR
STARTCHAR 0134
ENCODING 308
SWIDTH 525 0
DWIDTH 14 0
BBX 12 26 1 0
BITMAP
01C0
03E0
0360
0630
0410
0000
0FC0
0FC0
00C0
00C0
00C0
00C0
00C0
00C0
00C0
00C0
00C0
00C0
00C0
00C0
00C0
C0C0
E0C0
61C0
7F80
1F00
ENDCHAR
STARTCHAR 0135
ENCODING 309
SWIDTH 525 0
DWIDTH 14 0
BBX 11 26 1 -6
BITMAP
0380
07C0
0CC0
1C60
0800
0000
1F80
1F80
0380
0380
0380
0380
0380
0380
0380
0380
0380
0380
0380
0380
0380
0300
C300
C300
FE00
3C00
ENDCHAR
STARTCHAR 0136
ENCODING 310
SWIDTH 525 0
DWIDTH 14 0
BBX 10 26 2 -6
BITMAP
C1C0
C180
C380
C300
C600
C600
CC00
DC00
D800
F800
F800
EC00
EC00
C600
C600
C300
C300
C180
C180
C0C0
0000
0C00
1C00
0C00
0C00
1800
ENDCHAR
STARTCHAR 0137
ENCODING 311
SWIDTH 525 0
DWIDTH 14 0
BBX 10 26 2 -6
BITMAP
C000
C000
C000
C000
C000
C000
C1C0
C380
C300
C600
CC00
DC00
F800
FC00
EC00
C600
C700
C300
C180
C1C0
0000
0C00
1C00
0C00
0C00
1800
ENDCHAR
STARTCHAR 0138
ENCODING 312
SWIDTH 525 0
DWIDTH 14 0
BBX 10 14 2 0
BITMAP
C1C0
C380
C300
C600
CC00
DC00
F800
FC00
EC00
C600
C700
C300
C180
C1C0
ENDCHAR
STARTCHAR 0139
ENCODING 313
SWIDTH 525 0
DWIDTH 14 0
BBX 10 26 2 0
BITMAP
3800
3000
6000
C000
4000
0000
6000
6000
6000
6000
6000
6000
6000
6000
6000
6000
6000
6000
6000
6000
6000
6000
6000
6000
7FC0
7FC0
ENDCHAR
STARTCHAR 013A
ENCODING 314
SWIDTH 525 0
DWIDTH 14 0
BBX 9 26 2 0
BITMAP
0300
0600
0C00
1C00
0800
0000
FC00
FC00
0C00
0C00
0C00
0C00
0C00
0C00
0C00
0C00
0C00
0C00
0C00
0C00
0C00
0C00
0C00
0C00
FF80
FF80
ENDCHAR
STARTCHAR 013B
ENCODING 315
SWIDTH 525 0
DWIDTH 14 0
BBX 9 26 3 -6
BITMAP
C000
C000
C000
C000
C000
C000
C000
C000
C000
C000
C000
C000
C000
C000
C000
C000
C000
C000
FF80
FF80
0000
1800
3800
1800
1800
3000
ENDCHAR
STARTCHAR 013C
ENCODING 316
SWIDTH 525 0
DWIDTH 14 0
BBX 9 26 2 -6
BITMAP
FC00
FC00
0C00
0C00
0C00
0C00
0C00
0C00
0C00
0C00
0C00
0C00
0C00
0C00
0C00
0C00
0C00
0C00
FF80
FF80
0000
0C00
0C00
0400
0C00
0800
ENDCHAR
STARTCHAR 013D
ENCODING 317
SWIDTH 525 0
DWIDTH 14 0
BBX 9 20 3 0
BITMAP
C380
C380
C180
C100
C300
C000
C000
C000
C000
C000
C000
C000
C000
C000
C000
C000
C000
C000
FF80
FF80
ENDCHAR
STARTCHAR 013E
ENCODING 318
SWIDTH 525 0
DWIDTH 14 0
BBX 10 20 2 0
BITMAP
FCC0
FDC0
0CC0
0CC0
0D80
0C00
0C00
0C00
0C00
0C00
0C00
0C00
0C00
0C00
0C00
0C00
0C00
0C00
FF80
FF80
ENDCHAR
STARTCHAR 013F
ENCODING 319
SWIDTH 525 0
DWIDTH 14 0
BBX 9 20 3 0
BITMAP
C000
C000
C000
C000
C000
C000
C000
C600
CF00
CF00
CE00
C000
C000
C000
C000
C000
C000
C000
FF80
FF80
ENDCHAR
STARTCHAR 0140
ENCODING 320
SWIDTH 525 0
DWIDTH 14 0
BBX 11 20 1 0
BITMAP
7C00
7C00
0C00
0C00
0C00
0C00
0C00
0CC0
0DE0
0DE0
0CE0
0C00
0C00
0C00
0C00
0C00
0C00
0C00
FFC0
FFC0
ENDCHAR
STARTCHAR 0141
ENCODING 321
SWIDTH 525 0
DWIDTH 14 0
BBX 12 20 0 0
BITMAP
1800
1800
1800
1800
1800
1800
1800
1B80
1F00
3C00
F800
5800
1800
1800
1800
1800
1800
1800
1FF0
1FF0
ENDCHAR
STARTCHAR 0142
ENCODING 322
SWIDTH 525 0
DWIDTH 14 0
BBX 9 20 2 0
BITMAP
FC00
FC00
0C00
0C00
0C00
0C00
0C00
0D80
0F80
1E00
7C00
6C00
0C00
0C00
0C00
0C00
0C00
0C00
FF80
FF80
ENDCHAR
STARTCHAR 0143
ENCODING 323
SWIDTH 525 0
DWIDTH 14 0
BBX 10 26 2 0
BITMAP
0300
0600
0C00
1800
0800
0000
C0C0
E0C0
E0C0
E0C0
F0C0
F0C0
D8C0
D8C0
D8C0
CCC0
CCC0
CCC0
C6C0
C6C0
C6C0
C3C0
C3C0
C3C0
C1C0
C1C0
ENDCHAR
STARTCHAR 0144
ENCODING 324
SWIDTH 525 0
DWIDTH 14 0
BBX 10 21 2 0
BITMAP
0200
0700
0600
0C00
1800
0000
0000
CF00
DF80
E180
C1C0
C0C0
C0C0
C0C0
C0C0
C0C0
C0C0
C0C0
C0C0
C0C0
C0C0
ENDCHAR
STARTCHAR 0145
ENCODING 325
SWIDTH 525 0
DWIDTH 14 0
BBX 10 26 2 -6
BITMAP
C0C0
E0C0
E0C0
E0C0
F0C0
F0C0
D8C0
D8C0
D8C0
CCC0
CCC0
CCC0
C6C0
C6C0
C6C0
C3C0
C3C0
C3C0
C1C0
C1C0
0000
0C00
1C00
0C00
0C00
1800
ENDCHAR
STARTCHAR 0146
ENCODING 326
SWIDTH 525 0
DWIDTH 14 0
BBX 10 20 2 -6
BITMAP
CF00
DF80
E180
C1C0
C0C0
C0C0
C0C0
C0C0
C0C0
C0C0
C0C0
C0C0
C0C0
C0C0
0000
0C00
1C00
0C00
0C00
1800
ENDCHAR
STARTCHAR 0147
ENCODING 327
SWIDTH 525 0
DWIDTH 14 0
BBX 10 26 2 0
BITMAP
6180
3300
3E00
1C00
0000
0000
C0C0
E0C0
E0C0
E0C0
F0C0
F0C0
D8C0
D8C0
D8C0
CCC0
CCC0
CCC0
C6C0
C6C0
C6C0
C3C0
C3C0
C3C0
C1C0
C1C0
ENDCHAR
STARTCHAR 0148
ENCODING 328
SWIDTH 525 0
DWIDTH 14 0
BBX 10 21 2 0
BITMAP
2100
6380
3300
3E00
1C00
0000
0000
CF00
DF80
E180
C1C0
C0C0
C0C0
C0C0
C0C0
C0C0
C0C0
C0C0
C0C0
C0C0
C0C0
ENDCHAR
STARTCHAR 0149
ENCODING 329
SWIDTH 525 0
DWIDTH 14 0
BBX 12 20 0 0
BITMAP
6000
E000
6000
6000
C000
0000
33C0
37E0
3860
3070
3030
3030
3030
3030
3030
3030
3030
3030
3030
3030
ENDCHAR
STARTCHAR 014A
ENCODING 330
SWIDTH 525 0
DWIDTH 14 0
BBX 10 26 2 -6
BITMAP
C0C0
E0C0
E0C0
E0C0
F0C0
F0C0
D8C0
D8C0
D8C0
CCC0
CCC0
CCC0
C6C0
C6C0
C6C0
C3C0
C3C0
C3C0
C1C0
C1C0
00C0
00C0
01C0
0180
0F80
0E00
ENDCHAR
STARTCHAR 014B
ENCODING 331
SWIDTH 525 0
DWIDTH 14 0
BBX 10 20 2 -6
BITMAP
CF00
DF80
E180
C1C0
C0C0
C0C0
C0C0
C0C0
C0C0
C0C0
C0C0
C0C0
C0C0
C0C0
00C0
00C0
01C0
0180
0F80
0E00
ENDCHAR
STARTCHAR 014C
ENCODING 332
SWIDTH 525 0
DWIDTH 14 0
BBX 10 25 2 0
BITMAP
7F80
7F80
0000
0000
0000
3E00
7F80
E180
C1C0
C0C0
C0C0
C0C0
C0C0
C0C0
C0C0
C0C0
C0C0
C0C0
C0C0
C0C0
C0C0
C0C0
E180
7F80
3E00
ENDCHAR
STARTCHAR 014D
ENCODING 333
SWIDTH 525 0
DWIDTH 14 0
BBX 10 19 2 0
BITMAP
7F80
7F80
0000
0000
0000
3E00
7F80
E180
C0C0
C0C0
C0C0
C0C0
C0C0
C0C0
C0C0
C0C0
E180
7F80
3E00
ENDCHAR
STARTCHAR 014E
ENCODING 334
SWIDTH 525 0
DWIDTH 14 0
BBX 10 25 2 0
BITMAP
6180
7F80
3E00
0000
0000
3E00
7F80
E180
C1C0
C0C0
C0C0
C0C0
C0C0
C0C0
C0C0
C0C0
C0C0
C0C0
C0C0
C0C0
C0C0
C0C0
E180
7F80
3E00
ENDCHAR
STARTCHAR 014F
ENCODING 335
SWIDTH 525 0
DWIDTH 14 0
BBX 10 20 2 0
BITMAP
4180
6180
7F00
3E00
0000
0000
3E00
7F80
E180
C0C0
C0C0
C0C0
C0C0
C0C0
C0C0
C0C0
C0C0
E180
7F80
3E00
ENDCHAR
STARTCHAR 0150
ENCODING 336
SWIDTH 525 0
DWIDTH 14 0
BBX 11 26 2 0
BITMAP
0CE0
19C0
3380
6700
2200
0000
3E00
7F80
E180
C1C0
C0C0
C0C0
C0C0
C0C0
C0C0
C0C0
C0C0
C0C0
C0C0
C0C0
C0C0
C0C0
C0C0
E180
7F80
3E00
ENDCHAR
STARTCHAR 0151
ENCODING 337
SWIDTH 525 0
DWIDTH 14 0
BBX 11 21 2 0
BITMAP
0880
1CE0
39C0
3380
6700
0000
0000
3E00
7F80
E180
C0C0
C0C0
C0C0
C0C0
C0C0
C0C0
C0C0
C0C0
E180
7F80
3E00
ENDCHAR
STARTCHAR 0152
ENCODING 338
SWIDTH 525 0
DWIDTH 14 0
BBX 11 20 1 0
BITMAP
1FE0
7FE0
6600
C600
C600
C600
C600
C600
C600
C7E0
C7E0
C600
C600
C600
C600
C600
C600
6600
7FE0
1FE0
ENDCHAR
STARTCHAR 0153
ENCODING 339
SWIDTH 525 0
DWIDTH 14 0
BBX 11 14 1 0
BITMAP
3BC0
7FE0
CE60
C660
C660
C660
C7E0
C7E0
C600
C600
C660
CE60
7FE0
3BC0
ENDCHAR
STARTCHAR 0154
ENCODING 340
SWIDTH 525 0
DWIDTH 14 0
BBX 10 26 2 0
BITMAP
0300
0600
0C00
1800
0800
0000
FE00
FF80
C180
C1C0
C0C0
C0C0
C0C0
C0C0
C1C0
C180
FF80
FE00
CE00
C600
C700
C300
C380
C180
C1C0
C0C0
ENDCHAR
STARTCHAR 0155
ENCODING 341
SWIDTH 525 0
DWIDTH 14 0
BBX 9 21 3 0
BITMAP
0400
0600
0C00
1800
3800
0000
0000
CF00
DF80
D180
E180
E000
C000
C000
C000
C000
C000
C000
C000
C000
C000
ENDCHAR
STARTCHAR 0156
ENCODING 342
SWIDTH 525 0
DWIDTH 14 0
BBX 10 26 2 -6
BITMAP
FE00
FF80
C180
C1C0
C0C0
C0C0
C0C0
C0C0
C1C0
C180
FF80
FE00
CE00
C600
C700
C300
C380
C180
C1C0
C0C0
0000
0C00
1C00
0C00
0C00
1800
ENDCHAR
STARTCHAR 0157
ENCODING 343
SWIDTH 525 0
DWIDTH 14 0
BBX 9 20 3 -6
BITMAP
CF00
DF80
D180
E180
E000
C000
C000
C000
C000
C000
C000
C000
C000
C000
0000
C000
E000
6000
4000
C000
ENDCHAR
STARTCHAR 0158
ENCODING 344
SWIDTH 525 0
DWIDTH 14 0
BBX 10 26 2 0
BITMAP
6180
3300
3E00
1C00
0000
0000
FE00
FF80
C180
C1C0
C0C0
C0C0
C0C0
C0C0
C1C0
C180
FF80
FE00
CE00
C600
C700
C300
C380
C180
C1C0
C0C0
ENDCHAR
STARTCHAR 0159
ENCODING 345
SWIDTH 525 0
DWIDTH 14 0
BBX 9 21 3 0
BITMAP
4200
C300
6600
3C00
3C00
0000
0000
CF00
DF80
D180
E180
E000
C000
C000
C000
C000
C000
C000
C000
C000
C000
ENDCHAR
STARTCHAR 015A
ENCODING 346
SWIDTH 525 0
DWIDTH 14 0
BBX 11 26 1 0
BITMAP
0180
0300
0600
0C00
0400
0000
1F00
3FC0
70C0
60E0
6060
6000
6000
7000
3800
1E00
0F80
03C0
00C0
0060
0060
E060
6060
70C0
3FC0
1F00
ENDCHAR
STARTCHAR 015B
ENCODING 347
SWIDTH 525 0
DWIDTH 14 0
BBX 10 21 2 0
BITMAP
0200
0700
0600
0C00
1800
0000
0000
3E00
7F80
E180
C1C0
C000
7000
7E00
1F00
0380
01C0
C0C0
C1C0
FF80
3F00
ENDCHAR
STARTCHAR 015C
ENCODING 348
SWIDTH 525 0
DWIDTH 14 0
BBX 11 26 1 0
BITMAP
0E00
0F00
1B80
31C0
1080
0000
1F00
3FC0
70C0
60E0
6060
6000
6000
7000
3800
1E00
0F80
03C0
00C0
0060
0060
E060
6060
70C0
3FC0
1F00
ENDCHAR
STARTCHAR 015D
ENCODING 349
SWIDTH 525 0
DWIDTH 14 0
BBX 10 20 2 0
BITMAP
1C00
3E00
3300
6380
2000
0000
3E00
7F80
E180
C1C0
C000
7000
7E00
1F00
0380
01C0
C0C0
C1C0
FF80
3F00
ENDCHAR
STARTCHAR 015E
ENCODING 350
SWIDTH 525 0
DWIDTH 14 0
BBX 11 26 1 -6
BITMAP
1F00
3FC0
70C0
60E0
6060
6000
6000
7000
3800
1E00
0F80
03C0
00C0
0060
0060
E060
6060
70C0
3FC0
1F00
0600
0700
0180
0180
1F00
1F00
ENDCHAR
STARTCHAR 015F
ENCODING 351
SWIDTH 525 0
DWIDTH 14 0
BBX 10 20 2 -6
BITMAP
3E00
7F80
E180
C1C0
C000
7000
7E00
1F00
0380
01C0
C0C0
C1C0
FF80
3F00
0C00
0E00
0300
0300
3E00
3E00
ENDCHAR
STARTCHAR 0160
ENCODING 352
SWIDTH 525 0
DWIDTH 14 0
BBX 11 26 1 0
BITMAP
30C0
1980
1F00
0E00
0000
0000
1F00
3FC0
70C0
60E0
6060
6000
6000
7000
3800
1E00
0F80
03C0
00C0
0060
0060
E060
6060
70C0
3FC0
1F00
ENDCHAR
STARTCHAR 0161
ENCODING 353
SWIDTH 525 0
DWIDTH 14 0
BBX 10 21 2 0
BITMAP
2100
6380
3300
3E00
1C00
0000
0000
3E00
7F80
E180
C1C0
C000
7000
7E00
1F00
0380
01C0
C0C0
C1C0
FF80
3F00
ENDCHAR
STARTCHAR 0162
ENCODING 354
SWIDTH 525 0
DWIDTH 14 0
BBX 10 26 2 -6
BITMAP
FFC0
FFC0
0C00
0C00
0C00
0C00
0C00
0C00
0C00
0C00
0C00
0C00
0C00
0C00
0C00
0C00
0C00
0C00
0C00
0C00
0C00
0E00
0300
0300
3E00
3E00
ENDCHAR
STARTCHAR 0163
ENCODING 355
SWIDTH 525 0
DWIDTH 14 0
BBX 11 26 2 -6
BITMAP
3800
3800
3800
3800
3800
3800
FF80
FF80
3800
3800
3800
3800
3800
3800
3800
38E0
18C0
18C0
1FC0
0F80
0600
0700
0180
0180
1F80
1F00
ENDCHAR
STARTCHAR 0164
ENCODING 356
SWIDTH 525 0
DWIDTH 14 0
BBX 10 26 2 0
BITMAP
6180
3300
3E00
1C00
0000
0000
FFC0
FFC0
0C00
0C00
0C00
0C00
0C00
0C00
0C00
0C00
0C00
0C00
0C00
0C00
0C00
0C00
0C00
0C00
0C00
0C00
ENDCHAR
STARTCHAR 0165
ENCODING 357
SWIDTH 525 0
DWIDTH 14 0
BBX 11 20 2 0
BITMAP
38C0
39C0
38C0
38C0
3980
3800
FF80
FF80
3800
3800
3800
3800
3800
3800
3800
38E0
18C0
18C0
1FC0
0F80
ENDCHAR
STARTCHAR 0166
ENCODING 358
SWIDTH 525 0
DWIDTH 14 0
BBX 10 20 2 0
BITMAP
FFC0
FFC0
0C00
0C00
0C00
0C00
0C00
0C00
0C00
0C00
7F00
7F00
0C00
0C00
0C00
0C00
0C00
0C00
0C00
0C00
ENDCHAR
STARTCHAR 0167
ENCODING 359
SWIDTH 525 0
DWIDTH 14 0
BBX 11 20 2 0
BITMAP
3800
3800
3800
3800
3800
3800
FF80
FF80
3800
3800
3800
FE00
FE00
3800
3800
38E0
18C0
18C0
1FC0
0F80
ENDCHAR
STARTCHAR 0168
ENCODING 360
SWIDTH 525 0
DWIDTH 14 0
BBX 10 26 2 0
BITMAP
38C0
7D80
CF80
C700
0000
0000
C0C0
C0C0
C0C0
C0C0
C0C0
C0C0
C0C0
C0C0
C0C0
C0C0
C0C0
C0C0
C0C0
C0C0
C0C0
C0C0
C1C0
E180
7F00
3E00
ENDCHAR
STARTCHAR 0169
ENCODING 361
SWIDTH 525 0
DWIDTH 14 0
BBX 10 21 2 0
BITMAP
1000
78C0
7D80
CF80
4700
0000
0000
C0C0
C0C0
C0C0
C0C0
C0C0
C0C0
C0C0
C0C0
C0C0
C0C0
C1C0
E1C0
7EC0
3CC0
ENDCHAR
STARTCHAR 016A
ENCODING 362
SWIDTH 525 0
DWIDTH 14 0
BBX 10 25 2 0
BITMAP
7F80
7F80
0000
0000
0000
C0C0
C0C0
C0C0
C0C0
C0C0
C0C0
C0C0
C0C0
C0C0
C0C0
C0C0
C0C0
C0C0
C0C0
C0C0
C0C0
C1C0
E180
7F00
3E00
ENDCHAR
STARTCHAR 016B
ENCODING 363
SWIDTH 525 0
DWIDTH 14 0
BBX 10 19 2 0
BITMAP
7F80
7F80
0000
0000
0000
C0C0
C0C0
C0C0
C0C0
C0C0
C0C0
C0C0
C0C0
C0C0
C0C0
C1C0
E1C0
7EC0
3CC0
ENDCHAR
STARTCHAR 016C
ENCODING 364
SWIDTH 525 0
DWIDTH 14 0
BBX 10 25 2 0
BITMAP
6180
7F80
3E00
0000
0000
C0C0
C0C0
C0C0
C0C0
C0C0
C0C0
C0C0
C0C0
C0C0
C0C0
C0C0
C0C0
C0C0
C0C0
C0C0
C0C0
C1C0
E180
7F00
3E00
ENDCHAR
STARTCHAR 016D
ENCODING 365
SWIDTH 525 0
DWIDTH 14 0
BBX 10 20 2 0
BITMAP
4180
6180
7F00
3E00
0000
0000
C0C0
C0C0
C0C0
C0C0
C0C0
C0C0
C0C0
C0C0
C0C0
C0C0
C1C0
E1C0
7EC0
3CC0
ENDCHAR
STARTCHAR 016E
ENCODING 366
SWIDTH 525 0
DWIDTH 14 0
BBX 10 26 2 0
BITMAP
1C00
3E00
3200
3E00
1E00
0000
C0C0
C0C0
C0C0
C0C0
C0C0
C0C0
C0C0
C0C0
C0C0
C0C0
C0C0
C0C0
C0C0
C0C0
C0C0
C0C0
C1C0
E180
7F00
3E00
ENDCHAR
STARTCHAR 016F
ENCODING 367
SWIDTH 525 0
DWIDTH 14 0
BBX 10 20 2 0
BITMAP
1C00
3E00
3200
3E00
1C00
0000
C0C0
C0C0
C0C0
C0C0
C0C0
C0C0
C0C0
C0C0
C0C0
C0C0
C1C0
E1C0
7EC0
3CC0
ENDCHAR
STARTCHAR 0170
ENCODING 368
SWIDTH 525 0
DWIDTH 14 0
BBX 11 26 2 0
BITMAP
0CE0
19C0
3380
6700
2200
0000
C0C0
C0C0
C0C0
C0C0
C0C0
C0C0
C0C0
C0C0
C0C0
C0C0
C0C0
C0C0
C0C0
C0C0
C0C0
C0C0
C1C0
E180
7F00
3E00
ENDCHAR
STARTCHAR 0171
ENCODING 369
SWIDTH 525 0
DWIDTH 14 0
BBX 11 21 2 0
BITMAP
0880
1CE0
39C0
3380
6700
0000
0000
C0C0
C0C0
C0C0
C0C0
C0C0
C0C0
C0C0
C0C0
C0C0
C0C0
C1C0
E1C0
7EC0
3CC0
ENDCHAR
STARTCHAR 0172
ENCODING 370
SWIDTH 525 0
DWIDTH 14 0
BBX 10 26 2 -6
BITMAP
C0C0
C0C0
C0C0
C0C0
C0C0
C0C0
C0C0
C0C0
C0C0
C0C0
C0C0
C0C0
C0C0
C0C0
C0C0
C0C0
C1C0
E180
7F00
3E00
0C00
1800
1000
3000
1E00
0E00
ENDCHAR
STARTCHAR 0173
ENCODING 371
SWIDTH 525 0
DWIDTH 14 0
BBX 10 20 2 -6
BITMAP
C0C0
C0C0
C0C0
C0C0
C0C0
C0C0
C0C0
C0C0
C0C0
C0C0
C1C0
E1C0
7EC0
3CC0
0180
0300
0300
0300
03C0
01C0
ENDCHAR
STARTCHAR 0174
ENCODING 372
SWIDTH 525 0
DWIDTH 14 0
BBX 12 26 1 0
BITMAP
0E00
0F00
1B80
31C0
1080
0000
C070
C060
C060
C060
C060
4060
6660
6660
6E60
6E40
6E40
6B40
6BC0
6BC0
29C0
39C0
39C0
39C0
3180
3180
ENDCHAR
STARTCHAR 0175
ENCODING 373
SWIDTH 525 0
DWIDTH 14 0
BBX 12 20 1 0
BITMAP
0E00
1F00
1980
31C0
1000
0000
C070
C060
C060
4060
6660
6E60
6E60
6E40
6B40
6BC0
39C0
39C0
31C0
3180
ENDCHAR
STARTCHAR 0176
ENCODING 374
SWIDTH 525 0
DWIDTH 14 0
BBX 11 26 1 0
BITMAP
0E00
0F00
1B80
31C0
1080
0000
E060
60E0
60C0
30C0
31C0
3180
1980
1B00
1B00
0F00
0E00
0600
0600
0600
0600
0600
0600
0600
0600
0600
ENDCHAR
STARTCHAR 0177
ENCODING 375
SWIDTH 525 0
DWIDTH 14 0
BBX 11 26 1 -6
BITMAP
0E00
1F00
1980
31C0
1000
0000
E060
6060
60C0
70C0
30C0
31C0
3180
1980
1980
1B00
1B00
0F00
0E00
0E00
0600
0E00
0C00
0C00
0C00
1800
ENDCHAR
STARTCHAR 0178
ENCODING 376
SWIDTH 525 0
DWIDTH 14 0
BBX 11 25 1 0
BITMAP
31C0
79C0
39C0
0000
0000
E060
60E0
60C0
30C0
31C0
3180
1980
1B00
1B00
0F00
0E00
0600
0600
0600
0600
0600
0600
0600
0600
0600
ENDCHAR
STARTCHAR 0179
ENCODING 377
SWIDTH 525 0
DWIDTH 14 0
BBX 10 26 2 0
BITMAP
0300
0600
0C00
1800
0800
0000
FFC0
FFC0
0180
0180
0380
0300
0700
0600
0E00
0C00
1C00
1800
3800
3000
7000
6000
E000
C000
FFC0
FFC0
ENDCHAR
STARTCHAR 017A
ENCODING 378
SWIDTH 525 0
DWIDTH 14 0
BBX 10 21 2 0
BITMAP
0200
0700
0600
0C00
1800
0000
0000
FFC0
FFC0
0180
0380
0700
0600
0C00
1C00
3800
3000
6000
E000
FFC0
FFC0
ENDCHAR
STARTCHAR 017B
ENCODING 379
SWIDTH 525 0
DWIDTH 14 0
BBX 10 25 2 0
BITMAP
0C00
1C00
1C00
0000
0000
FFC0
FFC0
0180
0180
0380
0300
0700
0600
0E00
0C00
1C00
1800
3800
3000
7000
6000
E000
C000
FFC0
FFC0
ENDCHAR
STARTCHAR 017C
ENCODING 380
SWIDTH 525 0
DWIDTH 14 0
BBX 10 19 2 0
BITMAP
1C00
1C00
1C00
0000
0000
FFC0
FFC0
0180
0380
0700
0600
0C00
1C00
3800
3000
6000
E000
FFC0
FFC0
ENDCHAR
STARTCHAR 017D
ENCODING 381
SWIDTH 525 0
DWIDTH 14 0
BBX 10 26 2 0
BITMAP
6180
3300
3E00
1C00
0000
0000
FFC0
FFC0
0180
0180
0380
0300
0700
0600
0E00
0C00
1C00
1800
3800
3000
7000
6000
E000
C000
FFC0
FFC0
ENDCHAR
STARTCHAR 017E
ENCODING 382
SWIDTH 525 0
DWIDTH 14 0
BBX 10 21 2 0
BITMAP
2100
6380
3300
3E00
1C00
0000
0000
FFC0
FFC0
0180
0380
0700
0600
0C00
1C00
3800
3000
6000
E000
FFC0
FFC0
ENDCHAR
STARTCHAR 017F
ENCODING 383
SWIDTH 525 0
DWIDTH 14 0
BBX 8 20 4 0
BITMAP
3C
7E
E7
C3
C3
C0
C0
C0
C0
C0
C0
C0
C0
C0
C0
C0
C0
C0
C0
C0
ENDCHAR
STARTCHAR 0180
ENCODING 384
SWIDTH 525 0
DWIDTH 14 0
BBX 12 20 0 0
BITMAP
3000
3000
FE00
FE00
3000
3000
33C0
37E0
3860
3030
3030
3030
3030
3030
3030
3030
3030
3870
3FE0
33C0
ENDCHAR
STARTCHAR 0181
ENCODING 385
SWIDTH 525 0
DWIDTH 14 0
BBX 13 20 -1 0
BITMAP
7FC0
7FE0
D870
D830
D830
1838
1830
1830
1870
1FE0
1FE0
1830
1818
1818
1818
1818
1818
1838
1FF0
1FC0
ENDCHAR
STARTCHAR 0182
ENCODING 386
SWIDTH 525 0
DWIDTH 14 0
BBX 10 20 2 0
BITMAP
FF80
FF80
C000
C000
C000
C000
C000
C000
FE00
FF00
C380
C1C0
C0C0
C0C0
C0C0
C0C0
C1C0
C180
FF80
FE00
ENDCHAR
STARTCHAR 0183
ENCODING 387
SWIDTH 525 0
DWIDTH 14 0
BBX 10 20 2 0
BITMAP
FF80
FF80
C000
C000
C000
C000
CF00
DF80
E180
C0C0
C0C0
C0C0
C0C0
C0C0
C0C0
C0C0
C0C0
E1C0
FF80
CF00
ENDCHAR
STARTCHAR 0184
ENCODING 388
SWIDTH 525 0
DWIDTH 14 0
BBX 11 20 1 0
BITMAP
3800
7800
7800
F800
3800
3800
3800
3800
3F00
3FC0
38C0
38E0
3860
3860
3860
3860
38E0
38C0
3FC0
3F00
ENDCHAR
STARTCHAR 0185
ENCODING 389
SWIDTH 525 0
DWIDTH 14 0
BBX 11 14 1 0
BITMAP
3800
7800
7800
F800
3800
3F80
3FC0
38E0
3860
3860
3860
38E0
3FC0
3F80
ENDCHAR
STARTCHAR 0186
ENCODING 390
SWIDTH 525 0
DWIDTH 14 0
BBX 10 20 2 0
BITMAP
3E00
7F80
E180
C1C0
C0C0
00C0
00C0
00C0
00C0
00C0
00C0
00C0
00C0
00C0
00C0
C0C0
C0C0
E180
7F80
3E00
ENDCHAR
STARTCHAR 0187
ENCODING 391
SWIDTH 525 0
DWIDTH 14 0
BBX 13 26 2 0
BITMAP
0018
0078
00E0
00C0
00C0
00C0
3CC0
7EC0
E1C0
C0C0
C0C0
C000
C000
C000
C000
C000
C000
C000
C000
C000
C000
C0C0
C1C0
E180
7F80
3E00
ENDCHAR
STARTCHAR 0188
ENCODING 392
SWIDTH 525 0
DWIDTH 14 0
BBX 13 20 2 0
BITMAP
0038
0078
00E0
00C0
00C0
00C0
3CC0
7EC0
E1C0
C0C0
C0C0
C000
C000
C000
C000
C0C0
C1C0
E180
7F80
3E00
ENDCHAR
STARTCHAR 0189
ENCODING 393
SWIDTH 525 0
DWIDTH 14 0
BBX 12 20 0 0
BITMAP
3F80
3FC0
30E0
3070
3030
3030
3030
3030
3030
FE30
FE30
3030
3030
3030
3030
3030
3070
30E0
3FC0
3F80
ENDCHAR
STARTCHAR 018A
ENCODING 394
SWIDTH 525 0
DWIDTH 14 0
BBX 13 20 -1 0
BITMAP
7FC0
7FE0
D870
D838
D818
1818
1818
1818
1818
1818
1818
1818
1818
1818
1818
1818
1838
1870
1FE0
1FC0
ENDCHAR
STARTCHAR 018B
ENCODING 395
SWIDTH 525 0
DWIDTH 14 0
BBX 10 20 2 0
BITMAP
7FC0
7FC0
00C0
00C0
00C0
00C0
00C0
00C0
1FC0
7FC0
E0C0
C0C0
C0C0
C0C0
C0C0
C0C0
C0C0
E0C0
7FC0
3FC0
ENDCHAR
STARTCHAR 018C
ENCODING 396
SWIDTH 525 0
DWIDTH 14 0
BBX 10 20 2 0
BITMAP
7FC0
7FC0
00C0
00C0
00C0
00C0
3CC0
7EC0
E1C0
C1C0
C0C0
C0C0
C0C0
C0C0
C0C0
C0C0
C1C0
E1C0
7EC0
3CC0
ENDCHAR
STARTCHAR 018D
ENCODING 397
SWIDTH 525 0
DWIDTH 14 0
BBX 10 20 2 -6
BITMAP
3E00
7F80
E180
C1C0
C0C0
C0C0
C0C0
C0C0
C0C0
C0C0
E180
7F00
1F00
0180
0180
0180
0180
4180
FF00
3E00
ENDCHAR
STARTCHAR 018E
ENCODING 398
SWIDTH 525 0
DWIDTH 14 0
BBX 10 20 2 0
BITMAP
FFC0
FFC0
01C0
01C0
01C0
01C0
01C0
01C0
01C0
7FC0
7FC0
01C0
01C0
01C0
01C0
01C0
01C0
01C0
FFC0
FFC0
ENDCHAR
STARTCHAR 018F
ENCODING 399
SWIDTH 525 0
DWIDTH 14 0
BBX 10 20 2 0
BITMAP
3E00
7F80
E180
C1C0
C0C0
00C0
00C0
00C0
00C0
FFC0
FFC0
C0C0
C0C0
C0C0
C0C0
C0C0
C0C0
E180
7F80
3E00
ENDCHAR
STARTCHAR 0190
ENCODING 400
SWIDTH 525 0
DWIDTH 14 0
BBX 11 20 1 0
BITMAP
1F00
3F80
71C0
60C0
60E0
6000
6000
6000
7000
3E00
3E00
7000
6000
C000
C000
E060
6060
70C0
3FC0
1F00
ENDCHAR
STARTCHAR 0191
ENCODING 401
SWIDTH 525 0
DWIDTH 14 0
BBX 12 26 0 -6
BITMAP
1FF0
1FF0
1800
1800
1800
1800
1800
1800
1800
1FC0
1FC0
1800
1800
1800
1800
1800
1800
1800
1800
1800
1800
1800
3800
3000
F000
C000
ENDCHAR
STARTCHAR 0192
ENCODING 402
SWIDTH 525 0
DWIDTH 14 0
BBX 11 26 2 -6
BITMAP
0780
0FC0
0CE0
1C60
1800
1800
1800
1800
FFC0
FFC0
1800
1800
1800
1800
1800
1800
1800
1800
1800
1800
1800
1800
1800
1800
F800
E000
ENDCHAR
STARTCHAR 0193
ENCODING 403
SWIDTH 525 0
DWIDTH 14 0
BBX 13 26 2 0
BITMAP
0018
0078
00E0
00C0
00C0
00C0
3CC0
7EC0
E1C0
C1C0
C0C0
C000
C000
C000
C000
C7C0
C7C0
C0C0
C0C0
C0C0
C0C0
C0C0
C1C0
E1C0
7EC0
3CC0
ENDCHAR
STARTCHAR 0194
ENCODING 404
SWIDTH 525 0
DWIDTH 14 0
BBX 10 26 2 -6
BITMAP
C0C0
C180
C180
6180
6300
6300
3300
3200
3600
1E00
1E00
1C00
1C00
0C00
0C00
1C00
1C00
1C00
1E00
1600
1600
3600
3600
3600
1E00
1C00
ENDCHAR
STARTCHAR 0195
ENCODING 405
SWIDTH 525 0
DWIDTH 14 0
BBX 11 20 1 0
BITMAP
C000
C000
C000
C000
C000
C000
DC60
FC60
E660
C660
C660
C660
C660
C660
C660
C660
C660
C660
C7E0
C3C0
ENDCHAR
STARTCHAR 0196
ENCODING 406
SWIDTH 525 0
DWIDTH 14 0
BBX 10 20 2 0
BITMAP
FC00
FC00
0C00
0C00
0C00
0C00
0C00
0C00
0C00
0C00
0C00
0C00
0C00
0C00
0C00
0C00
0C00
0E00
07C0
03C0
ENDCHAR
STARTCHAR 0197
ENCODING 407
SWIDTH 525 0
DWIDTH 14 0
BBX 9 20 2 0
BITMAP
FF80
FF80
0C00
0C00
0C00
0C00
0C00
0C00
0C00
7F00
7F00
0C00
0C00
0C00
0C00
0C00
0C00
0C00
FF80
FF80
ENDCHAR
STARTCHAR 0198
ENCODING 408
SWIDTH 525 0
DWIDTH 14 0
BBX 10 20 2 0
BITMAP
C1C0
C3C0
C700
C600
CC00
CC00
DC00
D800
F800
F800
F800
EC00
EC00
C600
C600
C300
C300
C180
C180
C0C0
ENDCHAR
STARTCHAR 0199
ENCODING 409
SWIDTH 525 0
DWIDTH 14 0
BBX 10 20 2 0
BITMAP
1800
7800
6000
C000
C000
C000
C1C0
C380
C300
C600
CC00
DC00
F800
FC00
EC00
C600
C700
C300
C180
C1C0
ENDCHAR
STARTCHAR 019A
ENCODING 410
SWIDTH 525 0
DWIDTH 14 0
BBX 9 20 2 0
BITMAP
FC00
FC00
0C00
0C00
0C00
0C00
0C00
0C00
0C00
7F00
7F00
0C00
0C00
0C00
0C00
0C00
0C00
0C00
FF80
FF80
ENDCHAR
STARTCHAR 019B
ENCODING 411
SWIDTH 525 0
DWIDTH 14 0
BBX 11 20 1 0
BITMAP
1800
1C00
0D80
0F00
1E00
7600
2E00
0E00
0F00
1B00
1B00
1980
1980
3180
3180
30C0
70C0
60C0
6060
E060
ENDCHAR
STARTCHAR 019C
ENCODING 412
SWIDTH 525 0
DWIDTH 14 0
BBX 11 20 1 0
BITMAP
C660
C660
C660
C660
C660
C660
C660
C660
C660
C660
C660
C660
C660
C660
C660
C660
C660
E660
7FE0
73E0
ENDCHAR
STARTCHAR 019D
ENCODING 413
SWIDTH 525 0
DWIDTH 14 0
BBX 13 26 -1 -6
BITMAP
1818
1C18
1C18
1C18
1E18
1E18
1B18
1B18
1B18
1998
1998
1998
18D8
18D8
18D8
1878
1878
1878
1838
1838
1800
1800
3800
3000
F000
C000
ENDCHAR
STARTCHAR 019E
ENCODING 414
SWIDTH 525 0
DWIDTH 14 0
BBX 10 20 2 -6
BITMAP
CF00
DF80
E180
C1C0
C0C0
C0C0
C0C0
C0C0
C0C0
C0C0
C0C0
C0C0
C0C0
C0C0
00C0
00C0
00C0
00C0
00C0
00C0
ENDCHAR
STARTCHAR 019F
ENCODING 415
SWIDTH 525 0
DWIDTH 14 0
BBX 10 20 2 0
BITMAP
3E00
7F80
E180
C1C0
C0C0
C0C0
C0C0
C0C0
C0C0
FFC0
FFC0
C0C0
C0C0
C0C0
C0C0
C0C0
C0C0
E180
7F80
3E00
ENDCHAR
STARTCHAR 01A0
ENCODING 416
SWIDTH 525 0
DWIDTH 14 0
BBX 12 24 2 0
BITMAP
0030
0030
0030
0010
3E10
7FA0
E1E0
C1C0
C0C0
C0C0
C0C0
C0C0
C0C0
C0C0
C0C0
C0C0
C0C0
C0C0
C0C0
C0C0
C0C0
E180
7F80
3E00
ENDCHAR
STARTCHAR 01A1
ENCODING 417
SWIDTH 525 0
DWIDTH 14 0
BBX 12 18 2 0
BITMAP
0030
0030
0030
0010
3E10
7FA0
E1E0
C0C0
C0C0
C0C0
C0C0
C0C0
C0C0
C0C0
C0C0
E180
7F80
3E00
ENDCHAR
STARTCHAR 01A2
ENCODING 418
SWIDTH 525 0
DWIDTH 14 0
BBX 11 26 1 -6
BITMAP
3C60
7EE0
67E0
C7E0
C660
C660
C660
C660
C660
C660
C660
C660
C660
C660
C660
C660
C660
6660
7E60
3C60
0060
0060
0060
0060
0060
0060
ENDCHAR
STARTCHAR 01A3
ENCODING 419
SWIDTH 525 0
DWIDTH 14 0
BBX 11 20 1 -6
BITMAP
3C60
7EE0
67E0
C7E0
C660
C660
C660
C660
C660
C660
C660
6660
7E60
3C60
0060
0060
0060
0060
0060
0060
ENDCHAR
STARTCHAR 01A4
ENCODING 420
SWIDTH 525 0
DWIDTH 14 0
BBX 13 20 -1 0
BITMAP
3FC0
7FF0
5830
5818
D818
1818
1818
1818
1818
1830
1FF0
1FC0
1800
1800
1800
1800
1800
1800
1800
1800
ENDCHAR
STARTCHAR 01A5
ENCODING 421
SWIDTH 525 0
DWIDTH 14 0
BBX 10 26 2 -6
BITMAP
3800
7800
E000
C000
C000
C000
CF00
DF80
E180
C0C0
C0C0
C0C0
C0C0
C0C0
C0C0
C0C0
C0C0
E1C0
FF80
CF00
C000
C000
C000
C000
C000
C000
ENDCHAR
STARTCHAR 01A6
ENCODING 422
SWIDTH 525 0
DWIDTH 14 0
BBX 10 26 2 -6
BITMAP
C000
C000
C000
C000
FE00
FF80
C180
C1C0
C0C0
C0C0
C0C0
C0C0
C180
FF80
FE00
CC00
C600
C600
C700
C300
0300
0380
0180
0180
00C0
00C0
ENDCHAR
STARTCHAR 01A7
ENCODING 423
SWIDTH 525 0
DWIDTH 14 0
BBX 10 20 2 0
BITMAP
3E00
7F80
E180
C1C0
C0C0
00C0
01C0
0180
0780
1E00
3C00
7000
E000
C000
C000
C0C0
C1C0
E180
7F80
3E00
ENDCHAR
STARTCHAR 01A8
ENCODING 424
SWIDTH 525 0
DWIDTH 14 0
BBX 10 14 2 0
BITMAP
3E00
7F80
E180
C1C0
0180
0380
1F00
7C00
E000
C000
C0C0
C1C0
7F80
3F00
ENDCHAR
STARTCHAR 01A9
ENCODING 425
SWIDTH 525 0
DWIDTH 14 0
BBX 10 20 2 0
BITMAP
FFC0
FFC0
C000
6000
6000
3000
3000
1800
1800
0C00
0C00
1800
1800
3000
3000
6000
6000
C000
FFC0
FFC0
ENDCHAR
STARTCHAR 01AA
ENCODING 426
SWIDTH 525 0
DWIDTH 14 0
BBX 8 26 3 -6
BITMAP
70
F8
98
D8
F8
78
18
18
18
18
18
18
18
18
18
18
18
18
18
18
18
18
18
1C
0F
03
ENDCHAR
STARTCHAR 01AB
ENCODING 427
SWIDTH 525 0
DWIDTH 14 0
BBX 11 26 2 -6
BITMAP
3800
3800
3800
3800
3800
3800
FF80
FF80
3800
3800
3800
3800
3800
3800
3800
38E0
18E0
18E0
1FE0
0FE0
0060
0060
00C0
00C0
03C0
0300
ENDCHAR
STARTCHAR 01AC
ENCODING 428
SWIDTH 525 0
DWIDTH 14 0
BBX 10 20 2 0
BITMAP
7FC0
FFC0
CC00
CC00
8C00
0C00
0C00
0C00
0C00
0C00
0C00
0C00
0C00
0C00
0C00
0C00
0C00
0C00
0C00
0C00
ENDCHAR
STARTCHAR 01AD
ENCODING 429
SWIDTH 525 0
DWIDTH 14 0
BBX 11 20 2 0
BITMAP
0600
0E00
1C00
1800
3800
3800
FF80
FF80
3800
3800
3800
3800
3800
3800
3800
38E0
18C0
18C0
1FC0
0F80
ENDCHAR
STARTCHAR 01AE
ENCODING 430
SWIDTH 525 0
DWIDTH 14 0
BBX 10 26 2 -6
BITMAP
FFC0
FFC0
0C00
0C00
0C00
0C00
0C00
0C00
0C00
0C00
0C00
0C00
0C00
0C00
0C00
0C00
0C00
0C00
0C00
0C00
0C00
0C00
0C00
0E00
0780
0380
ENDCHAR
STARTCHAR 01AF
ENCODING 431
SWIDTH 525 0
DWIDTH 14 0
BBX 12 24 2 0
BITMAP
0030
0030
0030
0010
C0F0
C0C0
C0C0
C0C0
C0C0
C0C0
C0C0
C0C0
C0C0
C0C0
C0C0
C0C0
C0C0
C0C0
C0C0
C0C0
C1C0
E180
7F00
3E00
ENDCHAR
STARTCHAR 01B0
ENCODING 432
SWIDTH 525 0
DWIDTH 14 0
BBX 12 18 2 0
BITMAP
0030
0030
0030
0010
C0E0
C0C0
C0C0
C0C0
C0C0
C0C0
C0C0
C0C0
C0C0
C0C0
C1C0
E1C0
7EC0
3CC0
ENDCHAR
STARTCHAR 01B1
ENCODING 433
SWIDTH 525 0
DWIDTH 14 0
BBX 10 20 2 0
BITMAP
F3C0
F3C0
3300
6380
C180
C0C0
C0C0
C0C0
C0C0
C0C0
C0C0
C0C0
C0C0
C0C0
C0C0
C0C0
C1C0
E180
7F00
3E00
ENDCHAR
STARTCHAR 01B2
ENCODING 434
SWIDTH 525 0
DWIDTH 14 0
BBX 10 20 2 0
BITMAP
C600
C780
C180
C1C0
C0C0
C0C0
C0C0
C0C0
C0C0
C0C0
C0C0
C0C0
C0C0
C0C0
C0C0
C0C0
C1C0
E180
7F00
3E00
ENDCHAR
STARTCHAR 01B3
ENCODING 435
SWIDTH 525 0
DWIDTH 14 0
BBX 12 20 1 0
BITMAP
E070
60F0
60C0
30C0
3180
3180
1980
1B00
1F00
0F00
0E00
0600
0600
0600
0600
0600
0600
0600
0600
0600
ENDCHAR
STARTCHAR 01B4
ENCODING 436
SWIDTH 525 0
DWIDTH 14 0
BBX 12 20 1 -6
BITMAP
E030
6070
60C0
70C0
31C0
3180
3180
1980
1B80
1B00
1B00
0F00
0E00
0E00
0600
0E00
0C00
0C00
0C00
1800
ENDCHAR
STARTCHAR 01B5
ENCODING 437
SWIDTH 525 0
DWIDTH 14 0
BBX 10 20 2 0
BITMAP
FFC0
FFC0
0180
0180
0380
0300
0700
0600
0E00
7F00
7F00
1800
3800
3000
7000
6000
E000
C000
FFC0
FFC0
ENDCHAR
STARTCHAR 01B6
ENCODING 438
SWIDTH 525 0
DWIDTH 14 0
BBX 10 14 2 0
BITMAP
FFC0
FFC0
0180
0380
0700
0600
7F00
7F00
3800
3000
6000
E000
FFC0
FFC0
ENDCHAR
STARTCHAR 01B7
ENCODING 439
SWIDTH 525 0
DWIDTH 14 0
BBX 10 20 2 0
BITMAP
FF80
FF80
0380
0700
0600
0C00
1800
3800
3E00
3F00
0380
01C0
00C0
00C0
00C0
C0C0
C1C0
E180
7F80
3E00
ENDCHAR
STARTCHAR 01B8
ENCODING 440
SWIDTH 525 0
DWIDTH 14 0
BBX 10 20 2 0
BITMAP
FFC0
FFC0
6000
3000
1800
1C00
0C00
0600
1F00
7F00
E000
C000
C000
C000
C000
C0C0
C1C0
E180
7F80
3E00
ENDCHAR
STARTCHAR 01B9
ENCODING 441
SWIDTH 525 0
DWIDTH 14 0
BBX 10 20 2 -6
BITMAP
FFC0
FFC0
6000
3000
1800
1C00
0C00
0600
1F00
7F00
E000
C000
C000
C000
C000
C0C0
C1C0
E180
7F80
3E00
ENDCHAR
STARTCHAR 01BA
ENCODING 442
SWIDTH 525 0
DWIDTH 14 0
BBX 10 20 2 -6
BITMAP
FF80
FF80
0300
0600
1C00
3800
3E00
3F80
01C0
00C0
00C0
00C0
01C0
3F80
FE00
C000
C000
C000
FFC0
7FC0
ENDCHAR
STARTCHAR 01BB
ENCODING 443
SWIDTH 525 0
DWIDTH 14 0
BBX 12 20 1 0
BITMAP
1F00
3FC0
70C0
60E0
6060
0060
0060
00E0
00C0
FFF0
FFF0
0E00
1C00
3800
3000
7000
6000
6000
7FE0
7FE0
ENDCHAR
STARTCHAR 01BC
ENCODING 444
SWIDTH 525 0
DWIDTH 14 0
BBX 10 20 2 0
BITMAP
FF80
FF80
E000
E000
E000
E000
E000
FE00
FF00
E180
E1C0
00C0
00C0
00C0
00C0
C0C0
C1C0
E180
7F00
3E00
ENDCHAR
STARTCHAR 01BD
ENCODING 445
SWIDTH 525 0
DWIDTH 14 0
BBX 10 14 2 0
BITMAP
FF80
FF80
E000
E000
E000
FF00
FF80
E1C0
00C0
00C0
00C0
C1C0
FF80
3F00
ENDCHAR
STARTCHAR 01BE
ENCODING 446
SWIDTH 525 0
DWIDTH 14 0
BBX 10 20 2 0
BITMAP
3800
3800
3800
3800
3800
3800
FF80
FF80
1800
1C00
0E00
0700
0380
0180
01C0
00C0
C0C0
C180
7F80
3E00
ENDCHAR
STARTCHAR 01BF
ENCODING 447
SWIDTH 525 0
DWIDTH 14 0
BBX 10 20 2 -6
BITMAP
DF00
FF80
E180
C0C0
C0C0
C0C0
C0C0
C1C0
C180
C380
C700
CE00
DC00
F800
F000
E000
C000
C000
C000
C000
ENDCHAR
STARTCHAR 01C0
ENCODING 448
SWIDTH 525 0
DWIDTH 14 0
BBX 2 26 6 -4
BITMAP
C0
C0
C0
C0
C0
C0
C0
C0
C0
C0
C0
C0
C0
C0
C0
C0
C0
C0
C0
C0
C0
C0
C0
C0
C0
C0
ENDCHAR
STARTCHAR 01C1
ENCODING 449
SWIDTH 525 0
DWIDTH 14 0
BBX 7 26 3 -4
BITMAP
C6
C6
C6
C6
C6
C6
C6
C6
C6
C6
C6
C6
C6
C6
C6
C6
C6
C6
C6
C6
C6
C6
C6
C6
C6
C6
ENDCHAR
STARTCHAR 01C2
ENCODING 450
SWIDTH 525 0
DWIDTH 14 0
BBX 10 26 2 -4
BITMAP
0C00
0C00
0C00
0C00
0C00
0C00
0C00
0C00
0C00
0C00
FFC0
FFC0
0C00
0C00
FFC0
FFC0
0C00
0C00
0C00
0C00
0C00
0C00
0C00
0C00
0C00
0C00
ENDCHAR
STARTCHAR 01C3
ENCODING 451
SWIDTH 525 0
DWIDTH 14 0
BBX 4 20 5 0
BITMAP
60
60
60
60
60
60
60
60
60
60
60
60
60
00
00
00
E0
F0
F0
E0
ENDCHAR
STARTCHAR 01C4
ENCODING 452
SWIDTH 525 0
DWIDTH 14 0
BBX 13 26 0 0
BITMAP
0098
00D0
0050
0070
0060
0000
F1F8
F9F8
CC18
CC18
C410
C430
C430
C430
C430
C420
C460
C460
C460
C440
C4C0
C4C0
CCC0
CC80
F9F8
F1F8
ENDCHAR
STARTCHAR 01C5
ENCODING 453
SWIDTH 525 0
DWIDTH 14 0
BBX 13 20 0 0
BITMAP
F098
F8D0
CC70
CC60
C400
C400
C5F8
C5F8
C418
C410
C410
C430
C420
C460
C440
C4C0
CCC0
CC80
F9F8
F1F8
ENDCHAR
STARTCHAR 01C6
ENCODING 454
SWIDTH 525 0
DWIDTH 14 0
BBX 13 20 0 0
BITMAP
0498
04D0
0470
0460
0400
0400
75F8
75F8
4C18
CC10
C410
C430
C420
C460
C440
C4C0
CCC0
CC80
75F8
75F8
ENDCHAR
STARTCHAR 01C7
ENCODING 455
SWIDTH 525 0
DWIDTH 14 0
BBX 12 20 1 0
BITMAP
C0F0
C0F0
C030
C030
C030
C030
C030
C030
C030
C030
C030
C030
C030
C030
C030
C330
C330
C320
F9E0
F8C0
ENDCHAR
STARTCHAR 01C8
ENCODING 456
SWIDTH 525 0
DWIDTH 14 0
BBX 12 26 1 -6
BITMAP
C060
C070
C060
C000
C000
C000
C0E0
C0E0
C020
C020
C020
C020
C020
C020
C020
C020
C020
C020
F820
F820
0020
0020
0220
0360
03E0
01C0
ENDCHAR
STARTCHAR 01C9
ENCODING 457
SWIDTH 525 0
DWIDTH 14 0
BBX 13 26 0 -6
BITMAP
7030
7038
1030
1000
1000
1000
1070
1070
1010
1010
1010
1010
1010
1010
1010
1010
1010
1010
FC10
FC10
0010
0010
0110
01B0
01F0
00E0
ENDCHAR
STARTCHAR 01CA
ENCODING 458
SWIDTH 525 0
DWIDTH 14 0
BBX 13 20 0 0
BITMAP
C478
C478
E418
E418
E418
E418
E418
E418
F418
D418
D418
D418
D418
D418
DC18
CD98
CD98
CD90
CCF0
CC60
ENDCHAR
STARTCHAR 01CB
ENCODING 459
SWIDTH 525 0
DWIDTH 14 0
BBX 13 26 0 -6
BITMAP
C430
C438
E430
E400
E400
E400
E470
E470
F410
D410
D410
D410
D410
D410
DC10
CC10
CC10
CC10
CC10
CC10
0010
0010
0110
01B0
01F0
00E0
ENDCHAR
STARTCHAR 01CC
ENCODING 460
SWIDTH 525 0
DWIDTH 14 0
BBX 13 26 0 -6
BITMAP
0030
0038
0030
0000
0000
0000
D870
FC70
CC10
CC10
C410
C410
C410
C410
C410
C410
C410
C410
C410
C410
0010
0010
0110
01B0
01F0
00E0
ENDCHAR
STARTCHAR 01CD
ENCODING 461
SWIDTH 525 0
DWIDTH 14 0
BBX 11 26 1 0
BITMAP
30C0
1980
1F00
0E00
0000
0000
0E00
0E00
0F00
0F00
0F00
1B00
1B00
1980
1980
3980
3180
3180
30C0
3FC0
7FC0
60C0
60E0
6060
E060
C060
ENDCHAR
STARTCHAR 01CE
ENCODING 462
SWIDTH 525 0
DWIDTH 14 0
BBX 10 21 2 0
BITMAP
2100
6380
3300
3E00
1C00
0000
0000
3E00
7F80
E180
C1C0
00C0
00C0
3FC0
7FC0
C0C0
C0C0
C1C0
C1C0
FEC0
7CC0
ENDCHAR
STARTCHAR 01CF
ENCODING 463
SWIDTH 525 0
DWIDTH 14 0
BBX 9 26 2 0
BITMAP
6180
3300
3E00
1C00
0000
0000
FF80
FF80
0C00
0C00
0C00
0C00
0C00
0C00
0C00
0C00
0C00
0C00
0C00
0C00
0C00
0C00
0C00
0C00
FF80
FF80
ENDCHAR
STARTCHAR 01D0
ENCODING 464
SWIDTH 525 0
DWIDTH 14 0
BBX 9 21 2 0
BITMAP
2100
6180
3300
1E00
1C00
0000
0000
FC00
FC00
0C00
0C00
0C00
0C00
0C00
0C00
0C00
0C00
0C00
0C00
FF80
FF80
ENDCHAR
STARTCHAR 01D1
ENCODING 465
SWIDTH 525 0
DWIDTH 14 0
BBX 10 26 2 0
BITMAP
6180
3300
3E00
1C00
0000
0000
3E00
7F80
E180
C1C0
C0C0
C0C0
C0C0
C0C0
C0C0
C0C0
C0C0
C0C0
C0C0
C0C0
C0C0
C0C0
C0C0
E180
7F80
3E00
ENDCHAR
STARTCHAR 01D2
ENCODING 466
SWIDTH 525 0
DWIDTH 14 0
BBX 10 21 2 0
BITMAP
2100
6380
3300
3E00
1C00
0000
0000
3E00
7F80
E180
C0C0
C0C0
C0C0
C0C0
C0C0
C0C0
C0C0
C0C0
E180
7F80
3E00
ENDCHAR
STARTCHAR 01D3
ENCODING 467
SWIDTH 525 0
DWIDTH 14 0
BBX 10 26 2 0
BITMAP
6180
3300
3E00
1C00
0000
0000
C0C0
C0C0
C0C0
C0C0
C0C0
C0C0
C0C0
C0C0
C0C0
C0C0
C0C0
C0C0
C0C0
C0C0
C0C0
C0C0
C1C0
E180
7F00
3E00
ENDCHAR
STARTCHAR 01D4
ENCODING 468
SWIDTH 525 0
DWIDTH 14 0
BBX 10 21 2 0
BITMAP
2100
6380
3300
3E00
1C00
0000
0000
C0C0
C0C0
C0C0
C0C0
C0C0
C0C0
C0C0
C0C0
C0C0
C0C0
C1C0
E1C0
7EC0
3CC0
ENDCHAR
STARTCHAR 01D5
ENCODING 469
SWIDTH 525 0
DWIDTH 14 0
BBX 10 30 2 0
BITMAP
7F80
7F80
0000
0000
0000
6380
F380
7380
0000
0000
C0C0
C0C0
C0C0
C0C0
C0C0
C0C0
C0C0
C0C0
C0C0
C0C0
C0C0
C0C0
C0C0
C0C0
C0C0
C0C0
C1C0
E180
7F00
3E00
ENDCHAR
STARTCHAR 01D6
ENCODING 470
SWIDTH 525 0
DWIDTH 14 0
BBX 10 24 2 0
BITMAP
7F80
0000
0000
0000
0000
6380
F380
6380
0000
0000
C0C0
C0C0
C0C0
C0C0
C0C0
C0C0
C0C0
C0C0
C0C0
C0C0
C1C0
E1C0
7EC0
3CC0
ENDCHAR
STARTCHAR 01D7
ENCODING 471
SWIDTH 525 0
DWIDTH 14 0
BBX 10 32 2 0
BITMAP
0200
0700
0E00
1C00
0800
0000
0000
6380
F380
7380
0000
0000
C0C0
C0C0
C0C0
C0C0
C0C0
C0C0
C0C0
C0C0
C0C0
C0C0
C0C0
C0C0
C0C0
C0C0
C0C0
C0C0
C1C0
E180
7F00
3E00
ENDCHAR
STARTCHAR 01D8
ENCODING 472
SWIDTH 525 0
DWIDTH 14 0
BBX 10 26 2 0
BITMAP
0200
0700
0E00
1C00
0800
0000
0000
6380
F380
6380
0000
0000
C0C0
C0C0
C0C0
C0C0
C0C0
C0C0
C0C0
C0C0
C0C0
C0C0
C1C0
E1C0
7EC0
3CC0
ENDCHAR
STARTCHAR 01D9
ENCODING 473
SWIDTH 525 0
DWIDTH 14 0
BBX 10 32 2 0
BITMAP
2100
6380
3700
1E00
1C00
0000
0000
6380
F380
7380
0000
0000
C0C0
C0C0
C0C0
C0C0
C0C0
C0C0
C0C0
C0C0
C0C0
C0C0
C0C0
C0C0
C0C0
C0C0
C0C0
C0C0
C1C0
E180
7F00
3E00
ENDCHAR
STARTCHAR 01DA
ENCODING 474
SWIDTH 525 0
DWIDTH 14 0
BBX 10 26 2 0
BITMAP
6180
7300
3600
1E00
0000
0000
0000
6380
F380
6380
0000
0000
C0C0
C0C0
C0C0
C0C0
C0C0
C0C0
C0C0
C0C0
C0C0
C0C0
C1C0
E1C0
7EC0
3CC0
ENDCHAR
STARTCHAR 01DB
ENCODING 475
SWIDTH 525 0
DWIDTH 14 0
BBX 10 32 2 0
BITMAP
1000
3000
1800
0C00
0400
0000
0000
6380
F380
7380
0000
0000
C0C0
C0C0
C0C0
C0C0
C0C0
C0C0
C0C0
C0C0
C0C0
C0C0
C0C0
C0C0
C0C0
C0C0
C0C0
C0C0
C1C0
E180
7F00
3E00
ENDCHAR
STARTCHAR 01DC
ENCODING 476
SWIDTH 525 0
DWIDTH 14 0
BBX 10 26 2 0
BITMAP
3000
3800
1800
0C00
0400
0000
0000
6380
F380
6380
0000
0000
C0C0
C0C0
C0C0
C0C0
C0C0
C0C0
C0C0
C0C0
C0C0
C0C0
C1C0
E1C0
7EC0
3CC0
ENDCHAR
STARTCHAR 01DD
ENCODING 477
SWIDTH 525 0
DWIDTH 14 0
BBX 10 14 2 0
BITMAP
3E00
7F80
C180
C0C0
00C0
00C0
FFC0
FFC0
C0C0
C0C0
C0C0
E180
7F80
3E00
ENDCHAR
STARTCHAR 01DE
ENCODING 478
SWIDTH 525 0
DWIDTH 14 0
BBX 11 30 1 0
BITMAP
3FC0
3FC0
0000
0000
0000
31C0
79C0
39C0
0000
0000
0E00
0E00
0F00
0F00
0F00
1B00
1B00
1980
1980
3980
3180
3180
30C0
3FC0
7FC0
60C0
60E0
6060
E060
C060
ENDCHAR
STARTCHAR 01DF
ENCODING 479
SWIDTH 525 0
DWIDTH 14 0
BBX 10 24 2 0
BITMAP
7F80
0000
0000
0000
0000
6380
F380
6380
0000
0000
3E00
7F80
E180
C1C0
00C0
00C0
3FC0
7FC0
C0C0
C0C0
C1C0
C1C0
FEC0
7CC0
ENDCHAR
STARTCHAR 01E0
ENCODING 480
SWIDTH 525 0
DWIDTH 14 0
BBX 11 30 1 0
BITMAP
3FC0
3FC0
0000
0000
0000
0600
0E00
0E00
0000
0000
0E00
0E00
0F00
0F00
0F00
1B00
1B00
1980
1980
3980
3180
3180
30C0
3FC0
7FC0
60C0
60E0
6060
E060
C060
ENDCHAR
STARTCHAR 01E1
ENCODING 481
SWIDTH 525 0
DWIDTH 14 0
BBX 10 24 2 0
BITMAP
7F80
0000
0000
0000
0000
1C00
1C00
1C00
0000
0000
3E00
7F80
E180
C1C0
00C0
00C0
3FC0
7FC0
C0C0
C0C0
C1C0
C1C0
FEC0
7CC0
ENDCHAR
STARTCHAR 01E2
ENCODING 482
SWIDTH 525 0
DWIDTH 14 0
BBX 11 25 1 0
BITMAP
3FC0
3FC0
0000
0000
0000
0FE0
0FE0
0E00
0E00
1E00
1E00
1E00
1E00
3600
37E0
37E0
3600
2600
7E00
7E00
6600
6600
C600
C7E0
C7E0
ENDCHAR
STARTCHAR 01E3
ENCODING 483
SWIDTH 525 0
DWIDTH 14 0
BBX 11 19 1 0
BITMAP
3FC0
3FC0
0000
0000
0000
3BC0
7FE0
E660
C660
0660
0660
3FE0
7FE0
E600
C600
C660
CE60
7FE0
3BC0
ENDCHAR
STARTCHAR 01E4
ENCODING 484
SWIDTH 525 0
DWIDTH 14 0
BBX 11 20 2 0
BITMAP
3E00
7F80
E180
C1C0
C0C0
C000
C000
C000
C000
C7C0
C7C0
C0C0
C0C0
C0C0
C7E0
C7E0
C1C0
E1C0
7EC0
3CC0
ENDCHAR
STARTCHAR 01E5
ENCODING 485
SWIDTH 525 0
DWIDTH 14 0
BBX 12 20 1 -6
BITMAP
1E60
3F60
70E0
60E0
6060
6060
FFF0
FFF0
6060
6060
60E0
70E0
3F60
1E60
0060
0060
60E0
70C0
3F80
1F00
ENDCHAR
STARTCHAR 01E6
ENCODING 486
SWIDTH 525 0
DWIDTH 14 0
BBX 10 26 2 0
BITMAP
6180
3300
3E00
1C00
0000
0000
3E00
7F80
E180
C1C0
C0C0
C000
C000
C000
C000
C7C0
C7C0
C0C0
C0C0
C0C0
C0C0
C0C0
C1C0
E1C0
7EC0
3CC0
ENDCHAR
STARTCHAR 01E7
ENCODING 487
SWIDTH 525 0
DWIDTH 14 0
BBX 10 27 2 -6
BITMAP
2100
6380
3300
3E00
1C00
0000
0000
3CC0
7EC0
E1C0
C1C0
C0C0
C0C0
C0C0
C0C0
C0C0
C0C0
C1C0
E1C0
7EC0
3CC0
00C0
00C0
C1C0
E180
7F00
3E00
ENDCHAR
STARTCHAR 01E8
ENCODING 488
SWIDTH 525 0
DWIDTH 14 0
BBX 10 26 2 0
BITMAP
6180
3300
3E00
1C00
0000
0000
C1C0
C180
C380
C300
C600
C600
CC00
DC00
D800
F800
F800
EC00
EC00
C600
C600
C300
C300
C180
C180
C0C0
ENDCHAR
STARTCHAR 01E9
ENCODING 489
SWIDTH 525 0
DWIDTH 14 0
BBX 13 26 -1 0
BITMAP
C300
6600
3E00
3C00
0000
0000
1800
1800
1800
1800
1800
1800
1838
1870
1860
18C0
1980
1B80
1F00
1F80
1D80
18C0
18E0
1860
1830
1838
ENDCHAR
STARTCHAR 01EA
ENCODING 490
SWIDTH 525 0
DWIDTH 14 0
BBX 10 26 2 -6
BITMAP
3E00
7F80
E180
C1C0
C0C0
C0C0
C0C0
C0C0
C0C0
C0C0
C0C0
C0C0
C0C0
C0C0
C0C0
C0C0
C0C0
E180
7F80
3E00
0C00
1800
1000
3000
1E00
0E00
ENDCHAR
STARTCHAR 01EB
ENCODING 491
SWIDTH 525 0
DWIDTH 14 0
BBX 10 20 2 -6
BITMAP
3E00
7F80
E180
C0C0
C0C0
C0C0
C0C0
C0C0
C0C0
C0C0
C0C0
E180
7F80
3E00
0C00
1800
1000
3000
1E00
0E00
ENDCHAR
STARTCHAR 01EC
ENCODING 492
SWIDTH 525 0
DWIDTH 14 0
BBX 10 31 2 -6
BITMAP
7F80
7F80
0000
0000
0000
3E00
7F80
E180
C1C0
C0C0
C0C0
C0C0
C0C0
C0C0
C0C0
C0C0
C0C0
C0C0
C0C0
C0C0
C0C0
C0C0
E180
7F80
3E00
0C00
1800
1000
3000
1E00
0E00
ENDCHAR
STARTCHAR 01ED
ENCODING 493
SWIDTH 525 0
DWIDTH 14 0
BBX 10 25 2 -6
BITMAP
7F80
7F80
0000
0000
0000
3E00
7F80
E180
C0C0
C0C0
C0C0
C0C0
C0C0
C0C0
C0C0
C0C0
E180
7F80
3E00
0C00
1800
1000
3000
1E00
0E00
ENDCHAR
STARTCHAR 01EE
ENCODING 494
SWIDTH 525 0
DWIDTH 14 0
BBX 10 26 2 0
BITMAP
6180
3300
3E00
1C00
0000
0000
FF80
FF80
0380
0700
0600
0C00
1800
3800
3E00
3F00
0380
01C0
00C0
00C0
00C0
C0C0
C1C0
E180
7F80
3E00
ENDCHAR
STARTCHAR 01EF
ENCODING 495
SWIDTH 525 0
DWIDTH 14 0
BBX 10 27 2 -6
BITMAP
2100
6380
3300
3E00
1C00
0000
0000
FF80
FF80
0380
0700
0600
0C00
1800
3800
3E00
3F00
0380
01C0
00C0
00C0
00C0
C0C0
C1C0
E180
7F80
3E00
ENDCHAR
STARTCHAR 01F0
ENCODING 496
SWIDTH 525 0
DWIDTH 14 0
BBX 11 27 1 -6
BITMAP
0840
1C60
0CC0
07C0
0380
0000
0000
1F80
1F80
0380
0380
0380
0380
0380
0380
0380
0380
0380
0380
0380
0380
0380
0300
C300
C300
FE00
3C00
ENDCHAR
STARTCHAR 01F1
ENCODING 497
SWIDTH 525 0
DWIDTH 14 0
BBX 13 20 0 0
BITMAP
F1F8
F9F8
CC18
CC18
C410
C430
C430
C430
C430
C420
C460
C460
C460
C440
C4C0
C4C0
CCC0
CC80
F9F8
F1F8
ENDCHAR
STARTCHAR 01F2
ENCODING 498
SWIDTH 525 0
DWIDTH 14 0
BBX 13 20 0 0
BITMAP
F000
F800
CC00
CC00
C400
C400
C5F8
C5F8
C418
C410
C410
C430
C420
C460
C440
C4C0
CCC0
CC80
F9F8
F1F8
ENDCHAR
STARTCHAR 01F3
ENCODING 499
SWIDTH 525 0
DWIDTH 14 0
BBX 13 20 0 0
BITMAP
0400
0400
0400
0400
0400
0400
75F8
75F8
4C18
CC10
C410
C430
C420
C460
C440
C4C0
CCC0
CC80
75F8
75F8
ENDCHAR
STARTCHAR 01F4
ENCODING 500
SWIDTH 525 0
DWIDTH 14 0
BBX 10 26 2 0
BITMAP
0300
0600
0C00
1800
0800
0000
3E00
7F80
E180
C1C0
C0C0
C000
C000
C000
C000
C7C0
C7C0
C0C0
C0C0
C0C0
C0C0
C0C0
C1C0
E1C0
7EC0
3CC0
ENDCHAR
STARTCHAR 01F5
ENCODING 501
SWIDTH 525 0
DWIDTH 14 0
BBX 10 27 2 -6
BITMAP
0200
0700
0600
0C00
1800
0000
0000
3CC0
7EC0
E1C0
C1C0
C0C0
C0C0
C0C0
C0C0
C0C0
C0C0
C1C0
E1C0
7EC0
3CC0
00C0
00C0
C1C0
E180
7F00
3E00
ENDCHAR
STARTCHAR 01F6
ENCODING 502
SWIDTH 525 0
DWIDTH 14 0
BBX 11 20 1 0
BITMAP
C600
C600
C600
C600
C600
C600
C660
C660
C660
FE60
FE60
C660
C660
C660
C660
C660
C660
C660
C7E0
C3C0
ENDCHAR
STARTCHAR 01F7
ENCODING 503
SWIDTH 525 0
DWIDTH 14 0
BBX 10 20 2 0
BITMAP
DF00
FF80
E180
C0C0
C0C0
C0C0
C0C0
C1C0
C180
C380
C700
CE00
DC00
F800
F000
C000
C000
C000
C000
C000
ENDCHAR
STARTCHAR 01F8
ENCODING 504
SWIDTH 525 0
DWIDTH 14 0
BBX 10 26 2 0
BITMAP
3000
3800
1C00
0C00
0400
0000
C0C0
E0C0
E0C0
E0C0
F0C0
F0C0
D8C0
D8C0
D8C0
CCC0
CCC0
CCC0
C6C0
C6C0
C6C0
C3C0
C3C0
C3C0
C1C0
C1C0
ENDCHAR
STARTCHAR 01F9
ENCODING 505
SWIDTH 525 0
DWIDTH 14 0
BBX 10 21 2 0
BITMAP
1000
3000
3800
1C00
0C00
0000
0000
CF00
DF80
E180
C1C0
C0C0
C0C0
C0C0
C0C0
C0C0
C0C0
C0C0
C0C0
C0C0
C0C0
ENDCHAR
STARTCHAR 01FA
ENCODING 506
SWIDTH 525 0
DWIDTH 14 0
BBX 11 32 1 0
BITMAP
0100
0380
0700
0E00
0400
0000
0E00
1F00
1900
1F00
0F00
0000
0E00
0E00
0F00
0F00
0F00
1B00
1B00
1980
1980
3980
3180
3180
30C0
3FC0
7FC0
60C0
60E0
6060
E060
C060
ENDCHAR
STARTCHAR 01FB
ENCODING 507
SWIDTH 525 0
DWIDTH 14 0
BBX 10 26 2 0
BITMAP
0200
0700
0E00
1C00
0800
0000
1C00
3E00
3200
3E00
1C00
0000
3E00
7F80
E180
C1C0
00C0
00C0
3FC0
7FC0
C0C0
C0C0
C1C0
C1C0
FEC0
7CC0
ENDCHAR
STARTCHAR 01FC
ENCODING 508
SWIDTH 525 0
DWIDTH 14 0
BBX 11 26 1 0
BITMAP
0180
0300
0600
0C00
0400
0000
0FE0
0FE0
0E00
0E00
1E00
1E00
1E00
1E00
3600
37E0
37E0
3600
2600
7E00
7E00
6600
6600
C600
C7E0
C7E0
ENDCHAR
STARTCHAR 01FD
ENCODING 509
SWIDTH 525 0
DWIDTH 14 0
BBX 11 21 1 0
BITMAP
0100
0380
0300
0600
0C00
0000
0000
3BC0
7FE0
E660
C660
0660
0660
3FE0
7FE0
E600
C600
C660
CE60
7FE0
3BC0
ENDCHAR
STARTCHAR 01FE
ENCODING 510
SWIDTH 525 0
DWIDTH 14 0
BBX 11 27 1 -1
BITMAP
0180
0300
0600
0C00
0400
0060
1F60
3FC0
70C0
61E0
61E0
61E0
6360
6360
6660
6660
6460
6C60
6C60
7860
7860
7060
7060
70C0
7FC0
7F00
C000
ENDCHAR
STARTCHAR 01FF
ENCODING 511
SWIDTH 525 0
DWIDTH 14 0
BBX 10 22 2 -1
BITMAP
0200
0700
0600
0C00
1800
0000
0080
3EC0
7F80
E380
C3C0
C6C0
C6C0
CCC0
CCC0
D8C0
F0C0
F0C0
E180
FF80
FE00
8000
ENDCHAR
STARTCHAR 0200
ENCODING 512
SWIDTH 525 0
DWIDTH 14 0
BBX 11 26 1 0
BITMAP
C600
6700
3380
19C0
1080
0000
0E00
0E00
0F00
0F00
0F00
1B00
1B00
1980
1980
3980
3180
3180
30C0
3FC0
7FC0
60C0
60E0
6060
E060
C060
ENDCHAR
STARTCHAR 0201
ENCODING 513
SWIDTH 525 0
DWIDTH 14 0
BBX 11 21 1 0
BITMAP
4200
E600
6700
3380
19C0
0000
0000
1F00
3FC0
70C0
60E0
0060
0060
1FE0
3FE0
6060
6060
60E0
60E0
7F60
3E60
ENDCHAR
STARTCHAR 0202
ENCODING 514
SWIDTH 525 0
DWIDTH 14 0
BBX 11 26 1 0
BITMAP
0E00
3F80
31C0
30C0
0000
0000
0E00
0E00
0F00
0F00
0F00
1B00
1B00
1980
1980
3980
3180
3180
30C0
3FC0
7FC0
60C0
60E0
6060
E060
C060
ENDCHAR
STARTCHAR 0203
ENCODING 515
SWIDTH 525 0
DWIDTH 14 0
BBX 10 20 2 0
BITMAP
1E00
7F00
6380
6180
0000
0000
3E00
7F80
E180
C1C0
00C0
00C0
3FC0
7FC0
C0C0
C0C0
C1C0
C1C0
FEC0
7CC0
ENDCHAR
STARTCHAR 0204
ENCODING 516
SWIDTH 525 0
DWIDTH 14 0
BBX 11 26 1 0
BITMAP
C600
6700
3380
19C0
1080
0000
7FE0
7FE0
6000
6000
6000
6000
6000
6000
6000
7F80
7F80
6000
6000
6000
6000
6000
6000
6000
7FE0
7FE0
ENDCHAR
STARTCHAR 0205
ENCODING 517
SWIDTH 525 0
DWIDTH 14 0
BBX 11 21 1 0
BITMAP
4200
E600
6700
3380
19C0
0000
0000
1F00
3FC0
70C0
6060
6060
6060
7FE0
7FE0
6000
6000
6060
70E0
3FC0
1F00
ENDCHAR
STARTCHAR 0206
ENCODING 518
SWIDTH 525 0
DWIDTH 14 0
BBX 10 26 2 0
BITMAP
1C00
7F00
6380
6180
0000
0000
FFC0
FFC0
C000
C000
C000
C000
C000
C000
C000
FF00
FF00
C000
C000
C000
C000
C000
C000
C000
FFC0
FFC0
ENDCHAR
STARTCHAR 0207
ENCODING 519
SWIDTH 525 0
DWIDTH 14 0
BBX 10 20 2 0
BITMAP
1E00
7F00
6380
6180
0000
0000
3E00
7F80
E180
C0C0
C0C0
C0C0
FFC0
FFC0
C000
C000
C0C0
E1C0
7F80
3E00
ENDCHAR
STARTCHAR 0208
ENCODING 520
SWIDTH 525 0
DWIDTH 14 0
BBX 10 26 1 0
BITMAP
C600
6700
3380
19C0
1080
0000
7FC0
7FC0
0600
0600
0600
0600
0600
0600
0600
0600
0600
0600
0600
0600
0600
0600
0600
0600
7FC0
7FC0
ENDCHAR
STARTCHAR 0209
ENCODING 521
SWIDTH 525 0
DWIDTH 14 0
BBX 10 21 1 0
BITMAP
4200
E600
6700
3380
19C0
0000
0000
7E00
7E00
0600
0600
0600
0600
0600
0600
0600
0600
0600
0600
7FC0
7FC0
ENDCHAR
STARTCHAR 020A
ENCODING 522
SWIDTH 525 0
DWIDTH 14 0
BBX 9 26 2 0
BITMAP
1C00
7F00
6380
6180
0000
0000
FF80
FF80
0C00
0C00
0C00
0C00
0C00
0C00
0C00
0C00
0C00
0C00
0C00
0C00
0C00
0C00
0C00
0C00
FF80
FF80
ENDCHAR
STARTCHAR 020B
ENCODING 523
SWIDTH 525 0
DWIDTH 14 0
BBX 9 20 2 0
BITMAP
1E00
7F00
6380
6180
0000
0000
FC00
FC00
0C00
0C00
0C00
0C00
0C00
0C00
0C00
0C00
0C00
0C00
FF80
FF80
ENDCHAR
STARTCHAR 020C
ENCODING 524
SWIDTH 525 0
DWIDTH 14 0
BBX 11 26 1 0
BITMAP
C600
6700
3380
19C0
1080
0000
1F00
3FC0
70C0
60E0
6060
6060
6060
6060
6060
6060
6060
6060
6060
6060
6060
6060
6060
70C0
3FC0
1F00
ENDCHAR
STARTCHAR 020D
ENCODING 525
SWIDTH 525 0
DWIDTH 14 0
BBX 11 21 1 0
BITMAP
4200
E600
6700
3380
19C0
0000
0000
1F00
3FC0
70C0
6060
6060
6060
6060
6060
6060
6060
6060
70C0
3FC0
1F00
ENDCHAR
STARTCHAR 020E
ENCODING 526
SWIDTH 525 0
DWIDTH 14 0
BBX 10 26 2 0
BITMAP
1C00
7F00
6380
6180
0000
0000
3E00
7F80
E180
C1C0
C0C0
C0C0
C0C0
C0C0
C0C0
C0C0
C0C0
C0C0
C0C0
C0C0
C0C0
C0C0
C0C0
E180
7F80
3E00
ENDCHAR
STARTCHAR 020F
ENCODING 527
SWIDTH 525 0
DWIDTH 14 0
BBX 10 20 2 0
BITMAP
1E00
7F00
6380
6180
0000
0000
3E00
7F80
E180
C0C0
C0C0
C0C0
C0C0
C0C0
C0C0
C0C0
C0C0
E180
7F80
3E00
ENDCHAR
STARTCHAR 0210
ENCODING 528
SWIDTH 525 0
DWIDTH 14 0
BBX 11 26 1 0
BITMAP
C600
6700
3380
19C0
1080
0000
7F00
7FC0
60C0
60E0
6060
6060
6060
6060
60E0
60C0
7FC0
7F00
6700
6300
6380
6180
61C0
60C0
60E0
6060
ENDCHAR
STARTCHAR 0211
ENCODING 529
SWIDTH 525 0
DWIDTH 14 0
BBX 11 21 1 0
BITMAP
4200
E600
6700
3380
19C0
0000
0000
33C0
37E0
3460
3860
3800
3000
3000
3000
3000
3000
3000
3000
3000
3000
ENDCHAR
STARTCHAR 0212
ENCODING 530
SWIDTH 525 0
DWIDTH 14 0
BBX 10 26 2 0
BITMAP
1C00
7F00
6380
6180
0000
0000
FE00
FF80
C180
C1C0
C0C0
C0C0
C0C0
C0C0
C1C0
C180
FF80
FE00
CE00
C600
C700
C300
C380
C180
C1C0
C0C0
ENDCHAR
STARTCHAR 0213
ENCODING 531
SWIDTH 525 0
DWIDTH 14 0
BBX 9 20 3 0
BITMAP
3C00
FE00
C700
C300
0000
0000
CF00
DF80
D180
E180
E000
C000
C000
C000
C000
C000
C000
C000
C000
C000
ENDCHAR
STARTCHAR 0214
ENCODING 532
SWIDTH 525 0
DWIDTH 14 0
BBX 11 26 1 0
BITMAP
C600
6700
3380
19C0
1080
0000
6060
6060
6060
6060
6060
6060
6060
6060
6060
6060
6060
6060
6060
6060
6060
6060
60E0
70C0
3F80
1F00
ENDCHAR
STARTCHAR 0215
ENCODING 533
SWIDTH 525 0
DWIDTH 14 0
BBX 11 21 1 0
BITMAP
4200
E600
6700
3380
19C0
0000
0000
6060
6060
6060
6060
6060
6060
6060
6060
6060
6060
60E0
70E0
3F60
1E60
ENDCHAR
STARTCHAR 0216
ENCODING 534
SWIDTH 525 0
DWIDTH 14 0
BBX 10 26 2 0
BITMAP
1C00
7F00
6380
6180
0000
0000
C0C0
C0C0
C0C0
C0C0
C0C0
C0C0
C0C0
C0C0
C0C0
C0C0
C0C0
C0C0
C0C0
C0C0
C0C0
C0C0
C1C0
E180
7F00
3E00
ENDCHAR
STARTCHAR 0217
ENCODING 535
SWIDTH 525 0
DWIDTH 14 0
BBX 10 20 2 0
BITMAP
1E00
7F00
6380
6180
0000
0000
C0C0
C0C0
C0C0
C0C0
C0C0
C0C0
C0C0
C0C0
C0C0
C0C0
C1C0
E1C0
7EC0
3CC0
ENDCHAR
STARTCHAR 0218
ENCODING 536
SWIDTH 525 0
DWIDTH 14 0
BBX 11 26 1 -6
BITMAP
1F00
3FC0
70C0
60E0
6060
6000
6000
7000
3800
1E00
0F80
03C0
00C0
0060
0060
E060
6060
70C0
3FC0
1F00
0000
0600
0E00
0600
0600
0C00
ENDCHAR
STARTCHAR 0219
ENCODING 537
SWIDTH 525 0
DWIDTH 14 0
BBX 10 20 2 -6
BITMAP
3E00
7F80
E180
C1C0
C000
7000
7E00
1F00
0380
01C0
C0C0
C1C0
FF80
3F00
0000
0C00
1C00
0C00
0C00
1800
ENDCHAR
STARTCHAR 021A
ENCODING 538
SWIDTH 525 0
DWIDTH 14 0
BBX 10 26 2 -6
BITMAP
FFC0
FFC0
0C00
0C00
0C00
0C00
0C00
0C00
0C00
0C00
0C00
0C00
0C00
0C00
0C00
0C00
0C00
0C00
0C00
0C00
0000
0C00
1C00
0C00
0C00
1800
ENDCHAR
STARTCHAR 021B
ENCODING 539
SWIDTH 525 0
DWIDTH 14 0
BBX 11 26 2 -6
BITMAP
3800
3800
3800
3800
3800
3800
FF80
FF80
3800
3800
3800
3800
3800
3800
3800
38E0
18C0
18C0
1FC0
0F80
0000
0600
0600
0200
0600
0400
ENDCHAR
STARTCHAR 021C
ENCODING 540
SWIDTH 525 0
DWIDTH 14 0
BBX 10 20 2 0
BITMAP
3E00
7F80
E180
C1C0
C0C0
00C0
01C0
0180
0300
1F80
7D80
70C0
00C0
00C0
0180
0380
0700
1E00
FC00
E000
ENDCHAR
STARTCHAR 021D
ENCODING 541
SWIDTH 525 0
DWIDTH 14 0
BBX 10 20 2 -6
BITMAP
3E00
7F80
E180
C1C0
C0C0
00C0
01C0
0180
0300
1F80
7D80
70C0
00C0
00C0
0180
0380
0700
1E00
FC00
E000
ENDCHAR
STARTCHAR 021E
ENCODING 542
SWIDTH 525 0
DWIDTH 14 0
BBX 10 26 2 0
BITMAP
6180
3300
3E00
1C00
0000
0000
C0C0
C0C0
C0C0
C0C0
C0C0
C0C0
C0C0
C0C0
C0C0
FFC0
FFC0
C0C0
C0C0
C0C0
C0C0
C0C0
C0C0
C0C0
C0C0
C0C0
ENDCHAR
STARTCHAR 021F
ENCODING 543
SWIDTH 525 0
DWIDTH 14 0
BBX 13 26 -1 0
BITMAP
C300
6600
7C00
3C00
0000
0000
1800
1800
1800
1800
1800
1800
19E0
1BF0
1C30
1838
1818
1818
1818
1818
1818
1818
1818
1818
1818
1818
ENDCHAR
STARTCHAR 0220
ENCODING 544
SWIDTH 525 0
DWIDTH 14 0
BBX 10 26 2 -6
BITMAP
CF00
FF80
E180
C1C0
C0C0
C0C0
C0C0
C0C0
C0C0
C0C0
C0C0
C0C0
C0C0
C0C0
C0C0
C0C0
C0C0
C0C0
C0C0
C0C0
00C0
00C0
00C0
00C0
00C0
00C0
ENDCHAR
STARTCHAR 0221
ENCODING 545
SWIDTH 525 0
DWIDTH 14 0
BBX 12 22 2 -2
BITMAP
0300
0300
0300
0300
0300
0300
7B00
FF00
C700
C300
C300
C300
C300
C300
C3C0
C3E0
C730
CFB0
FDE0
78E0
1800
1800
ENDCHAR
STARTCHAR 0222
ENCODING 546
SWIDTH 525 0
DWIDTH 14 0
BBX 10 20 2 0
BITMAP
0300
3380
7180
E1C0
C0C0
C0C0
C1C0
C180
7F80
7F80
E380
C1C0
C0C0
C0C0
C0C0
C0C0
C1C0
E180
7F80
3E00
ENDCHAR
STARTCHAR 0223
ENCODING 547
SWIDTH 525 0
DWIDTH 14 0
BBX 10 20 2 0
BITMAP
3300
7380
C180
C0C0
C0C0
C0C0
C180
7F80
7F80
E180
C0C0
C0C0
C0C0
C0C0
C0C0
C0C0
C0C0
E180
7F80
3E00
ENDCHAR
STARTCHAR 0224
ENCODING 548
SWIDTH 525 0
DWIDTH 14 0
BBX 10 25 2 -5
BITMAP
FFC0
FFC0
0180
0180
0380
0300
0700
0600
0E00
0C00
1C00
1800
3800
3000
7000
6000
E000
C000
FE00
FF00
0380
0180
01C0
00C0
00C0
ENDCHAR
STARTCHAR 0225
ENCODING 549
SWIDTH 525 0
DWIDTH 14 0
BBX 10 19 2 -5
BITMAP
FFC0
FFC0
0180
0380
0700
0600
0C00
1C00
3800
3000
6000
E000
FE00
FF00
0380
0180
01C0
00C0
00C0
ENDCHAR
STARTCHAR 0226
ENCODING 550
SWIDTH 525 0
DWIDTH 14 0
BBX 11 25 1 0
BITMAP
0600
0E00
0E00
0000
0000
0E00
0E00
0F00
0F00
0F00
1B00
1B00
1980
1980
3980
3180
3180
30C0
3FC0
7FC0
60C0
60E0
6060
E060
C060
ENDCHAR
STARTCHAR 0227
ENCODING 551
SWIDTH 525 0
DWIDTH 14 0
BBX 10 19 2 0
BITMAP
1C00
1C00
1C00
0000
0000
3E00
7F80
E180
C1C0
00C0
00C0
3FC0
7FC0
C0C0
C0C0
C1C0
C1C0
FEC0
7CC0
ENDCHAR
STARTCHAR 0228
ENCODING 552
SWIDTH 525 0
DWIDTH 14 0
BBX 10 26 2 -6
BITMAP
FFC0
FFC0
C000
C000
C000
C000
C000
C000
C000
FF00
FF00
C000
C000
C000
C000
C000
C000
C000
FFC0
FFC0
0C00
0E00
0300
0300
3E00
3E00
ENDCHAR
STARTCHAR 0229
ENCODING 553
SWIDTH 525 0
DWIDTH 14 0
BBX 10 20 2 -6
BITMAP
3E00
7F80
E180
C0C0
C0C0
C0C0
FFC0
FFC0
C000
C000
C0C0
E1C0
7F80
3F00
0C00
0E00
0300
0300
3E00
3E00
ENDCHAR
STARTCHAR 022A
ENCODING 554
SWIDTH 525 0
DWIDTH 14 0
BBX 10 30 2 0
BITMAP
7F80
7F80
0000
0000
0000
6380
F380
7380
0000
0000
3E00
7F80
E180
C1C0
C0C0
C0C0
C0C0
C0C0
C0C0
C0C0
C0C0
C0C0
C0C0
C0C0
C0C0
C0C0
C0C0
E180
7F80
3E00
ENDCHAR
STARTCHAR 022B
ENCODING 555
SWIDTH 525 0
DWIDTH 14 0
BBX 10 24 2 0
BITMAP
7F80
0000
0000
0000
0000
6380
F380
6380
0000
0000
3E00
7F80
E180
C0C0
C0C0
C0C0
C0C0
C0C0
C0C0
C0C0
C0C0
E180
7F80
3E00
ENDCHAR
STARTCHAR 022C
ENCODING 556
SWIDTH 525 0
DWIDTH 14 0
BBX 10 30 2 0
BITMAP
7F80
7F80
0000
0000
38C0
7D80
CF80
C700
0000
0000
3E00
7F80
E180
C1C0
C0C0
C0C0
C0C0
C0C0
C0C0
C0C0
C0C0
C0C0
C0C0
C0C0
C0C0
C0C0
C0C0
E180
7F80
3E00
ENDCHAR
STARTCHAR 022D
ENCODING 557
SWIDTH 525 0
DWIDTH 14 0
BBX 10 24 2 0
BITMAP
7F80
0000
0000
1000
78C0
7D80
CF80
4700
0000
0000
3E00
7F80
E180
C0C0
C0C0
C0C0
C0C0
C0C0
C0C0
C0C0
C0C0
E180
7F80
3E00
ENDCHAR
STARTCHAR 022E
ENCODING 558
SWIDTH 525 0
DWIDTH 14 0
BBX 10 25 2 0
BITMAP
0C00
1C00
1C00
0000
0000
3E00
7F80
E180
C1C0
C0C0
C0C0
C0C0
C0C0
C0C0
C0C0
C0C0
C0C0
C0C0
C0C0
C0C0
C0C0
C0C0
E180
7F80
3E00
ENDCHAR
STARTCHAR 022F
ENCODING 559
SWIDTH 525 0
DWIDTH 14 0
BBX 10 19 2 0
BITMAP
1C00
1C00
1C00
0000
0000
3E00
7F80
E180
C0C0
C0C0
C0C0
C0C0
C0C0
C0C0
C0C0
C0C0
E180
7F80
3E00
ENDCHAR
STARTCHAR 0230
ENCODING 560
SWIDTH 525 0
DWIDTH 14 0
BBX 10 30 2 0
BITMAP
7F80
7F80
0000
0000
0000
0C00
1C00
1C00
0000
0000
3E00
7F80
E180
C1C0
C0C0
C0C0
C0C0
C0C0
C0C0
C0C0
C0C0
C0C0
C0C0
C0C0
C0C0
C0C0
C0C0
E180
7F80
3E00
ENDCHAR
STARTCHAR 0231
ENCODING 561
SWIDTH 525 0
DWIDTH 14 0
BBX 10 24 2 0
BITMAP
7F80
0000
0000
0000
0000
1C00
1C00
1C00
0000
0000
3E00
7F80
E180
C0C0
C0C0
C0C0
C0C0
C0C0
C0C0
C0C0
C0C0
E180
7F80
3E00
ENDCHAR
STARTCHAR 0232
ENCODING 562
SWIDTH 525 0
DWIDTH 14 0
BBX 11 25 1 0
BITMAP
3FC0
3FC0
0000
0000
0000
E060
60E0
60C0
30C0
31C0
3180
1980
1B00
1B00
0F00
0E00
0600
0600
0600
0600
0600
0600
0600
0600
0600
ENDCHAR
STARTCHAR 0233
ENCODING 563
SWIDTH 525 0
DWIDTH 14 0
BBX 11 25 1 -6
BITMAP
3FC0
3FC0
0000
0000
0000
E060
6060
60C0
70C0
30C0
31C0
3180
1980
1980
1B00
1B00
0F00
0E00
0E00
0600
0E00
0C00
0C00
0C00
1800
ENDCHAR
STARTCHAR 0234
ENCODING 564
SWIDTH 525 0
DWIDTH 14 0
BBX 11 21 2 -1
BITMAP
FC00
FC00
0C00
0C00
0C00
0C00
0C00
0C00
0C00
0C00
0C00
0C00
0C00
0F80
0FC0
1CC0
3C60
6CC0
CFC0
C780
4000
ENDCHAR
STARTCHAR 0235
ENCODING 565
SWIDTH 525 0
DWIDTH 14 0
BBX 12 15 2 -1
BITMAP
DE00
FE00
E700
C300
C300
C300
C300
C300
C300
C3E0
C3F0
C730
CDF0
D9E0
0800
ENDCHAR
STARTCHAR 0236
ENCODING 566
SWIDTH 525 0
DWIDTH 14 0
BBX 11 21 0 -1
BITMAP
0E00
0E00
0E00
0E00
0E00
0E00
3FE0
3FE0
0E00
0E00
0E00
0E00
0E00
0FC0
0FE0
1E60
3660
6660
67E0
C3C0
4000
ENDCHAR
STARTCHAR 0237
ENCODING 567
SWIDTH 525 0
DWIDTH 14 0
BBX 9 20 1 -6
BITMAP
1F80
1F80
0380
0380
0380
0380
0380
0380
0380
0380
0380
0380
0380
0380
0380
0300
C300
C300
FE00
3C00
ENDCHAR
STARTCHAR 0238
ENCODING 568
SWIDTH 525 0
DWIDTH 14 0
BBX 11 20 1 0
BITMAP
0600
0600
0600
0600
0600
0600
77C0
7FE0
C660
C660
C660
C660
C660
C660
C660
C660
C660
CE60
7FE0
3BC0
ENDCHAR
STARTCHAR 0239
ENCODING 569
SWIDTH 525 0
DWIDTH 14 0
BBX 11 20 1 -6
BITMAP
3BC0
7FE0
CE60
C660
C660
C660
C660
C660
C660
C660
C660
C660
7FE0
77C0
0600
0600
0600
0600
0600
0600
ENDCHAR
STARTCHAR 023A
ENCODING 570
SWIDTH 525 0
DWIDTH 14 0
BBX 11 24 1 -2
BITMAP
0040
00C0
0E80
0E80
0F80
0F80
0F00
1B00
1B00
1B80
1F80
3F80
3580
3580
3CC0
3FC0
7FC0
78C0
78E0
7060
F060
F060
2000
6000
ENDCHAR
STARTCHAR 023B
ENCODING 571
SWIDTH 525 0
DWIDTH 14 0
BBX 10 24 2 -2
BITMAP
0080
0180
3F00
7F80
E380
C3C0
C2C0
C600
C600
C400
CC00
CC00
C800
C800
D800
D000
D000
F0C0
F1C0
E180
7F80
7E00
4000
C000
ENDCHAR
STARTCHAR 023C
ENCODING 572
SWIDTH 525 0
DWIDTH 14 0
BBX 10 18 2 -2
BITMAP
0080
0180
3F00
7F80
E380
C7C0
C6C0
C400
CC00
C800
D800
D0C0
F1C0
F180
7F80
7E00
4000
C000
ENDCHAR
STARTCHAR 023D
ENCODING 573
SWIDTH 525 0
DWIDTH 14 0
BBX 11 20 1 0
BITMAP
3000
3000
3000
3000
3000
3000
3000
3000
3000
FC00
FC00
3000
3000
3000
3000
3000
3000
3000
3FE0
3FE0
ENDCHAR
STARTCHAR 023E
ENCODING 574
SWIDTH 525 0
DWIDTH 14 0
BBX 10 24 2 -2
BITMAP
0080
0180
FFC0
FFC0
0F00
0F00
0E00
0E00
0E00
0C00
0C00
0C00
0C00
0C00
1C00
1C00
1C00
3C00
3C00
2C00
6C00
6C00
4000
C000
ENDCHAR
STARTCHAR 023F
ENCODING 575
SWIDTH 525 0
DWIDTH 14 0
BBX 10 20 2 -6
BITMAP
3E00
7F80
E180
C1C0
C000
7000
7E00
1F00
0380
01C0
C0C0
C1C0
FF80
FF00
C000
6000
7000
3800
1FC0
07C0
ENDCHAR
STARTCHAR 0240
ENCODING 576
SWIDTH 525 0
DWIDTH 14 0
BBX 10 20 2 -6
BITMAP
FFC0
FFC0
0180
0180
0300
0600
0600
0C00
1C00
1800
3000
7000
6000
C000
E000
7000
3800
1C00
0FC0
03C0
ENDCHAR
STARTCHAR 0241
ENCODING 577
SWIDTH 525 0
DWIDTH 14 0
BBX 10 20 2 0
BITMAP
3E00
7F00
E180
C1C0
C0C0
00C0
00C0
0180
0180
0380
0700
0600
0E00
0C00
0C00
0C00
0C00
0C00
0C00
0C00
ENDCHAR
STARTCHAR 0242
ENCODING 578
SWIDTH 525 0
DWIDTH 14 0
BBX 10 14 2 0
BITMAP
3E00
7F80
E180
C0C0
C0C0
0180
0180
0300
0600
0C00
0C00
0C00
0C00
0C00
ENDCHAR
STARTCHAR 0243
ENCODING 579
SWIDTH 525 0
DWIDTH 14 0
BBX 12 20 0 0
BITMAP
3F80
3FC0
30E0
3060
3060
3070
3060
3060
30E0
3FC0
3FC0
3060
3030
FE30
FE30
3030
3030
3070
3FE0
3F80
ENDCHAR
STARTCHAR 0244
ENCODING 580
SWIDTH 525 0
DWIDTH 14 0
BBX 12 20 1 0
BITMAP
6060
6060
6060
6060
6060
6060
6060
6060
6060
FFF0
FFF0
6060
6060
6060
6060
6060
60E0
70C0
3F80
1F00
ENDCHAR
STARTCHAR 0245
ENCODING 581
SWIDTH 525 0
DWIDTH 14 0
BBX 11 20 1 0
BITMAP
0E00
0E00
0F00
0F00
0F00
1B00
1B00
1980
1980
3980
3180
3180
30C0
30C0
60C0
60C0
60E0
6060
E060
C060
ENDCHAR
STARTCHAR 0246
ENCODING 582
SWIDTH 525 0
DWIDTH 14 0
BBX 10 24 2 -2
BITMAP
0080
0180
FFC0
FFC0
C300
C300
C200
C600
C600
C400
CC00
FF00
FF00
C800
D800
D000
D000
F000
F000
E000
FFC0
FFC0
4000
C000
ENDCHAR
STARTCHAR 0247
ENCODING 583
SWIDTH 525 0
DWIDTH 14 0
BBX 10 18 2 -2
BITMAP
0080
0180
3F00
7F80
E380
C6C0
C6C0
C4C0
FFC0
FFC0
D800
D000
F0C0
F1C0
7F80
7F00
4000
C000
ENDCHAR
STARTCHAR 0248
ENCODING 584
SWIDTH 525 0
DWIDTH 14 0
BBX 12 20 1 0
BITMAP
0FC0
0FC0
00C0
00C0
00C0
00C0
00C0
00C0
00C0
07F0
07F0
00C0
00C0
00C0
00C0
C0C0
E0C0
61C0
7F80
1F00
ENDCHAR
STARTCHAR 0249
ENCODING 585
SWIDTH 525 0
DWIDTH 14 0
BBX 11 25 1 -6
BITMAP
0380
0380
0380
0000
0000
1F80
1F80
0380
0380
0380
0380
0FE0
0FE0
0380
0380
0380
0380
0380
0380
0380
0300
C300
C300
FE00
3C00
ENDCHAR
STARTCHAR 024A
ENCODING 586
SWIDTH 525 0
DWIDTH 14 0
BBX 13 26 2 -6
BITMAP
3CC0
7EC0
E1C0
C1C0
C0C0
C0C0
C0C0
C0C0
C0C0
C0C0
C0C0
C0C0
C0C0
C0C0
C0C0
C0C0
C1C0
E1C0
7EC0
3CC0
00C0
00C0
00C0
00E0
0078
0038
ENDCHAR
STARTCHAR 024B
ENCODING 587
SWIDTH 525 0
DWIDTH 14 0
BBX 13 20 2 -6
BITMAP
3CC0
7EC0
E1C0
C1C0
C0C0
C0C0
C0C0
C0C0
C0C0
C0C0
C1C0
E1C0
7EC0
3CC0
00C0
00C0
00C0
00E0
0078
0038
ENDCHAR
STARTCHAR 024C
ENCODING 588
SWIDTH 525 0
DWIDTH 14 0
BBX 11 20 1 0
BITMAP
7F00
7FC0
60C0
60E0
6060
6060
6060
6060
60E0
60C0
FFC0
FF00
6700
6300
6380
6180
61C0
60C0
60E0
6060
ENDCHAR
STARTCHAR 024D
ENCODING 589
SWIDTH 525 0
DWIDTH 14 0
BBX 11 14 1 0
BITMAP
33C0
37E0
3460
3860
3800
3000
FF00
FF00
3000
3000
3000
3000
3000
3000
ENDCHAR
STARTCHAR 024E
ENCODING 590
SWIDTH 525 0
DWIDTH 14 0
BBX 12 20 1 0
BITMAP
E060
60E0
60C0
30C0
FFF0
FFF0
1980
1B00
1B00
0F00
0E00
0600
0600
0600
0600
0600
0600
0600
0600
0600
ENDCHAR
STARTCHAR 024F
ENCODING 591
SWIDTH 525 0
DWIDTH 14 0
BBX 12 20 1 -6
BITMAP
E060
6060
60C0
70C0
30C0
31C0
FFF0
FFF0
1980
1B00
1B00
0F00
0E00
0E00
0600
0E00
0C00
0C00
0C00
1800
ENDCHAR
STARTCHAR 0250
ENCODING 592
SWIDTH 525 0
DWIDTH 14 0
BBX 10 14 2 0
BITMAP
DF00
FF80
E1C0
C0C0
C0C0
C1C0
FF80
FE00
C000
C000
C0C0
E1C0
7F80
3E00
ENDCHAR
STARTCHAR 0251
ENCODING 593
SWIDTH 525 0
DWIDTH 14 0
BBX 10 14 2 0
BITMAP
3CC0
7EC0
E1C0
C1C0
C0C0
C0C0
C0C0
C0C0
C0C0
C0C0
C1C0
E1C0
7EC0
3CC0
ENDCHAR
STARTCHAR 0252
ENCODING 594
SWIDTH 525 0
DWIDTH 14 0
BBX 10 14 2 0
BITMAP
CF00
DF80
E180
C0C0
C0C0
C0C0
C0C0
C0C0
C0C0
C0C0
C0C0
E1C0
FF80
CF00
ENDCHAR
STARTCHAR 0253
ENCODING 595
SWIDTH 525 0
DWIDTH 14 0
BBX 10 20 2 0
BITMAP
3800
7800
E000
C000
C000
C000
CF00
DF80
E180
C0C0
C0C0
C0C0
C0C0
C0C0
C0C0
C0C0
C0C0
E1C0
FF80
CF00
ENDCHAR
STARTCHAR 0254
ENCODING 596
SWIDTH 525 0
DWIDTH 14 0
BBX 10 14 2 0
BITMAP
3E00
7F80
E180
C1C0
C0C0
00C0
00C0
00C0
00C0
C0C0
C0C0
E180
7F80
3E00
ENDCHAR
STARTCHAR 0255
ENCODING 597
SWIDTH 525 0
DWIDTH 14 0
BBX 12 15 0 -1
BITMAP
0F80
1FE0
3860
3070
3030
3000
3000
33C0
3FE0
3C70
3030
7870
7FE0
CFC0
4000
ENDCHAR
STARTCHAR 0256
ENCODING 598
SWIDTH 525 0
DWIDTH 14 0
BBX 13 26 2 -6
BITMAP
00C0
00C0
00C0
00C0
00C0
00C0
3CC0
7EC0
E1C0
C1C0
C0C0
C0C0
C0C0
C0C0
C0C0
C0C0
C1C0
E1C0
7EC0
3CC0
00C0
00C0
00C0
00E0
0078
0038
ENDCHAR
STARTCHAR 0257
ENCODING 599
SWIDTH 525 0
DWIDTH 14 0
BBX 13 20 2 0
BITMAP
0038
0078
00E0
00C0
00C0
00C0
3CC0
7EC0
E1C0
C1C0
C0C0
C0C0
C0C0
C0C0
C0C0
C0C0
C1C0
E1C0
7EC0
3CC0
ENDCHAR
STARTCHAR 0258
ENCODING 600
SWIDTH 525 0
DWIDTH 14 0
BBX 10 14 2 0
BITMAP
3E00
7F80
E180
C0C0
C0C0
C0C0
FFC0
FFC0
00C0
00C0
C0C0
C180
7F80
3E00
ENDCHAR
STARTCHAR 0259
ENCODING 601
SWIDTH 525 0
DWIDTH 14 0
BBX 10 14 2 0
BITMAP
3E00
7F80
C180
C0C0
00C0
00C0
FFC0
FFC0
C0C0
C0C0
C0C0
E180
7F80
3E00
ENDCHAR
STARTCHAR 025A
ENCODING 602
SWIDTH 525 0
DWIDTH 14 0
BBX 12 14 2 0
BITMAP
7C00
FE00
C700
C300
03C0
03C0
FFC0
FF40
C360
C330
C300
C700
FE00
3C00
ENDCHAR
STARTCHAR 025B
ENCODING 603
SWIDTH 525 0
DWIDTH 14 0
BBX 11 14 1 0
BITMAP
1F00
3FC0
70C0
60E0
6000
7000
3E00
3E00
6000
C000
C060
60E0
7FC0
1F80
ENDCHAR
STARTCHAR 025C
ENCODING 604
SWIDTH 525 0
DWIDTH 14 0
BBX 11 14 1 0
BITMAP
1F80
3FC0
70E0
6060
0060
00C0
0FC0
0FC0
00E0
0060
E060
60E0
7FC0
1F80
ENDCHAR
STARTCHAR 025D
ENCODING 605
SWIDTH 525 0
DWIDTH 14 0
BBX 13 14 1 0
BITMAP
1E60
3FE0
63E0
61A0
01B0
0318
0F00
0F00
0180
0180
E180
6180
7F00
3E00
ENDCHAR
STARTCHAR 025E
ENCODING 606
SWIDTH 525 0
DWIDTH 14 0
BBX 10 14 2 0
BITMAP
3F00
7F80
E1C0
C0C0
C0C0
C180
CF00
CF80
C1C0
C0C0
C0C0
E1C0
7F80
3F00
ENDCHAR
STARTCHAR 025F
ENCODING 607
SWIDTH 525 0
DWIDTH 14 0
BBX 11 20 1 -6
BITMAP
1F80
1F80
0380
0380
0380
0380
0FE0
0FE0
0380
0380
0380
0380
0380
0380
0380
0300
C300
C300
FE00
3C00
ENDCHAR
STARTCHAR 0260
ENCODING 608
SWIDTH 525 0
DWIDTH 14 0
BBX 13 26 2 -6
BITMAP
0038
0078
00E0
00C0
00C0
00C0
3CC0
7EC0
E1C0
C1C0
C0C0
C0C0
C0C0
C0C0
C0C0
C0C0
C1C0
E1C0
7EC0
3CC0
00C0
00C0
C1C0
E180
7F00
3E00
ENDCHAR
STARTCHAR 0261
ENCODING 609
SWIDTH 525 0
DWIDTH 14 0
BBX 10 20 2 -6
BITMAP
3CC0
7EC0
E1C0
C1C0
C0C0
C0C0
C0C0
C0C0
C0C0
C0C0
C1C0
E1C0
7EC0
3CC0
00C0
00C0
C1C0
E180
7F00
3E00
ENDCHAR
STARTCHAR 0262
ENCODING 610
SWIDTH 525 0
DWIDTH 14 0
BBX 10 14 2 0
BITMAP
3E00
7F80
E180
C1C0
C0C0
C000
C7C0
C7C0
C0C0
C0C0
C1C0
E1C0
7EC0
3CC0
ENDCHAR
STARTCHAR 0263
ENCODING 611
SWIDTH 525 0
DWIDTH 14 0
BBX 10 20 2 -6
BITMAP
C0C0
C180
6180
6300
3300
3200
3600
1E00
1C00
0C00
0C00
1C00
1C00
1E00
1600
1600
3600
3600
1E00
1C00
ENDCHAR
STARTCHAR 0264
ENCODING 612
SWIDTH 525 0
DWIDTH 14 0
BBX 10 14 2 0
BITMAP
E1C0
F3C0
3E00
1C00
1C00
1E00
3600
3300
3300
2300
3300
3300
3E00
1C00
ENDCHAR
STARTCHAR 0265
ENCODING 613
SWIDTH 525 0
DWIDTH 14 0
BBX 10 20 2 -6
BITMAP
C0C0
C0C0
C0C0
C0C0
C0C0
C0C0
C0C0
C0C0
C0C0
C0C0
C1C0
E1C0
7EC0
3CC0
00C0
00C0
00C0
00C0
00C0
00C0
ENDCHAR
STARTCHAR 0266
ENCODING 614
SWIDTH 525 0
DWIDTH 14 0
BBX 10 20 2 0
BITMAP
3800
7800
E000
C000
C000
C000
CF00
DF80
E180
C1C0
C0C0
C0C0
C0C0
C0C0
C0C0
C0C0
C0C0
C0C0
C0C0
C0C0
ENDCHAR
STARTCHAR 0267
ENCODING 615
SWIDTH 525 0
DWIDTH 14 0
BBX 10 26 2 -6
BITMAP
3800
7800
E000
C000
C000
C000
CF00
DF80
E180
C1C0
C0C0
C0C0
C0C0
C0C0
C0C0
C0C0
C0C0
C0C0
C0C0
C0C0
00C0
00C0
01C0
0180
0F80
0E00
ENDCHAR
STARTCHAR 0268
ENCODING 616
SWIDTH 525 0
DWIDTH 14 0
BBX 9 19 2 0
BITMAP
0C00
1E00
0C00
0000
0000
FC00
FC00
0C00
0C00
0C00
0C00
7F00
7F00
0C00
0C00
0C00
0C00
FF80
FF80
ENDCHAR
STARTCHAR 0269
ENCODING 617
SWIDTH 525 0
DWIDTH 14 0
BBX 10 14 2 0
BITMAP
FC00
FC00
0C00
0C00
0C00
0C00
0C00
0C00
0C00
0C00
0C00
0E00
07C0
03C0
ENDCHAR
STARTCHAR 026A
ENCODING 618
SWIDTH 525 0
DWIDTH 14 0
BBX 7 14 3 0
BITMAP
FE
FE
18
18
18
18
18
18
18
18
18
18
FE
FE
ENDCHAR
STARTCHAR 026B
ENCODING 619
SWIDTH 525 0
DWIDTH 14 0
BBX 9 20 2 0
BITMAP
FC00
FC00
0C00
0C00
0C00
0C00
0C00
0C00
1D00
3D80
6F00
2E00
0C00
0C00
0C00
0C00
0C00
0C00
FF80
FF80
ENDCHAR
STARTCHAR 026C
ENCODING 620
SWIDTH 525 0
DWIDTH 14 0
BBX 9 20 2 0
BITMAP
FC00
FC00
0C00
0C00
0C00
0C00
0C00
7C00
7C00
4C00
7F00
3F00
0C00
0C00
0C00
0C00
0C00
0C00
FF80
FF80
ENDCHAR
STARTCHAR 026D
ENCODING 621
SWIDTH 525 0
DWIDTH 14 0
BBX 9 26 2 -6
BITMAP
FC00
FC00
0C00
0C00
0C00
0C00
0C00
0C00
0C00
0C00
0C00
0C00
0C00
0C00
0C00
0C00
0C00
0C00
0C00
0C00
0C00
0C00
0C00
0E00
0780
0380
ENDCHAR
STARTCHAR 026E
ENCODING 622
SWIDTH 525 0
DWIDTH 14 0
BBX 12 26 0 -6
BITMAP
F000
F000
3000
3000
3000
3000
3FE0
3FE0
3060
30C0
30C0
3180
3180
3300
3380
33E0
3060
3070
3030
0030
0030
3030
3070
3860
1FE0
0F80
ENDCHAR
STARTCHAR 026F
ENCODING 623
SWIDTH 525 0
DWIDTH 14 0
BBX 11 14 1 0
BITMAP
C660
C660
C660
C660
C660
C660
C660
C660
C660
C660
C660
E660
7FE0
73E0
ENDCHAR
STARTCHAR 0270
ENCODING 624
SWIDTH 525 0
DWIDTH 14 0
BBX 11 20 1 -6
BITMAP
C660
C660
C660
C660
C660
C660
C660
C660
C660
C660
C660
E660
7FE0
73E0
0060
0060
0060
0060
0060
0060
ENDCHAR
STARTCHAR 0271
ENCODING 625
SWIDTH 525 0
DWIDTH 14 0
BBX 11 20 1 -6
BITMAP
DDC0
FDE0
C660
C660
C660
C660
C660
C660
C660
C660
C660
C660
C660
C660
0060
0060
0060
00E0
03C0
0380
ENDCHAR
STARTCHAR 0272
ENCODING 626
SWIDTH 525 0
DWIDTH 14 0
BBX 13 20 -1 -6
BITMAP
19E0
1BF0
1C30
1838
1818
1818
1818
1818
1818
1818
1818
1818
1818
1818
1800
1800
3800
3000
F000
C000
ENDCHAR
STARTCHAR 0273
ENCODING 627
SWIDTH 525 0
DWIDTH 14 0
BBX 13 20 2 -6
BITMAP
CF00
DF80
E180
C1C0
C0C0
C0C0
C0C0
C0C0
C0C0
C0C0
C0C0
C0C0
C0C0
C0C0
00C0
00C0
00C0
00E0
0078
0038
ENDCHAR
STARTCHAR 0274
ENCODING 628
SWIDTH 525 0
DWIDTH 14 0
BBX 10 14 2 0
BITMAP
E0C0
E0C0
F0C0
F0C0
F8C0
D8C0
D8C0
CCC0
CCC0
C6C0
C6C0
C3C0
C3C0
C1C0
ENDCHAR
STARTCHAR 0275
ENCODING 629
SWIDTH 525 0
DWIDTH 14 0
BBX 10 14 2 0
BITMAP
3E00
7F80
E180
C0C0
C0C0
C0C0
FFC0
FFC0
C0C0
C0C0
C0C0
E180
7F80
3E00
ENDCHAR
STARTCHAR 0276
ENCODING 630
SWIDTH 525 0
DWIDTH 14 0
BBX 11 14 1 0
BITMAP
1FE0
7FE0
6600
C600
C600
C600
C7E0
C7E0
C600
C600
C600
6600
7FE0
1FE0
ENDCHAR
STARTCHAR 0277
ENCODING 631
SWIDTH 525 0
DWIDTH 14 0
BBX 11 14 1 0
BITMAP
1F00
3F80
70C0
60E0
6060
C660
C660
C660
C660
C660
CE60
6E60
7BC0
31C0
ENDCHAR
STARTCHAR 0278
ENCODING 632
SWIDTH 525 0
DWIDTH 14 0
BBX 11 26 1 -6
BITMAP
0600
0600
0600
0600
0600
0600
3F80
7FC0
66E0
C660
C660
C660
C660
C660
C660
C660
C660
66E0
7FC0
3F80
0600
0600
0600
0600
0600
0600
ENDCHAR
STARTCHAR 0279
ENCODING 633
SWIDTH 525 0
DWIDTH 14 0
BBX 9 14 1 0
BITMAP
0180
0180
0180
0180
0180
0180
0180
0180
0180
0180
C380
E380
7D80
3980
ENDCHAR
STARTCHAR 027A
ENCODING 634
SWIDTH 525 0
DWIDTH 14 0
BBX 9 20 1 0
BITMAP
0180
0180
0180
0180
0180
0180
0180
0180
0180
0180
0180
0180
0180
0180
0180
0180
C380
E380
7D80
3980
ENDCHAR
STARTCHAR 027B
ENCODING 635
SWIDTH 525 0
DWIDTH 14 0
BBX 12 20 1 -6
BITMAP
0180
0180
0180
0180
0180
0180
0180
0180
0180
0180
C380
E380
7D80
3980
0180
0180
0180
01C0
00F0
0070
ENDCHAR
STARTCHAR 027C
ENCODING 636
SWIDTH 525 0
DWIDTH 14 0
BBX 9 20 3 -6
BITMAP
CF00
DF80
D180
E180
E000
C000
C000
C000
C000
C000
C000
C000
C000
C000
C000
C000
C000
C000
C000
C000
ENDCHAR
STARTCHAR 027D
ENCODING 637
SWIDTH 525 0
DWIDTH 14 0
BBX 9 20 3 -6
BITMAP
CF00
DF80
D180
E180
E000
C000
C000
C000
C000
C000
C000
C000
C000
C000
C000
C000
E000
6000
7800
1800
ENDCHAR
STARTCHAR 027E
ENCODING 638
SWIDTH 525 0
DWIDTH 14 0
BBX 9 14 3 0
BITMAP
1E00
7F80
6180
6000
E000
C000
C000
C000
C000
C000
C000
C000
C000
C000
ENDCHAR
STARTCHAR 027F
ENCODING 639
SWIDTH 525 0
DWIDTH 14 0
BBX 5 20 3 -6
BITMAP
E0
F0
38
18
18
18
18
18
18
18
18
18
18
18
18
18
18
18
18
18
ENDCHAR
STARTCHAR 0280
ENCODING 640
SWIDTH 525 0
DWIDTH 14 0
BBX 10 14 2 0
BITMAP
FF00
FF80
C1C0
C0C0
C0C0
C0C0
C1C0
FF80
FF00
C600
C700
C380
C180
C0C0
ENDCHAR
STARTCHAR 0281
ENCODING 641
SWIDTH 525 0
DWIDTH 14 0
BBX 10 14 2 0
BITMAP
C0C0
C180
C380
C700
C600
FF00
FF80
C1C0
C0C0
C0C0
C0C0
C1C0
FF80
FF00
ENDCHAR
STARTCHAR 0282
ENCODING 642
SWIDTH 525 0
DWIDTH 14 0
BBX 10 20 2 -6
BITMAP
3E00
7F80
E180
C1C0
C000
7000
7E00
1F00
0380
C1C0
C0C0
C1C0
FF80
DF00
C000
C000
C000
E000
7800
3800
ENDCHAR
STARTCHAR 0283
ENCODING 643
SWIDTH 525 0
DWIDTH 14 0
BBX 10 26 2 -6
BITMAP
03C0
07C0
0E00
0C00
0C00
0C00
0C00
0C00
0C00
0C00
0C00
0C00
0C00
0C00
0C00
0C00
0C00
0C00
0C00
0C00
0C00
0C00
1C00
1800
F800
E000
ENDCHAR
STARTCHAR 0284
ENCODING 644
SWIDTH 525 0
DWIDTH 14 0
BBX 11 26 1 -6
BITMAP
0060
01E0
0180
0180
0380
0380
0780
0780
0380
0380
0380
0380
0FE0
0FE0
0380
0380
0380
0380
0380
0380
0380
0300
C300
C300
FE00
3C00
ENDCHAR
STARTCHAR 0285
ENCODING 645
SWIDTH 525 0
DWIDTH 14 0
BBX 10 20 2 -6
BITMAP
E000
F800
1800
1C00
0C00
0C00
0C00
0C00
0C00
0C00
0C00
0C00
0C00
0C00
0C00
0C00
0C00
0E00
07C0
03C0
ENDCHAR
STARTCHAR 0286
ENCODING 646
SWIDTH 525 0
DWIDTH 14 0
BBX 12 26 1 -6
BITMAP
01E0
03E0
0700
0600
0600
0600
0600
0600
0600
0600
0600
0600
0600
0600
0600
0600
0600
0600
0600
3E00
FE00
C780
CFC0
CCE0
FC70
7820
ENDCHAR
STARTCHAR 0287
ENCODING 647
SWIDTH 525 0
DWIDTH 14 0
BBX 11 20 1 -6
BITMAP
3C00
7E00
E700
C300
C300
0300
0300
0300
0300
0300
0300
0300
7FE0
7FE0
0300
0300
0300
0300
0300
0300
ENDCHAR
STARTCHAR 0288
ENCODING 648
SWIDTH 525 0
DWIDTH 14 0
BBX 10 26 2 -6
BITMAP
1800
1800
1800
1800
1800
1800
FFC0
FFC0
1800
1800
1800
1800
1800
1800
1800
1800
1800
1800
1800
1800
1800
1800
1C00
0E00
0780
0380
ENDCHAR
STARTCHAR 0289
ENCODING 649
SWIDTH 525 0
DWIDTH 14 0
BBX 12 14 1 0
BITMAP
6060
6060
6060
6060
6060
6060
FFF0
FFF0
6060
6060
60E0
70E0
3F60
1E60
ENDCHAR
STARTCHAR 028A
ENCODING 650
SWIDTH 525 0
DWIDTH 14 0
BBX 10 14 2 0
BITMAP
F3C0
F3C0
7300
E180
C1C0
C0C0
C0C0
C0C0
C0C0
C0C0
C1C0
E180
7F00
3E00
ENDCHAR
STARTCHAR 028B
ENCODING 651
SWIDTH 525 0
DWIDTH 14 0
BBX 10 14 2 0
BITMAP
C600
C780
C180
C1C0
C0C0
C0C0
C0C0
C0C0
C0C0
C0C0
C1C0
E180
7F00
3E00
ENDCHAR
STARTCHAR 028C
ENCODING 652
SWIDTH 525 0
DWIDTH 14 0
BBX 11 14 1 0
BITMAP
0E00
0E00
0F00
1B00
1B00
1980
3980
3180
31C0
30C0
60C0
60E0
6060
E060
ENDCHAR
STARTCHAR 028D
ENCODING 653
SWIDTH 525 0
DWIDTH 14 0
BBX 12 14 1 0
BITMAP
3180
31C0
39C0
39C0
6BC0
6B40
6A40
6E40
6E60
6660
C060
C060
C060
C070
ENDCHAR
STARTCHAR 028E
ENCODING 654
SWIDTH 525 0
DWIDTH 14 0
BBX 11 20 1 0
BITMAP
0300
0300
0700
0600
0600
0600
0E00
0E00
0F00
1B00
1B00
1980
1980
3180
3180
30C0
70C0
60C0
6060
E060
ENDCHAR
STARTCHAR 028F
ENCODING 655
SWIDTH 525 0
DWIDTH 14 0
BBX 11 14 1 0
BITMAP
E060
60C0
30C0
3180
1980
1B00
0F00
0E00
0600
0600
0600
0600
0600
0600
ENDCHAR
STARTCHAR 0290
ENCODING 656
SWIDTH 525 0
DWIDTH 14 0
BBX 13 20 2 -6
BITMAP
FFC0
FFC0
0180
0380
0700
0600
0C00
1C00
3800
3000
6000
E000
FFC0
FFC0
00C0
00C0
00C0
00E0
0078
0038
ENDCHAR
STARTCHAR 0291
ENCODING 657
SWIDTH 525 0
DWIDTH 14 0
BBX 11 17 2 -3
BITMAP
FFC0
FFC0
0180
0380
0700
0600
0C00
1C00
3800
31C0
67C0
E660
FFC0
FFC0
1800
1000
1000
ENDCHAR
STARTCHAR 0292
ENCODING 658
SWIDTH 525 0
DWIDTH 14 0
BBX 10 20 2 -6
BITMAP
FF80
FF80
0380
0700
0600
0C00
1800
3800
3E00
3F00
0380
01C0
00C0
00C0
00C0
C0C0
C1C0
E180
7F80
3E00
ENDCHAR
STARTCHAR 0293
ENCODING 659
SWIDTH 525 0
DWIDTH 14 0
BBX 12 20 2 -6
BITMAP
FF80
FF80
0380
0700
0600
0C00
1800
3800
3E00
3F00
0380
01C0
00C0
3CC0
FEC0
C3C0
C1C0
C1E0
FF70
3E20
ENDCHAR
STARTCHAR 0294
ENCODING 660
SWIDTH 525 0
DWIDTH 14 0
BBX 10 20 2 0
BITMAP
3E00
7F00
E180
C1C0
C0C0
00C0
00C0
0180
0180
0380
0700
0600
0E00
0C00
0C00
0C00
0C00
0C00
0C00
0C00
ENDCHAR
STARTCHAR 0295
ENCODING 661
SWIDTH 525 0
DWIDTH 14 0
BBX 10 20 2 0
BITMAP
3E00
7F80
E180
C1C0
C0C0
C000
C000
C000
E000
6000
3000
3800
1800
1C00
0C00
0C00
0C00
0C00
0C00
0C00
ENDCHAR
STARTCHAR 0296
ENCODING 662
SWIDTH 525 0
DWIDTH 14 0
BBX 10 20 2 0
BITMAP
0C00
0C00
0C00
0C00
0C00
0C00
0C00
0E00
0600
0700
0380
0180
0180
00C0
00C0
C0C0
C180
E180
7F00
3E00
ENDCHAR
STARTCHAR 0297
ENCODING 663
SWIDTH 525 0
DWIDTH 14 0
BBX 10 20 2 -6
BITMAP
3E00
7F80
E180
C1C0
C0C0
C000
C000
C000
C000
C000
C000
C000
C000
C000
C000
C0C0
C1C0
E180
7F80
3E00
ENDCHAR
STARTCHAR 0298
ENCODING 664
SWIDTH 525 0
DWIDTH 14 0
BBX 10 20 2 0
BITMAP
3E00
7F80
E180
C1C0
C0C0
C0C0
C0C0
C0C0
C0C0
CCC0
DCC0
DCC0
C0C0
C0C0
C0C0
C0C0
C0C0
E180
7F80
3E00
ENDCHAR
STARTCHAR 0299
ENCODING 665
SWIDTH 525 0
DWIDTH 14 0
BBX 10 14 2 0
BITMAP
FE00
FF80
C180
C1C0
C180
C180
FF00
FF80
C1C0
C0C0
C0C0
C1C0
FF80
FF00
ENDCHAR
STARTCHAR 029A
ENCODING 666
SWIDTH 525 0
DWIDTH 14 0
BBX 11 14 1 0
BITMAP
1F00
3FC0
70C0
60E0
6060
7060
3E60
3E60
6060
C060
E0E0
60C0
7FC0
1F00
ENDCHAR
STARTCHAR 029B
ENCODING 667
SWIDTH 525 0
DWIDTH 14 0
BBX 13 20 2 0
BITMAP
0038
0078
00E0
00C0
00C0
00C0
3CC0
7EC0
E1C0
C1C0
C0C0
C000
C7C0
C7C0
C0C0
C0C0
C1C0
E1C0
7EC0
3CC0
ENDCHAR
STARTCHAR 029C
ENCODING 668
SWIDTH 525 0
DWIDTH 14 0
BBX 10 14 2 0
BITMAP
C0C0
C0C0
C0C0
C0C0
C0C0
C0C0
FFC0
FFC0
C0C0
C0C0
C0C0
C0C0
C0C0
C0C0
ENDCHAR
STARTCHAR 029D
ENCODING 669
SWIDTH 525 0
DWIDTH 14 0
BBX 10 25 3 -6
BITMAP
0E00
0E00
0E00
0000
0000
7E00
7E00
0E00
0E00
0E00
0E00
0E00
0E00
0E00
0E00
0E00
0E00
0E00
7E00
FE00
CE00
CF00
CD80
FDC0
7880
ENDCHAR
STARTCHAR 029E
ENCODING 670
SWIDTH 525 0
DWIDTH 14 0
BBX 9 20 2 -6
BITMAP
C180
6180
7180
3180
3980
1B80
0F80
0F80
0D80
1D80
3980
3180
6180
C180
0180
0180
0180
0180
0180
0180
ENDCHAR
STARTCHAR 029F
ENCODING 671
SWIDTH 525 0
DWIDTH 14 0
BBX 9 14 3 0
BITMAP
C000
C000
C000
C000
C000
C000
C000
C000
C000
C000
C000
C000
FF80
FF80
ENDCHAR
STARTCHAR 02A0
ENCODING 672
SWIDTH 525 0
DWIDTH 14 0
BBX 13 26 2 -6
BITMAP
0038
0078
00E0
00C0
00C0
00C0
3CC0
7EC0
E1C0
C1C0
C0C0
C0C0
C0C0
C0C0
C0C0
C0C0
C1C0
E1C0
7EC0
3CC0
00C0
00C0
00C0
00C0
00C0
00C0
ENDCHAR
STARTCHAR 02A1
ENCODING 673
SWIDTH 525 0
DWIDTH 14 0
BBX 10 20 2 0
BITMAP
3E00
7F00
E180
C1C0
C0C0
00C0
00C0
0180
0180
0380
0700
0600
0E00
0C00
7F00
7F00
0C00
0C00
0C00
0C00
ENDCHAR
STARTCHAR 02A2
ENCODING 674
SWIDTH 525 0
DWIDTH 14 0
BBX 10 20 2 0
BITMAP
3E00
7F80
E180
C1C0
C0C0
C000
C000
C000
E000
6000
3000
3800
1800
1C00
7F00
7F00
0C00
0C00
0C00
0C00
ENDCHAR
STARTCHAR 02A3
ENCODING 675
SWIDTH 525 0
DWIDTH 14 0
BBX 11 20 1 0
BITMAP
0C00
0C00
0C00
0C00
0C00
0C00
6FE0
7FE0
CC60
CC60
CCC0
CCC0
CC80
CD80
CD80
CD00
CF00
CE00
7FE0
6FE0
ENDCHAR
STARTCHAR 02A4
ENCODING 676
SWIDTH 525 0
DWIDTH 14 0
BBX 11 26 1 -6
BITMAP
0C00
0C00
0C00
0C00
0C00
0C00
6FE0
7FE0
CC60
CC40
CCC0
CC80
CC80
CD80
CDC0
CDE0
CC60
CC60
7C20
6C20
0020
0220
0260
0360
03C0
01C0
ENDCHAR
STARTCHAR 02A5
ENCODING 677
SWIDTH 525 0
DWIDTH 14 0
BBX 12 23 1 -3
BITMAP
0C00
0C00
0C00
0C00
0C00
0C00
6FE0
7FE0
CC60
CC60
CCC0
CCC0
CC80
CD80
CD80
CD00
CF60
CE90
7FF0
6FE0
0080
0100
0100
ENDCHAR
STARTCHAR 02A6
ENCODING 678
SWIDTH 525 0
DWIDTH 14 0
BBX 11 20 1 0
BITMAP
3000
3000
3000
3000
3000
3000
FDC0
FFE0
3260
3260
3220
3300
3380
31C0
3060
3060
3020
3060
1FE0
0FC0
ENDCHAR
STARTCHAR 02A7
ENCODING 679
SWIDTH 525 0
DWIDTH 14 0
BBX 12 26 1 -6
BITMAP
6030
6070
60C0
6080
6080
6080
FF80
FF80
6080
6080
6080
6080
6080
6080
6080
6C80
6C80
6C80
3880
3880
0080
0180
0180
0180
0F00
0E00
ENDCHAR
STARTCHAR 02A8
ENCODING 680
SWIDTH 525 0
DWIDTH 14 0
BBX 11 20 1 0
BITMAP
3000
3000
3000
3000
3000
3000
FDC0
FFE0
3260
3660
3620
3600
3600
36C0
37E0
3760
3620
3720
1FE0
0DC0
ENDCHAR
STARTCHAR 02A9
ENCODING 681
SWIDTH 525 0
DWIDTH 14 0
BBX 11 26 1 -6
BITMAP
1800
3C00
3400
3400
3000
3000
FEC0
FEE0
3360
3260
3260
3260
3260
3260
3260
3260
3260
3260
3260
3260
0060
0060
0060
0060
01C0
0180
ENDCHAR
STARTCHAR 02AA
ENCODING 682
SWIDTH 525 0
DWIDTH 14 0
BBX 12 20 0 0
BITMAP
F000
F000
3000
3000
3000
3000
30E0
31F0
3130
3130
3110
3180
31C0
30E0
3030
3030
3010
1830
1FF0
0FE0
ENDCHAR
STARTCHAR 02AB
ENCODING 683
SWIDTH 525 0
DWIDTH 14 0
BBX 12 20 0 0
BITMAP
F000
F000
3000
3000
3000
3000
31F0
31F0
3030
3030
3060
3060
3040
30C0
30C0
3080
3180
1900
1FF0
0FF0
ENDCHAR
STARTCHAR 02AC
ENCODING 684
SWIDTH 525 0
DWIDTH 14 0
BBX 12 20 1 0
BITMAP
C070
C060
4060
6660
6E40
6B40
2BC0
39C0
3180
0000
0010
C060
C060
4660
6E60
6E40
6BC0
39C0
39C0
3180
ENDCHAR
STARTCHAR 02AD
ENCODING 685
SWIDTH 525 0
DWIDTH 14 0
BBX 10 16 2 2
BITMAP
FFC0
FFC0
C0C0
C0C0
C0C0
C0C0
0000
0000
0000
0000
FFC0
FFC0
C0C0
C0C0
C0C0
C0C0
ENDCHAR
STARTCHAR 02AE
ENCODING 686
SWIDTH 525 0
DWIDTH 14 0
BBX 13 20 -1 -6
BITMAP
C018
F018
3018
1818
1818
1818
1818
1818
1818
1818
1838
1C38
0FD8
0798
0018
0018
0018
0018
0018
0018
ENDCHAR
STARTCHAR 02AF
ENCODING 687
SWIDTH 525 0
DWIDTH 14 0
BBX 16 21 -1 -7
BITMAP
C018
F018
3018
1818
1818
1818
1818
1818
1818
1818
1838
1C38
0FD8
0798
0018
0018
0018
0018
001C
000F
0007
ENDCHAR
STARTCHAR 02B0
ENCODING 688
SWIDTH 525 0
DWIDTH 14 0
BBX 8 14 3 9
BITMAP
C0
C0
C0
C0
DC
FE
C6
C3
C3
C3
C3
C3
C3
C3
ENDCHAR
STARTCHAR 02B1
ENCODING 689
SWIDTH 525 0
DWIDTH 14 0
BBX 8 14 3 9
BITMAP
70
F0
C0
C0
DC
FE
C6
C3
C3
C3
C3
C3
C3
C3
ENDCHAR
STARTCHAR 02B2
ENCODING 690
SWIDTH 525 0
DWIDTH 14 0
BBX 7 18 2 5
BITMAP
06
0E
06
00
1E
1E
06
06
06
06
06
06
06
06
06
C6
7C
38
ENDCHAR
STARTCHAR 02B3
ENCODING 691
SWIDTH 525 0
DWIDTH 14 0
BBX 7 10 4 9
BITMAP
DC
FE
C6
C0
C0
C0
C0
C0
C0
C0
ENDCHAR
STARTCHAR 02B4
ENCODING 692
SWIDTH 525 0
DWIDTH 14 0
BBX 6 10 3 9
BITMAP
04
04
04
04
04
04
0C
CC
F4
64
ENDCHAR
STARTCHAR 02B5
ENCODING 693
SWIDTH 525 0
DWIDTH 14 0
BBX 8 14 3 5
BITMAP
04
04
04
04
04
04
0C
CC
F4
64
04
06
07
03
ENDCHAR
STARTCHAR 02B6
ENCODING 694
SWIDTH 525 0
DWIDTH 14 0
BBX 8 10 3 9
BITMAP
C7
C6
CC
FC
FE
C7
C3
C3
FE
FC
ENDCHAR
STARTCHAR 02B7
ENCODING 695
SWIDTH 525 0
DWIDTH 14 0
BBX 8 10 3 9
BITMAP
83
83
C3
DA
DA
FA
6E
6E
6E
64
ENDCHAR
STARTCHAR 02B8
ENCODING 696
SWIDTH 525 0
DWIDTH 14 0
BBX 8 14 3 5
BITMAP
C3
C6
C6
66
64
6C
2C
3C
38
18
18
30
30
30
ENDCHAR
STARTCHAR 02B9
ENCODING 697
SWIDTH 525 0
DWIDTH 14 0
BBX 5 9 4 12
BITMAP
18
38
38
30
30
70
60
60
E0
ENDCHAR
STARTCHAR 02BA
ENCODING 698
SWIDTH 525 0
DWIDTH 14 0
BBX 10 9 2 12
BITMAP
39C0
3180
3180
7380
6300
6300
6300
C600
C600
ENDCHAR
STARTCHAR 02BB
ENCODING 699
SWIDTH 525 0
DWIDTH 14 0
BBX 4 9 5 12
BITMAP
30
70
60
C0
C0
E0
F0
F0
E0
ENDCHAR
STARTCHAR 02BC
ENCODING 700
SWIDTH 525 0
DWIDTH 14 0
BBX 5 9 4 12
BITMAP
70
78
78
78
10
30
30
60
E0
ENDCHAR
STARTCHAR 02BD
ENCODING 701
SWIDTH 525 0
DWIDTH 14 0
BBX 4 9 5 12
BITMAP
E0
F0
F0
E0
C0
C0
60
70
30
ENDCHAR
STARTCHAR 02BE
ENCODING 702
SWIDTH 525 0
DWIDTH 14 0
BBX 4 9 5 12
BITMAP
C0
E0
70
30
30
30
70
E0
C0
ENDCHAR
STARTCHAR 02BF
ENCODING 703
SWIDTH 525 0
DWIDTH 14 0
BBX 5 9 4 12
BITMAP
38
78
60
C0
C0
C0
60
78
38
ENDCHAR
STARTCHAR 02C0
ENCODING 704
SWIDTH 525 0
DWIDTH 14 0
BBX 8 10 3 9
BITMAP
3C
7E
C7
C3
06
0E
18
18
18
18
ENDCHAR
STARTCHAR 02C1
ENCODING 705
SWIDTH 525 0
DWIDTH 14 0
BBX 8 10 3 9
BITMAP
3C
FE
C6
C3
C0
60
30
18
18
18
ENDCHAR
STARTCHAR 02C2
ENCODING 706
SWIDTH 525 0
DWIDTH 14 0
BBX 6 6 4 15
BITMAP
08
3C
E0
F0
3C
04
ENDCHAR
STARTCHAR 02C3
ENCODING 707
SWIDTH 525 0
DWIDTH 14 0
BBX 5 6 4 15
BITMAP
80
E0
38
38
E0
80
ENDCHAR
STARTCHAR 02C4
ENCODING 708
SWIDTH 525 0
DWIDTH 14 0
BBX 7 4 3 16
BITMAP
38
3C
66
C6
ENDCHAR
STARTCHAR 02C5
ENCODING 709
SWIDTH 525 0
DWIDTH 14 0
BBX 7 4 3 16
BITMAP
C6
66
3C
38
ENDCHAR
STARTCHAR 02C6
ENCODING 710
SWIDTH 525 0
DWIDTH 14 0
BBX 8 5 3 15
BITMAP
38
7C
66
C7
40
ENDCHAR
STARTCHAR 02C7
ENCODING 711
SWIDTH 525 0
DWIDTH 14 0
BBX 8 5 3 16
BITMAP
42
C7
66
7C
38
ENDCHAR
STARTCHAR 02C8
ENCODING 712
SWIDTH 525 0
DWIDTH 14 0
BBX 2 9 6 12
BITMAP
C0
C0
C0
C0
C0
C0
C0
C0
C0
ENDCHAR
STARTCHAR 02C9
ENCODING 713
SWIDTH 525 0
DWIDTH 14 0
BBX 8 2 3 17
BITMAP
FF
FF
ENDCHAR
STARTCHAR 02CA
ENCODING 714
SWIDTH 525 0
DWIDTH 14 0
BBX 5 5 5 16
BITMAP
10
38
30
60
C0
ENDCHAR
STARTCHAR 02CB
ENCODING 715
SWIDTH 525 0
DWIDTH 14 0
BBX 4 5 4 16
BITMAP
40
C0
E0
70
30
ENDCHAR
STARTCHAR 02CC
ENCODING 716
SWIDTH 525 0
DWIDTH 14 0
BBX 2 9 6 -7
BITMAP
C0
C0
C0
C0
C0
C0
C0
C0
C0
ENDCHAR
STARTCHAR 02CD
ENCODING 717
SWIDTH 525 0
DWIDTH 14 0
BBX 8 2 3 -5
BITMAP
FF
FF
ENDCHAR
STARTCHAR 02CE
ENCODING 718
SWIDTH 525 0
DWIDTH 14 0
BBX 5 5 5 -7
BITMAP
C0
60
30
38
10
ENDCHAR
STARTCHAR 02CF
ENCODING 719
SWIDTH 525 0
DWIDTH 14 0
BBX 4 5 4 -7
BITMAP
30
70
E0
C0
40
ENDCHAR
STARTCHAR 02D0
ENCODING 720
SWIDTH 525 0
DWIDTH 14 0
BBX 5 14 4 0
BITMAP
F8
78
70
30
20
00
00
00
00
20
30
70
78
F8
ENDCHAR
STARTCHAR 02D1
ENCODING 721
SWIDTH 525 0
DWIDTH 14 0
BBX 5 5 4 9
BITMAP
F8
78
70
30
20
ENDCHAR
STARTCHAR 02D2
ENCODING 722
SWIDTH 525 0
DWIDTH 14 0
BBX 2 5 6 5
BITMAP
C0
C0
40
C0
C0
ENDCHAR
STARTCHAR 02D3
ENCODING 723
SWIDTH 525 0
DWIDTH 14 0
BBX 3 5 5 5
BITMAP
60
E0
C0
E0
60
ENDCHAR
STARTCHAR 02D4
ENCODING 724
SWIDTH 525 0
DWIDTH 14 0
BBX 5 6 4 5
BITMAP
30
30
30
30
F8
F8
ENDCHAR
STARTCHAR 02D5
ENCODING 725
SWIDTH 525 0
DWIDTH 14 0
BBX 5 6 4 4
BITMAP
F8
F8
30
30
30
30
ENDCHAR
STARTCHAR 02D6
ENCODING 726
SWIDTH 525 0
DWIDTH 14 0
BBX 5 5 4 5
BITMAP
30
F8
F8
30
30
ENDCHAR
STARTCHAR 02D7
ENCODING 727
SWIDTH 525 0
DWIDTH 14 0
BBX 5 2 4 6
BITMAP
F8
F8
ENDCHAR
STARTCHAR 02D8
ENCODING 728
SWIDTH 525 0
DWIDTH 14 0
BBX 8 4 3 16
BITMAP
83
C3
FE
7C
ENDCHAR
STARTCHAR 02D9
ENCODING 729
SWIDTH 525 0
DWIDTH 14 0
BBX 3 3 5 16
BITMAP
E0
E0
E0
ENDCHAR
STARTCHAR 02DA
ENCODING 730
SWIDTH 525 0
DWIDTH 14 0
BBX 5 5 4 15
BITMAP
70
F8
C8
F8
70
ENDCHAR
STARTCHAR 02DB
ENCODING 731
SWIDTH 525 0
DWIDTH 14 0
BBX 5 6 4 -6
BITMAP
30
60
40
C0
78
38
ENDCHAR
STARTCHAR 02DC
ENCODING 732
SWIDTH 525 0
DWIDTH 14 0
BBX 10 5 2 16
BITMAP
1000
78C0
7D80
CF80
4700
ENDCHAR
STARTCHAR 02DD
ENCODING 733
SWIDTH 525 0
DWIDTH 14 0
BBX 10 5 3 16
BITMAP
1100
39C0
7380
6700
CE00
ENDCHAR
STARTCHAR 02DE
ENCODING 734
SWIDTH 525 0
DWIDTH 14 0
BBX 16 10 -3 2
BITMAP
00C0
03C0
0FC0
3CC0
F8C0
E0C0
80C0
00C7
007E
003C
ENDCHAR
STARTCHAR 02DF
ENCODING 735
SWIDTH 525 0
DWIDTH 14 0
BBX 6 5 4 16
BITMAP
88
DC
78
78
CC
ENDCHAR
STARTCHAR 02E0
ENCODING 736
SWIDTH 525 0
DWIDTH 14 0
BBX 8 14 3 5
BITMAP
C3
C6
64
6C
3C
38
18
18
38
38
3C
2C
2C
38
ENDCHAR
STARTCHAR 02E1
ENCODING 737
SWIDTH 525 0
DWIDTH 14 0
BBX 7 14 3 9
BITMAP
78
78
18
18
18
18
18
18
18
18
18
18
FE
FE
ENDCHAR
STARTCHAR 02E2
ENCODING 738
SWIDTH 525 0
DWIDTH 14 0
BBX 8 10 3 9
BITMAP
7C
FE
C2
C0
78
3E
06
C3
FE
7C
ENDCHAR
STARTCHAR 02E3
ENCODING 739
SWIDTH 525 0
DWIDTH 14 0
BBX 8 10 3 9
BITMAP
C7
66
6C
3C
38
38
3C
6C
66
C7
ENDCHAR
STARTCHAR 02E4
ENCODING 740
SWIDTH 525 0
DWIDTH 14 0
BBX 8 14 3 9
BITMAP
3C
7E
C6
C3
C0
C0
60
70
30
18
18
18
18
18
ENDCHAR
STARTCHAR 02E5
ENCODING 741
SWIDTH 525 0
DWIDTH 14 0
BBX 8 19 3 1
BITMAP
FF
FF
03
03
03
03
03
03
03
03
03
03
03
03
03
03
03
03
03
ENDCHAR
STARTCHAR 02E6
ENCODING 742
SWIDTH 525 0
DWIDTH 14 0
BBX 8 20 3 0
BITMAP
03
03
03
03
03
FF
FF
03
03
03
03
03
03
03
03
03
03
03
03
03
ENDCHAR
STARTCHAR 02E7
ENCODING 743
SWIDTH 525 0
DWIDTH 14 0
BBX 8 20 3 0
BITMAP
03
03
03
03
03
03
03
03
03
FF
FF
03
03
03
03
03
03
03
03
03
ENDCHAR
STARTCHAR 02E8
ENCODING 744
SWIDTH 525 0
DWIDTH 14 0
BBX 8 20 3 0
BITMAP
03
03
03
03
03
03
03
03
03
03
03
03
03
03
FF
FF
03
03
03
03
ENDCHAR
STARTCHAR 02E9
ENCODING 745
SWIDTH 525 0
DWIDTH 14 0
BBX 8 20 3 0
BITMAP
03
03
03
03
03
03
03
03
03
03
03
03
03
03
03
03
03
03
FF
FF
ENDCHAR
STARTCHAR 02EA
ENCODING 746
SWIDTH 525 0
DWIDTH 14 0
BBX 8 10 3 0
BITMAP
C0
C0
C0
C0
C0
C0
C0
C0
FF
FF
ENDCHAR
STARTCHAR 02EB
ENCODING 747
SWIDTH 525 0
DWIDTH 14 0
BBX 8 10 3 0
BITMAP
C0
C0
C0
C0
FF
FF
C0
C0
C0
C0
ENDCHAR
STARTCHAR 02EC
ENCODING 748
SWIDTH 525 0
DWIDTH 14 0
BBX 8 5 3 -6
BITMAP
42
C7
66
7C
38
ENDCHAR
STARTCHAR 02ED
ENCODING 749
SWIDTH 525 0
DWIDTH 14 0
BBX 10 5 2 14
BITMAP
FFC0
FFC0
0000
FFC0
FFC0
ENDCHAR
STARTCHAR 02EE
ENCODING 750
SWIDTH 525 0
DWIDTH 14 0
BBX 11 9 1 12
BITMAP
71C0
79E0
79E0
79E0
1060
30C0
30C0
6180
C380
ENDCHAR
STARTCHAR 02EF
ENCODING 751
SWIDTH 525 0
DWIDTH 14 0
BBX 7 4 3 -6
BITMAP
C6
66
3C
38
ENDCHAR
STARTCHAR 02F0
ENCODING 752
SWIDTH 525 0
DWIDTH 14 0
BBX 7 4 3 -6
BITMAP
38
3C
66
C6
ENDCHAR
STARTCHAR 02F1
ENCODING 753
SWIDTH 525 0
DWIDTH 14 0
BBX 6 6 4 -7
BITMAP
04
3C
F0
F0
3C
04
ENDCHAR
STARTCHAR 02F2
ENCODING 754
SWIDTH 525 0
DWIDTH 14 0
BBX 5 6 4 -7
BITMAP
80
E0
38
38
E0
80
ENDCHAR
STARTCHAR 02F3
ENCODING 755
SWIDTH 525 0
DWIDTH 14 0
BBX 5 5 4 -6
BITMAP
70
F8
C8
F8
70
ENDCHAR
STARTCHAR 02F4
ENCODING 756
SWIDTH 525 0
DWIDTH 14 0
BBX 4 5 4 7
BITMAP
40
C0
E0
70
30
ENDCHAR
STARTCHAR 02F5
ENCODING 757
SWIDTH 525 0
DWIDTH 14 0
BBX 10 5 1 7
BITMAP
4200
E600
7300
3180
18C0
ENDCHAR
STARTCHAR 02F6
ENCODING 758
SWIDTH 525 0
DWIDTH 14 0
BBX 10 5 3 7
BITMAP
1080
39C0
7380
6700
CE00
ENDCHAR
STARTCHAR 02F7
ENCODING 759
SWIDTH 525 0
DWIDTH 14 0
BBX 10 5 2 -6
BITMAP
1000
78C0
7D80
CF80
4700
ENDCHAR
STARTCHAR 02F8
ENCODING 760
SWIDTH 525 0
DWIDTH 14 0
BBX 4 12 5 7
BITMAP
E0
F0
F0
E0
00
00
00
00
E0
F0
F0
E0
ENDCHAR
STARTCHAR 02F9
ENCODING 761
SWIDTH 525 0
DWIDTH 14 0
BBX 8 8 3 12
BITMAP
FF
FF
C0
C0
C0
C0
C0
C0
ENDCHAR
STARTCHAR 02FA
ENCODING 762
SWIDTH 525 0
DWIDTH 14 0
BBX 8 8 3 12
BITMAP
FF
FF
03
03
03
03
03
03
ENDCHAR
STARTCHAR 02FB
ENCODING 763
SWIDTH 525 0
DWIDTH 14 0
BBX 8 8 3 0
BITMAP
C0
C0
C0
C0
C0
C0
FF
FF
ENDCHAR
STARTCHAR 02FC
ENCODING 764
SWIDTH 525 0
DWIDTH 14 0
BBX 8 8 3 0
BITMAP
03
03
03
03
03
03
FF
FF
ENDCHAR
STARTCHAR 02FD
ENCODING 765
SWIDTH 525 0
DWIDTH 14 0
BBX 12 4 1 -6
BITMAP
C030
C030
FFF0
FFF0
ENDCHAR
STARTCHAR 02FE
ENCODING 766
SWIDTH 525 0
DWIDTH 14 0
BBX 11 4 1 -6
BITMAP
C000
C000
FFE0
FFE0
ENDCHAR
STARTCHAR 02FF
ENCODING 767
SWIDTH 525 0
DWIDTH 14 0
BBX 9 6 2 -7
BITMAP
2000
3000
FF80
FF80
7000
2000
ENDCHAR
STARTCHAR 0300
ENCODING 768
SWIDTH 525 0
DWIDTH 14 0
BBX 5 5 -10 16
BITMAP
40
E0
60
30
18
ENDCHAR
STARTCHAR 0301
ENCODING 769
SWIDTH 525 0
DWIDTH 14 0
BBX 4 5 -8 16
BITMAP
20
30
70
E0
C0
ENDCHAR
STARTCHAR 0302
ENCODING 770
SWIDTH 525 0
DWIDTH 14 0
BBX 8 5 -11 15
BITMAP
1C
3E
66
E3
40
ENDCHAR
STARTCHAR 0303
ENCODING 771
SWIDTH 525 0
DWIDTH 14 0
BBX 10 5 -12 16
BITMAP
1000
38C0
7DC0
6780
C300
ENDCHAR
STARTCHAR 0304
ENCODING 772
SWIDTH 525 0
DWIDTH 14 0
BBX 8 2 -11 17
BITMAP
FF
FF
ENDCHAR
STARTCHAR 0305
ENCODING 773
SWIDTH 525 0
DWIDTH 14 0
BBX 14 2 -14 17
BITMAP
FFFC
FFFC
ENDCHAR
STARTCHAR 0306
ENCODING 774
SWIDTH 525 0
DWIDTH 14 0
BBX 8 4 -11 16
BITMAP
C1
C3
7F
3E
ENDCHAR
STARTCHAR 0307
ENCODING 775
SWIDTH 525 0
DWIDTH 14 0
BBX 3 3 -8 16
BITMAP
E0
E0
E0
ENDCHAR
STARTCHAR 0308
ENCODING 776
SWIDTH 525 0
DWIDTH 14 0
BBX 9 3 -11 16
BITMAP
E300
E780
E300
ENDCHAR
STARTCHAR 0309
ENCODING 777
SWIDTH 525 0
DWIDTH 14 0
BBX 5 4 -9 16
BITMAP
F0
F8
78
70
ENDCHAR
STARTCHAR 030A
ENCODING 778
SWIDTH 525 0
DWIDTH 14 0
BBX 5 5 -9 15
BITMAP
70
F8
98
F8
70
ENDCHAR
STARTCHAR 030B
ENCODING 779
SWIDTH 525 0
DWIDTH 14 0
BBX 10 5 -11 16
BITMAP
1080
19C0
3980
7300
E600
ENDCHAR
STARTCHAR 030C
ENCODING 780
SWIDTH 525 0
DWIDTH 14 0
BBX 8 5 -11 16
BITMAP
42
E3
66
3E
1C
ENDCHAR
STARTCHAR 030D
ENCODING 781
SWIDTH 525 0
DWIDTH 14 0
BBX 2 4 -8 16
BITMAP
C0
C0
C0
C0
ENDCHAR
STARTCHAR 030E
ENCODING 782
SWIDTH 525 0
DWIDTH 14 0
BBX 6 4 -10 16
BITMAP
CC
CC
CC
CC
ENDCHAR
STARTCHAR 030F
ENCODING 783
SWIDTH 525 0
DWIDTH 14 0
BBX 10 5 -13 16
BITMAP
4200
E700
7380
3980
1CC0
ENDCHAR
STARTCHAR 0310
ENCODING 784
SWIDTH 525 0
DWIDTH 14 0
BBX 7 4 -10 16
BITMAP
30
F6
FC
78
ENDCHAR
STARTCHAR 0311
ENCODING 785
SWIDTH 525 0
DWIDTH 14 0
BBX 8 4 -11 16
BITMAP
3C
7F
E3
C3
ENDCHAR
STARTCHAR 0312
ENCODING 786
SWIDTH 525 0
DWIDTH 14 0
BBX 3 5 -8 15
BITMAP
60
C0
C0
E0
C0
ENDCHAR
STARTCHAR 0313
ENCODING 787
SWIDTH 525 0
DWIDTH 14 0
BBX 3 5 -8 15
BITMAP
C0
E0
40
40
C0
ENDCHAR
STARTCHAR 0314
ENCODING 788
SWIDTH 525 0
DWIDTH 14 0
BBX 3 5 -8 15
BITMAP
C0
E0
C0
C0
60
ENDCHAR
STARTCHAR 0315
ENCODING 789
SWIDTH 525 0
DWIDTH 14 0
BBX 2 5 -1 15
BITMAP
C0
C0
40
C0
80
ENDCHAR
STARTCHAR 0316
ENCODING 790
SWIDTH 525 0
DWIDTH 14 0
BBX 4 5 -8 -7
BITMAP
C0
E0
70
30
20
ENDCHAR
STARTCHAR 0317
ENCODING 791
SWIDTH 525 0
DWIDTH 14 0
BBX 5 5 -10 -7
BITMAP
18
30
60
E0
40
ENDCHAR
STARTCHAR 0318
ENCODING 792
SWIDTH 525 0
DWIDTH 14 0
BBX 5 4 -9 -6
BITMAP
18
F8
F8
18
ENDCHAR
STARTCHAR 0319
ENCODING 793
SWIDTH 525 0
DWIDTH 14 0
BBX 5 4 -9 -6
BITMAP
80
F8
F8
80
ENDCHAR
STARTCHAR 031A
ENCODING 794
SWIDTH 525 0
DWIDTH 14 0
BBX 6 4 -4 16
BITMAP
FC
FC
0C
0C
ENDCHAR
STARTCHAR 031B
ENCODING 795
SWIDTH 525 0
DWIDTH 14 0
BBX 4 6 -1 12
BITMAP
60
70
60
20
60
80
ENDCHAR
STARTCHAR 031C
ENCODING 796
SWIDTH 525 0
DWIDTH 14 0
BBX 2 5 -8 -7
BITMAP
C0
C0
80
C0
C0
ENDCHAR
STARTCHAR 031D
ENCODING 797
SWIDTH 525 0
DWIDTH 14 0
BBX 5 4 -9 -6
BITMAP
60
60
F8
F8
ENDCHAR
STARTCHAR 031E
ENCODING 798
SWIDTH 525 0
DWIDTH 14 0
BBX 5 4 -9 -6
BITMAP
F8
F8
60
60
ENDCHAR
STARTCHAR 031F
ENCODING 799
SWIDTH 525 0
DWIDTH 14 0
BBX 5 4 -9 -6
BITMAP
60
F8
F8
60
ENDCHAR
STARTCHAR 0320
ENCODING 800
SWIDTH 525 0
DWIDTH 14 0
BBX 5 2 -9 -5
BITMAP
F8
F8
ENDCHAR
STARTCHAR 0321
ENCODING 801
SWIDTH 525 0
DWIDTH 14 0
BBX 6 6 -6 -6
BITMAP
0C
0C
0C
1C
F8
F0
ENDCHAR
STARTCHAR 0322
ENCODING 802
SWIDTH 525 0
DWIDTH 14 0
BBX 6 6 -2 -6
BITMAP
C0
C0
C0
E0
7C
3C
ENDCHAR
STARTCHAR 0323
ENCODING 803
SWIDTH 525 0
DWIDTH 14 0
BBX 3 3 -8 -6
BITMAP
E0
E0
E0
ENDCHAR
STARTCHAR 0324
ENCODING 804
SWIDTH 525 0
DWIDTH 14 0
BBX 9 3 -11 -6
BITMAP
E300
E780
E300
ENDCHAR
STARTCHAR 0325
ENCODING 805
SWIDTH 525 0
DWIDTH 14 0
BBX 5 5 -9 -6
BITMAP
70
F8
98
F8
70
ENDCHAR
STARTCHAR 0326
ENCODING 806
SWIDTH 525 0
DWIDTH 14 0
BBX 3 5 -8 -6
BITMAP
C0
E0
40
40
C0
ENDCHAR
STARTCHAR 0327
ENCODING 807
SWIDTH 525 0
DWIDTH 14 0
BBX 5 6 -9 -6
BITMAP
60
70
18
18
F8
F0
ENDCHAR
STARTCHAR 0328
ENCODING 808
SWIDTH 525 0
DWIDTH 14 0
BBX 4 6 -9 -6
BITMAP
70
40
C0
C0
F0
70
ENDCHAR
STARTCHAR 0329
ENCODING 809
SWIDTH 525 0
DWIDTH 14 0
BBX 2 4 -8 -6
BITMAP
C0
C0
C0
C0
ENDCHAR
STARTCHAR 032A
ENCODING 810
SWIDTH 525 0
DWIDTH 14 0
BBX 7 4 -10 -6
BITMAP
FE
FE
86
86
ENDCHAR
STARTCHAR 032B
ENCODING 811
SWIDTH 525 0
DWIDTH 14 0
BBX 9 4 -11 -6
BITMAP
8000
D980
FF00
7700
ENDCHAR
STARTCHAR 032C
ENCODING 812
SWIDTH 525 0
DWIDTH 14 0
BBX 8 5 -11 -6
BITMAP
42
E3
66
3E
1C
ENDCHAR
STARTCHAR 032D
ENCODING 813
SWIDTH 525 0
DWIDTH 14 0
BBX 8 5 -11 -7
BITMAP
1C
3E
66
E3
42
ENDCHAR
STARTCHAR 032E
ENCODING 814
SWIDTH 525 0
DWIDTH 14 0
BBX 8 4 -11 -6
BITMAP
C1
C3
7F
3E
ENDCHAR
STARTCHAR 032F
ENCODING 815
SWIDTH 525 0
DWIDTH 14 0
BBX 8 4 -11 -6
BITMAP
3C
7F
E3
C3
ENDCHAR
STARTCHAR 0330
ENCODING 816
SWIDTH 525 0
DWIDTH 14 0
BBX 10 5 -12 -6
BITMAP
1000
38C0
7DC0
6780
C700
ENDCHAR
STARTCHAR 0331
ENCODING 817
SWIDTH 525 0
DWIDTH 14 0
BBX 8 2 -11 -5
BITMAP
FF
FF
ENDCHAR
STARTCHAR 0332
ENCODING 818
SWIDTH 525 0
DWIDTH 14 0
BBX 14 2 -14 -5
BITMAP
FFFC
FFFC
ENDCHAR
STARTCHAR 0333
ENCODING 819
SWIDTH 525 0
DWIDTH 14 0
BBX 14 4 -14 -6
BITMAP
FFFC
FFFC
FFFC
FFFC
ENDCHAR
STARTCHAR 0334
ENCODING 820
SWIDTH 525 0
DWIDTH 14 0
BBX 9 4 -11 5
BITMAP
2000
7B80
DF00
CE00
ENDCHAR
STARTCHAR 0335
ENCODING 821
SWIDTH 525 0
DWIDTH 14 0
BBX 7 2 -10 6
BITMAP
FE
FE
ENDCHAR
STARTCHAR 0336
ENCODING 822
SWIDTH 525 0
DWIDTH 14 0
BBX 14 2 -14 6
BITMAP
FFFC
FFFC
ENDCHAR
STARTCHAR 0337
ENCODING 823
SWIDTH 525 0
DWIDTH 14 0
BBX 9 18 -11 -2
BITMAP
0180
0100
0300
0200
0600
0600
0400
0C00
0800
1800
1000
3000
2000
6000
6000
4000
C000
4000
ENDCHAR
STARTCHAR 0338
ENCODING 824
SWIDTH 525 0
DWIDTH 14 0
BBX 9 24 -11 -5
BITMAP
0180
0100
0300
0300
0200
0200
0600
0400
0400
0C00
0800
0800
1800
1800
1000
3000
3000
2000
6000
6000
4000
4000
C000
8000
ENDCHAR
STARTCHAR 0339
ENCODING 825
SWIDTH 525 0
DWIDTH 14 0
BBX 3 5 -8 -7
BITMAP
C0
E0
60
E0
C0
ENDCHAR
STARTCHAR 033A
ENCODING 826
SWIDTH 525 0
DWIDTH 14 0
BBX 7 4 -10 -6
BITMAP
86
86
FE
FE
ENDCHAR
STARTCHAR 033B
ENCODING 827
SWIDTH 525 0
DWIDTH 14 0
BBX 5 4 -9 -6
BITMAP
F8
F8
F8
F8
ENDCHAR
STARTCHAR 033C
ENCODING 828
SWIDTH 525 0
DWIDTH 14 0
BBX 9 4 -11 -6
BITMAP
7600
FF00
D980
9980
ENDCHAR
STARTCHAR 033D
ENCODING 829
SWIDTH 525 0
DWIDTH 14 0
BBX 6 5 -10 16
BITMAP
44
EC
78
78
CC
ENDCHAR
STARTCHAR 033E
ENCODING 830
SWIDTH 525 0
DWIDTH 14 0
BBX 2 4 -8 16
BITMAP
C0
C0
40
C0
ENDCHAR
STARTCHAR 033F
ENCODING 831
SWIDTH 525 0
DWIDTH 14 0
BBX 14 4 -14 16
BITMAP
FFFC
FFFC
FFFC
FFFC
ENDCHAR
STARTCHAR 0340
ENCODING 832
SWIDTH 525 0
DWIDTH 14 0
BBX 5 5 -10 16
BITMAP
40
E0
60
30
18
ENDCHAR
STARTCHAR 0341
ENCODING 833
SWIDTH 525 0
DWIDTH 14 0
BBX 4 5 -8 16
BITMAP
20
30
70
E0
C0
ENDCHAR
STARTCHAR 0342
ENCODING 834
SWIDTH 525 0
DWIDTH 14 0
BBX 8 4 -11 16
BITMAP
3C
7F
E3
C3
ENDCHAR
STARTCHAR 0343
ENCODING 835
SWIDTH 525 0
DWIDTH 14 0
BBX 3 5 -8 15
BITMAP
C0
E0
40
40
C0
ENDCHAR
STARTCHAR 0344
ENCODING 836
SWIDTH 525 0
DWIDTH 14 0
BBX 9 4 -11 16
BITMAP
1C00
DB80
DB80
1800
ENDCHAR
STARTCHAR 0345
ENCODING 837
SWIDTH 525 0
DWIDTH 14 0
BBX 2 4 -8 -6
BITMAP
C0
C0
C0
C0
ENDCHAR
STARTCHAR 0346
ENCODING 838
SWIDTH 525 0
DWIDTH 14 0
BBX 7 4 -10 16
BITMAP
FE
FE
86
86
ENDCHAR
STARTCHAR 0347
ENCODING 839
SWIDTH 525 0
DWIDTH 14 0
BBX 5 4 -9 -6
BITMAP
F8
F8
F8
F8
ENDCHAR
STARTCHAR 0348
ENCODING 840
SWIDTH 525 0
DWIDTH 14 0
BBX 6 4 -10 -6
BITMAP
CC
CC
CC
CC
ENDCHAR
STARTCHAR 0349
ENCODING 841
SWIDTH 525 0
DWIDTH 14 0
BBX 5 4 -9 -6
BITMAP
F8
F8
18
18
ENDCHAR
STARTCHAR 034A
ENCODING 842
SWIDTH 525 0
DWIDTH 14 0
BBX 10 5 -12 15
BITMAP
1600
3CC0
6F80
CF00
0C00
ENDCHAR
STARTCHAR 034B
ENCODING 843
SWIDTH 525 0
DWIDTH 14 0
BBX 10 7 -12 14
BITMAP
0C00
0C00
38C0
6F80
C700
0C00
0C00
ENDCHAR
STARTCHAR 034C
ENCODING 844
SWIDTH 525 0
DWIDTH 14 0
BBX 10 6 -12 14
BITMAP
38C0
6D80
D700
3CC0
6F80
C700
ENDCHAR
STARTCHAR 034D
ENCODING 845
SWIDTH 525 0
DWIDTH 14 0
BBX 10 6 -12 -7
BITMAP
1100
3300
7FC0
FFC0
3380
1100
ENDCHAR
STARTCHAR 034E
ENCODING 846
SWIDTH 525 0
DWIDTH 14 0
BBX 5 5 -9 -6
BITMAP
20
60
F8
B0
20
ENDCHAR
STARTCHAR 034F
ENCODING 847
SWIDTH 525 0
DWIDTH 14 0
BBX 0 0 0 0
BITMAP
ENDCHAR
STARTCHAR 0350
ENCODING 848
SWIDTH 525 0
DWIDTH 14 0
BBX 6 6 -10 15
BITMAP
40
F0
1C
3C
F0
80
ENDCHAR
STARTCHAR 0351
ENCODING 849
SWIDTH 525 0
DWIDTH 14 0
BBX 2 5 -8 16
BITMAP
40
C0
80
C0
C0
ENDCHAR
STARTCHAR 0352
ENCODING 850
SWIDTH 525 0
DWIDTH 14 0
BBX 7 5 -10 15
BITMAP
38
FC
CC
F6
30
ENDCHAR
STARTCHAR 0353
ENCODING 851
SWIDTH 525 0
DWIDTH 14 0
BBX 6 5 -10 -7
BITMAP
CC
78
78
EC
44
ENDCHAR
STARTCHAR 0354
ENCODING 852
SWIDTH 525 0
DWIDTH 14 0
BBX 5 6 -9 -7
BITMAP
08
38
E0
E0
38
08
ENDCHAR
STARTCHAR 0355
ENCODING 853
SWIDTH 525 0
DWIDTH 14 0
BBX 6 6 -10 -7
BITMAP
80
F0
3C
3C
F0
40
ENDCHAR
STARTCHAR 0356
ENCODING 854
SWIDTH 525 0
DWIDTH 14 0
BBX 11 6 -12 -7
BITMAP
8000
E180
7BC0
3E60
E460
8000
ENDCHAR
STARTCHAR 0357
ENCODING 855
SWIDTH 525 0
DWIDTH 14 0
BBX 3 5 -8 16
BITMAP
C0
E0
60
E0
C0
ENDCHAR
STARTCHAR 0358
ENCODING 856
SWIDTH 525 0
DWIDTH 14 0
BBX 3 3 0 15
BITMAP
C0
E0
C0
ENDCHAR
STARTCHAR 0359
ENCODING 857
SWIDTH 525 0
DWIDTH 14 0
BBX 5 4 -9 -6
BITMAP
20
F8
60
F0
ENDCHAR
STARTCHAR 035A
ENCODING 858
SWIDTH 525 0
DWIDTH 14 0
BBX 9 5 -11 -6
BITMAP
F700
FF80
9980
FF80
F700
ENDCHAR
STARTCHAR 035B
ENCODING 859
SWIDTH 525 0
DWIDTH 14 0
BBX 6 3 -10 16
BITMAP
60
7C
8C
ENDCHAR
STARTCHAR 035C
ENCODING 860
SWIDTH 525 0
DWIDTH 14 0
BBX 22 5 -11 -15
BITMAP
400008
F0003C
3E01F0
0FFFC0
01FE00
ENDCHAR
STARTCHAR 035D
ENCODING 861
SWIDTH 525 0
DWIDTH 14 0
BBX 22 5 -11 21
BITMAP
400008
F0003C
3E01F0
0FFFC0
01FE00
ENDCHAR
STARTCHAR 035E
ENCODING 862
SWIDTH 525 0
DWIDTH 14 0
BBX 20 2 -10 23
BITMAP
FFFFF0
FFFFF0
ENDCHAR
STARTCHAR 035F
ENCODING 863
SWIDTH 525 0
DWIDTH 14 0
BBX 20 2 -10 -13
BITMAP
FFFFF0
FFFFF0
ENDCHAR
STARTCHAR 0360
ENCODING 864
SWIDTH 525 0
DWIDTH 14 0
BBX 22 5 -11 21
BITMAP
0F8008
1FE01C
787878
E01FE0
4007C0
ENDCHAR
STARTCHAR 0361
ENCODING 865
SWIDTH 525 0
DWIDTH 14 0
BBX 22 5 -11 22
BITMAP
00FC00
0FFFC0
3E01F0
F0003C
400008
ENDCHAR
STARTCHAR 0362
ENCODING 866
SWIDTH 525 0
DWIDTH 14 0
BBX 21 7 -10 -16
BITMAP
0000C0
000060
FFFFF0
FFFFF8
000060
0000C0
000080
ENDCHAR
STARTCHAR 0363
ENCODING 867
SWIDTH 525 0
DWIDTH 14 0
BBX 4 5 -9 16
BITMAP
70
90
70
D0
F0
ENDCHAR
STARTCHAR 0364
ENCODING 868
SWIDTH 525 0
DWIDTH 14 0
BBX 4 6 -9 16
BITMAP
70
D0
90
F0
C0
70
ENDCHAR
STARTCHAR 0365
ENCODING 869
SWIDTH 525 0
DWIDTH 14 0
BBX 4 8 -9 16
BITMAP
60
60
00
60
20
20
20
F0
ENDCHAR
STARTCHAR 0366
ENCODING 870
SWIDTH 525 0
DWIDTH 14 0
BBX 4 6 -9 16
BITMAP
70
D0
90
90
D0
70
ENDCHAR
STARTCHAR 0367
ENCODING 871
SWIDTH 525 0
DWIDTH 14 0
BBX 4 6 -9 16
BITMAP
D0
D0
D0
D0
D0
70
ENDCHAR
STARTCHAR 0368
ENCODING 872
SWIDTH 525 0
DWIDTH 14 0
BBX 4 6 -9 16
BITMAP
70
D0
80
80
D0
70
ENDCHAR
STARTCHAR 0369
ENCODING 873
SWIDTH 525 0
DWIDTH 14 0
BBX 4 8 -9 16
BITMAP
10
10
70
D0
90
90
D0
70
ENDCHAR
STARTCHAR 036A
ENCODING 874
SWIDTH 525 0
DWIDTH 14 0
BBX 4 8 -9 16
BITMAP
C0
C0
F0
D0
D0
D0
D0
D0
ENDCHAR
STARTCHAR 036B
ENCODING 875
SWIDTH 525 0
DWIDTH 14 0
BBX 5 6 -9 16
BITMAP
F0
B8
B8
B8
B8
B8
ENDCHAR
STARTCHAR 036C
ENCODING 876
SWIDTH 525 0
DWIDTH 14 0
BBX 3 6 -8 16
BITMAP
A0
E0
80
80
80
80
ENDCHAR
STARTCHAR 036D
ENCODING 877
SWIDTH 525 0
DWIDTH 14 0
BBX 4 8 -9 16
BITMAP
40
40
F0
40
40
40
50
30
ENDCHAR
STARTCHAR 036E
ENCODING 878
SWIDTH 525 0
DWIDTH 14 0
BBX 5 6 -9 16
BITMAP
98
D0
50
50
60
60
ENDCHAR
STARTCHAR 036F
ENCODING 879
SWIDTH 525 0
DWIDTH 14 0
BBX 4 6 -9 16
BITMAP
D0
70
60
60
70
D0
ENDCHAR
STARTCHAR 0370
ENCODING 880
SWIDTH 525 0
DWIDTH 14 0
BBX 8 20 3 0
BITMAP
C0
C0
C0
C0
C0
C0
C0
C0
C0
FF
FF
C0
C0
C0
C0
C0
C0
C0
C0
C0
ENDCHAR
STARTCHAR 0371
ENCODING 881
SWIDTH 525 0
DWIDTH 14 0
BBX 8 14 3 0
BITMAP
C0
C0
C0
C0
C0
C0
FF
FF
C0
C0
C0
C0
C0
C0
ENDCHAR
STARTCHAR 0372
ENCODING 882
SWIDTH 525 0
DWIDTH 14 0
BBX 11 20 1 0
BITMAP
FFE0
FFE0
C660
C660
C660
C660
C660
C660
C660
C660
0600
0600
0600
0600
0600
0600
0600
0600
0600
0600
ENDCHAR
STARTCHAR 0373
ENCODING 883
SWIDTH 525 0
DWIDTH 14 0
BBX 11 20 1 -6
BITMAP
FFE0
FFE0
C660
C660
C660
C660
C660
C660
C660
C660
0600
0600
0600
0600
0600
0600
0600
0600
0600
0600
ENDCHAR
STARTCHAR 0374
ENCODING 884
SWIDTH 525 0
DWIDTH 14 0
BBX 5 9 4 12
BITMAP
18
38
38
30
30
70
60
60
E0
ENDCHAR
STARTCHAR 0375
ENCODING 885
SWIDTH 525 0
DWIDTH 14 0
BBX 5 9 4 -5
BITMAP
18
38
38
30
30
70
60
60
E0
ENDCHAR
STARTCHAR 0376
ENCODING 886
SWIDTH 525 0
DWIDTH 14 0
BBX 10 20 2 0
BITMAP
C1C0
C1C0
C3C0
C3C0
C3C0
C6C0
C6C0
C6C0
CCC0
CCC0
CCC0
D8C0
D8C0
D8C0
F0C0
F0C0
E0C0
E0C0
E0C0
C0C0
ENDCHAR
STARTCHAR 0377
ENCODING 887
SWIDTH 525 0
DWIDTH 14 0
BBX 10 14 2 0
BITMAP
C1C0
C3C0
C3C0
C7C0
C6C0
CEC0
CCC0
CCC0
D8C0
D8C0
F0C0
F0C0
E0C0
E0C0
ENDCHAR
STARTCHAR 037A
ENCODING 890
SWIDTH 525 0
DWIDTH 14 0
BBX 2 4 6 -6
BITMAP
C0
C0
C0
C0
ENDCHAR
STARTCHAR 037B
ENCODING 891
SWIDTH 525 0
DWIDTH 14 0
BBX 10 14 2 0
BITMAP
3E00
7F80
E180
C1C0
C0C0
00C0
00C0
00C0
00C0
C0C0
C0C0
E180
7F80
3E00
ENDCHAR
STARTCHAR 037C
ENCODING 892
SWIDTH 525 0
DWIDTH 14 0
BBX 10 14 2 0
BITMAP
3E00
7F80
E180
C1C0
C0C0
C000
DC00
DC00
CC00
C0C0
C1C0
E180
7F80
3E00
ENDCHAR
STARTCHAR 037D
ENCODING 893
SWIDTH 525 0
DWIDTH 14 0
BBX 10 14 2 0
BITMAP
3E00
7F80
E180
C1C0
C0C0
00C0
1CC0
1CC0
0CC0
C0C0
C0C0
E180
7F80
3E00
ENDCHAR
STARTCHAR 037E
ENCODING 894
SWIDTH 525 0
DWIDTH 14 0
BBX 5 20 4 -6
BITMAP
70
78
78
70
00
00
00
00
00
00
70
78
78
78
18
30
30
60
E0
40
ENDCHAR
STARTCHAR 037F
ENCODING 895
SWIDTH 525 0
DWIDTH 14 0
BBX 10 20 1 0
BITMAP
0FC0
0FC0
00C0
00C0
00C0
00C0
00C0
00C0
00C0
00C0
00C0
00C0
00C0
00C0
00C0
C0C0
E0C0
61C0
7F80
1F00
ENDCHAR
STARTCHAR 0384
ENCODING 900
SWIDTH 525 0
DWIDTH 14 0
BBX 2 4 6 16
BITMAP
C0
C0
C0
C0
ENDCHAR
STARTCHAR 0385
ENCODING 901
SWIDTH 525 0
DWIDTH 14 0
BBX 9 4 2 16
BITMAP
0C00
ED80
ED80
0C00
ENDCHAR
STARTCHAR 0386
ENCODING 902
SWIDTH 525 0
DWIDTH 14 0
BBX 11 22 1 0
BITMAP
C000
C000
CE00
CE00
0F00
0F00
0F00
1B00
1B00
1980
1980
3980
3180
3180
30C0
3FC0
7FC0
60C0
60E0
6060
E060
C060
ENDCHAR
STARTCHAR 0387
ENCODING 903
SWIDTH 525 0
DWIDTH 14 0
BBX 4 4 5 7
BITMAP
E0
F0
F0
E0
ENDCHAR
STARTCHAR 0388
ENCODING 904
SWIDTH 525 0
DWIDTH 14 0
BBX 13 22 -1 0
BITMAP
C000
C000
DFF8
DFF8
1800
1800
1800
1800
1800
1800
1800
1FE0
1FE0
1800
1800
1800
1800
1800
1800
1800
1FF8
1FF8
ENDCHAR
STARTCHAR 0389
ENCODING 905
SWIDTH 525 0
DWIDTH 14 0
BBX 13 22 -1 0
BITMAP
C000
C000
D818
D818
1818
1818
1818
1818
1818
1818
1818
1FF8
1FF8
1818
1818
1818
1818
1818
1818
1818
1818
1818
ENDCHAR
STARTCHAR 038A
ENCODING 906
SWIDTH 525 0
DWIDTH 14 0
BBX 12 22 -1 0
BITMAP
C000
C000
DFF0
DFF0
0180
0180
0180
0180
0180
0180
0180
0180
0180
0180
0180
0180
0180
0180
0180
0180
1FF0
1FF0
ENDCHAR
STARTCHAR 038C
ENCODING 908
SWIDTH 525 0
DWIDTH 14 0
BBX 13 22 -1 0
BITMAP
C000
C000
C7C0
CFF0
1C30
1838
1818
1818
1818
1818
1818
1818
1818
1818
1818
1818
1818
1818
1818
1C30
0FF0
07C0
ENDCHAR
STARTCHAR 038E
ENCODING 910
SWIDTH 525 0
DWIDTH 14 0
BBX 13 22 -1 0
BITMAP
C000
C000
F818
D838
1830
0C30
0C70
0C60
0660
06C0
06C0
03C0
0380
0180
0180
0180
0180
0180
0180
0180
0180
0180
ENDCHAR
STARTCHAR 038F
ENCODING 911
SWIDTH 525 0
DWIDTH 14 0
BBX 13 22 -1 0
BITMAP
C000
C000
C7C0
CFE0
1C30
1838
1818
1818
1818
1818
1818
1818
1818
1818
1818
1818
1818
1830
0C70
0660
1E78
1E78
ENDCHAR
STARTCHAR 0390
ENCODING 912
SWIDTH 525 0
DWIDTH 14 0
BBX 10 20 2 0
BITMAP
0C00
ED80
ED80
0C00
0000
0000
FC00
FC00
0C00
0C00
0C00
0C00
0C00
0C00
0C00
0C00
0C00
0E00
07C0
03C0
ENDCHAR
STARTCHAR 0391
ENCODING 913
SWIDTH 525 0
DWIDTH 14 0
BBX 11 20 1 0
BITMAP
0E00
0E00
0F00
0F00
0F00
1B00
1B00
1980
1980
3980
3180
3180
30C0
3FC0
7FC0
60C0
60E0
6060
E060
C060
ENDCHAR
STARTCHAR 0392
ENCODING 914
SWIDTH 525 0
DWIDTH 14 0
BBX 10 20 2 0
BITMAP
FE00
FF00
C380
C180
C180
C1C0
C180
C180
C380
FF00
FF00
C180
C0C0
C0C0
C0C0
C0C0
C0C0
C1C0
FF80
FE00
ENDCHAR
STARTCHAR 0393
ENCODING 915
SWIDTH 525 0
DWIDTH 14 0
BBX 9 20 3 0
BITMAP
FF80
FF80
C000
C000
C000
C000
C000
C000
C000
C000
C000
C000
C000
C000
C000
C000
C000
C000
C000
C000
ENDCHAR
STARTCHAR 0394
ENCODING 916
SWIDTH 525 0
DWIDTH 14 0
BBX 11 20 1 0
BITMAP
0E00
0E00
0F00
0F00
0F00
1B00
1B00
1980
1980
3980
3180
3180
30C0
30C0
60C0
60C0
60E0
6060
FFE0
FFE0
ENDCHAR
STARTCHAR 0395
ENCODING 917
SWIDTH 525 0
DWIDTH 14 0
BBX 10 20 2 0
BITMAP
FFC0
FFC0
C000
C000
C000
C000
C000
C000
C000
FF00
FF00
C000
C000
C000
C000
C000
C000
C000
FFC0
FFC0
ENDCHAR
STARTCHAR 0396
ENCODING 918
SWIDTH 525 0
DWIDTH 14 0
BBX 10 20 2 0
BITMAP
FFC0
FFC0
0180
0180
0380
0300
0700
0600
0E00
0C00
1C00
1800
3800
3000
7000
6000
E000
C000
FFC0
FFC0
ENDCHAR
STARTCHAR 0397
ENCODING 919
SWIDTH 525 0
DWIDTH 14 0
BBX 10 20 2 0
BITMAP
C0C0
C0C0
C0C0
C0C0
C0C0
C0C0
C0C0
C0C0
C0C0
FFC0
FFC0
C0C0
C0C0
C0C0
C0C0
C0C0
C0C0
C0C0
C0C0
C0C0
ENDCHAR
STARTCHAR 0398
ENCODING 920
SWIDTH 525 0
DWIDTH 14 0
BBX 10 20 2 0
BITMAP
3E00
7F80
E180
C1C0
C0C0
C0C0
C0C0
C0C0
C0C0
FEC0
FEC0
C0C0
C0C0
C0C0
C0C0
C0C0
C0C0
E180
7F80
3E00
ENDCHAR
STARTCHAR 0399
ENCODING 921
SWIDTH 525 0
DWIDTH 14 0
BBX 9 20 2 0
BITMAP
FF80
FF80
0C00
0C00
0C00
0C00
0C00
0C00
0C00
0C00
0C00
0C00
0C00
0C00
0C00
0C00
0C00
0C00
FF80
FF80
ENDCHAR
STARTCHAR 039A
ENCODING 922
SWIDTH 525 0
DWIDTH 14 0
BBX 10 20 2 0
BITMAP
C1C0
C180
C380
C300
C600
C600
CC00
DC00
D800
F800
F800
EC00
EC00
C600
C600
C300
C300
C180
C180
C0C0
ENDCHAR
STARTCHAR 039B
ENCODING 923
SWIDTH 525 0
DWIDTH 14 0
BBX 11 20 1 0
BITMAP
0E00
0E00
0F00
0F00
0F00
1B00
1B00
1980
1980
3980
3180
3180
30C0
30C0
60C0
60C0
60E0
6060
E060
C060
ENDCHAR
STARTCHAR 039C
ENCODING 924
SWIDTH 525 0
DWIDTH 14 0
BBX 11 20 1 0
BITMAP
E0E0
E0E0
F0E0
F0E0
F1E0
D1E0
D9E0
D960
DB60
CB60
CF60
CE60
C660
C660
C060
C060
C060
C060
C060
C060
ENDCHAR
STARTCHAR 039D
ENCODING 925
SWIDTH 525 0
DWIDTH 14 0
BBX 10 20 2 0
BITMAP
C0C0
E0C0
E0C0
E0C0
F0C0
F0C0
D8C0
D8C0
D8C0
CCC0
CCC0
CCC0
C6C0
C6C0
C6C0
C3C0
C3C0
C3C0
C1C0
C1C0
ENDCHAR
STARTCHAR 039E
ENCODING 926
SWIDTH 525 0
DWIDTH 14 0
BBX 10 20 2 0
BITMAP
FFC0
FFC0
0000
0000
0000
0000
0000
0000
0000
7F80
7F80
0000
0000
0000
0000
0000
0000
0000
FFC0
FFC0
ENDCHAR
STARTCHAR 039F
ENCODING 927
SWIDTH 525 0
DWIDTH 14 0
BBX 10 20 2 0
BITMAP
3E00
7F80
E180
C1C0
C0C0
C0C0
C0C0
C0C0
C0C0
C0C0
C0C0
C0C0
C0C0
C0C0
C0C0
C0C0
C0C0
E180
7F80
3E00
ENDCHAR
STARTCHAR 03A0
ENCODING 928
SWIDTH 525 0
DWIDTH 14 0
BBX 10 20 2 0
BITMAP
FFC0
FFC0
C0C0
C0C0
C0C0
C0C0
C0C0
C0C0
C0C0
C0C0
C0C0
C0C0
C0C0
C0C0
C0C0
C0C0
C0C0
C0C0
C0C0
C0C0
ENDCHAR
STARTCHAR 03A1
ENCODING 929
SWIDTH 525 0
DWIDTH 14 0
BBX 10 20 2 0
BITMAP
FE00
FF80
C180
C0C0
C0C0
C0C0
C0C0
C0C0
C0C0
C180
FF80
FE00
C000
C000
C000
C000
C000
C000
C000
C000
ENDCHAR
STARTCHAR 03A3
ENCODING 931
SWIDTH 525 0
DWIDTH 14 0
BBX 10 20 2 0
BITMAP
FFC0
FFC0
C000
6000
6000
3000
3000
1800
1800
0C00
0C00
1800
1800
3000
3000
6000
6000
C000
FFC0
FFC0
ENDCHAR
STARTCHAR 03A4
ENCODING 932
SWIDTH 525 0
DWIDTH 14 0
BBX 10 20 2 0
BITMAP
FFC0
FFC0
0C00
0C00
0C00
0C00
0C00
0C00
0C00
0C00
0C00
0C00
0C00
0C00
0C00
0C00
0C00
0C00
0C00
0C00
ENDCHAR
STARTCHAR 03A5
ENCODING 933
SWIDTH 525 0
DWIDTH 14 0
BBX 11 20 1 0
BITMAP
E060
60E0
60C0
30C0
31C0
3180
1980
1B00
1B00
0F00
0E00
0600
0600
0600
0600
0600
0600
0600
0600
0600
ENDCHAR
STARTCHAR 03A6
ENCODING 934
SWIDTH 525 0
DWIDTH 14 0
BBX 11 20 1 0
BITMAP
0600
0600
0600
3F80
77C0
6660
C660
C660
C660
C660
C660
C660
C660
C660
E660
76E0
3FC0
0F00
0600
0600
ENDCHAR
STARTCHAR 03A7
ENCODING 935
SWIDTH 525 0
DWIDTH 14 0
BBX 11 20 1 0
BITMAP
E060
60E0
70C0
31C0
3180
1980
1B00
0F00
0F00
0E00
0600
0E00
0F00
1B00
1980
3980
31C0
70C0
60E0
E060
ENDCHAR
STARTCHAR 03A8
ENCODING 936
SWIDTH 525 0
DWIDTH 14 0
BBX 11 20 1 0
BITMAP
C660
C660
C660
C660
C660
C660
C660
C660
C660
C660
6660
66E0
3FC0
1F00
0600
0600
0600
0600
0600
0600
ENDCHAR
STARTCHAR 03A9
ENCODING 937
SWIDTH 525 0
DWIDTH 14 0
BBX 10 20 2 0
BITMAP
3E00
7F00
E180
C1C0
C0C0
C0C0
C0C0
C0C0
C0C0
C0C0
C0C0
C0C0
C0C0
C0C0
C0C0
C180
6380
3300
F3C0
F3C0
ENDCHAR
STARTCHAR 03AA
ENCODING 938
SWIDTH 525 0
DWIDTH 14 0
BBX 9 25 2 0
BITMAP
6380
F380
7380
0000
0000
FF80
FF80
0C00
0C00
0C00
0C00
0C00
0C00
0C00
0C00
0C00
0C00
0C00
0C00
0C00
0C00
0C00
0C00
FF80
FF80
ENDCHAR
STARTCHAR 03AB
ENCODING 939
SWIDTH 525 0
DWIDTH 14 0
BBX 11 25 1 0
BITMAP
31C0
79C0
39C0
0000
0000
E060
60E0
60C0
30C0
31C0
3180
1980
1B00
1B00
0F00
0E00
0600
0600
0600
0600
0600
0600
0600
0600
0600
ENDCHAR
STARTCHAR 03AC
ENCODING 940
SWIDTH 525 0
DWIDTH 14 0
BBX 11 20 1 0
BITMAP
0600
0600
0600
0600
0000
0000
1E60
7F60
6360
E1C0
C1C0
C0C0
C0C0
C0C0
C0C0
C1C0
E1E0
6360
7F60
1E60
ENDCHAR
STARTCHAR 03AD
ENCODING 941
SWIDTH 525 0
DWIDTH 14 0
BBX 11 20 1 0
BITMAP
0600
0600
0600
0600
0000
0000
1F00
3FC0
70C0
60E0
6000
7000
3E00
3E00
6000
C000
C060
60E0
7FC0
1F80
ENDCHAR
STARTCHAR 03AE
ENCODING 942
SWIDTH 525 0
DWIDTH 14 0
BBX 10 26 2 -6
BITMAP
0C00
0C00
0C00
0C00
0000
0000
CF00
DF80
E180
C1C0
C0C0
C0C0
C0C0
C0C0
C0C0
C0C0
C0C0
C0C0
C0C0
C0C0
00C0
00C0
00C0
00C0
00C0
00C0
ENDCHAR
STARTCHAR 03AF
ENCODING 943
SWIDTH 525 0
DWIDTH 14 0
BBX 10 20 2 0
BITMAP
0C00
0C00
0C00
0C00
0000
0000
FC00
FC00
0C00
0C00
0C00
0C00
0C00
0C00
0C00
0C00
0C00
0E00
07C0
03C0
ENDCHAR
STARTCHAR 03B0
ENCODING 944
SWIDTH 525 0
DWIDTH 14 0
BBX 10 20 2 0
BITMAP
0C00
ED80
ED80
0C00
0000
0000
C180
C180
C1C0
C0C0
C0C0
C0C0
C0C0
C0C0
C0C0
C1C0
C180
E380
7F00
3E00
ENDCHAR
STARTCHAR 03B1
ENCODING 945
SWIDTH 525 0
DWIDTH 14 0
BBX 11 14 1 0
BITMAP
1E60
7F60
6360
E1C0
C1C0
C0C0
C0C0
C0C0
C0C0
C1C0
E1E0
6360
7F60
1E60
ENDCHAR
STARTCHAR 03B2
ENCODING 946
SWIDTH 525 0
DWIDTH 14 0
BBX 10 26 2 -6
BITMAP
3E00
7F00
E380
C180
C180
C180
C180
C180
C380
CF00
CF00
C180
C0C0
C0C0
C0C0
C0C0
C1C0
E180
FF80
DF00
C000
C000
C000
C000
C000
C000
ENDCHAR
STARTCHAR 03B3
ENCODING 947
SWIDTH 525 0
DWIDTH 14 0
BBX 11 20 1 -6
BITMAP
4060
E060
6060
70E0
30C0
30C0
18C0
1980
1980
0F80
0F00
0F00
0E00
0E00
0C00
0C00
0C00
0C00
0C00
0C00
ENDCHAR
STARTCHAR 03B4
ENCODING 948
SWIDTH 525 0
DWIDTH 14 0
BBX 10 20 2 0
BITMAP
3E00
7F80
E100
C000
C000
C000
E000
7C00
3F00
E380
C1C0
C0C0
C0C0
C0C0
C0C0
C0C0
C1C0
E180
7F80
3E00
ENDCHAR
STARTCHAR 03B5
ENCODING 949
SWIDTH 525 0
DWIDTH 14 0
BBX 11 14 1 0
BITMAP
1F00
3FC0
70C0
60E0
6000
7000
3E00
3E00
6000
C000
C060
60E0
7FC0
1F80
ENDCHAR
STARTCHAR 03B6
ENCODING 950
SWIDTH 525 0
DWIDTH 14 0
BBX 10 26 2 -6
BITMAP
FFC0
FFC0
0380
0700
0E00
1C00
3800
3000
7000
6000
E000
C000
C000
C000
C000
C000
C000
E000
7F00
3F80
01C0
00C0
00C0
01C0
0780
0700
ENDCHAR
STARTCHAR 03B7
ENCODING 951
SWIDTH 525 0
DWIDTH 14 0
BBX 10 20 2 -6
BITMAP
CF00
DF80
E180
C1C0
C0C0
C0C0
C0C0
C0C0
C0C0
C0C0
C0C0
C0C0
C0C0
C0C0
00C0
00C0
00C0
00C0
00C0
00C0
ENDCHAR
STARTCHAR 03B8
ENCODING 952
SWIDTH 525 0
DWIDTH 14 0
BBX 10 20 2 0
BITMAP
1E00
3F00
6380
E180
C180
C1C0
C0C0
C0C0
C0C0
FFC0
FFC0
C0C0
C0C0
C0C0
C1C0
C180
E180
6380
3F00
1E00
ENDCHAR
STARTCHAR 03B9
ENCODING 953
SWIDTH 525 0
DWIDTH 14 0
BBX 10 14 2 0
BITMAP
FC00
FC00
0C00
0C00
0C00
0C00
0C00
0C00
0C00
0C00
0C00
0E00
07C0
03C0
ENDCHAR
STARTCHAR 03BA
ENCODING 954
SWIDTH 525 0
DWIDTH 14 0
BBX 10 14 2 0
BITMAP
C1C0
C380
C300
C600
CC00
DC00
F800
FC00
EC00
C600
C700
C300
C180
C1C0
ENDCHAR
STARTCHAR 03BB
ENCODING 955
SWIDTH 525 0
DWIDTH 14 0
BBX 11 20 1 0
BITMAP
1800
1C00
0C00
0C00
0E00
0600
0E00
0E00
0F00
1B00
1B00
1980
1980
3180
31C0
30C0
70C0
60C0
6060
E060
ENDCHAR
STARTCHAR 03BC
ENCODING 956
SWIDTH 525 0
DWIDTH 14 0
BBX 11 20 2 -6
BITMAP
C0C0
C0C0
C0C0
C0C0
C0C0
C0C0
C0C0
C0C0
C0C0
C0C0
C1C0
E1C0
FEE0
FC60
C000
C000
C000
C000
C000
C000
ENDCHAR
STARTCHAR 03BD
ENCODING 957
SWIDTH 525 0
DWIDTH 14 0
BBX 11 14 1 0
BITMAP
C060
C060
6060
60E0
70C0
30C0
39C0
1980
1980
1F80
0F00
0F00
0E00
0E00
ENDCHAR
STARTCHAR 03BE
ENCODING 958
SWIDTH 525 0
DWIDTH 14 0
BBX 10 26 2 -6
BITMAP
FFC0
FFC0
3000
6000
E000
C000
C000
E000
6000
3800
1F00
3F00
7000
C000
C000
C000
C000
E000
7F00
3F80
01C0
00C0
00C0
01C0
0780
0700
ENDCHAR
STARTCHAR 03BF
ENCODING 959
SWIDTH 525 0
DWIDTH 14 0
BBX 10 14 2 0
BITMAP
3E00
7F80
E180
C0C0
C0C0
C0C0
C0C0
C0C0
C0C0
C0C0
C0C0
E180
7F80
3E00
ENDCHAR
STARTCHAR 03C0
ENCODING 960
SWIDTH 525 0
DWIDTH 14 0
BBX 11 14 1 0
BITMAP
FFE0
FFE0
30C0
30C0
30C0
30C0
30C0
30C0
30C0
30C0
30C0
30C0
30E0
30E0
ENDCHAR
STARTCHAR 03C1
ENCODING 961
SWIDTH 525 0
DWIDTH 14 0
BBX 10 20 2 -6
BITMAP
3E00
7F80
E180
C0C0
C0C0
C0C0
C0C0
C0C0
C0C0
C0C0
C0C0
E1C0
FF80
CF00
C000
C000
C000
C000
C000
C000
ENDCHAR
STARTCHAR 03C2
ENCODING 962
SWIDTH 525 0
DWIDTH 14 0
BBX 10 20 2 -6
BITMAP
3E00
7F80
E180
C1C0
C0C0
C000
C000
C000
C000
C000
C000
E000
7C00
3F00
0380
0180
01C0
0180
0780
0600
ENDCHAR
STARTCHAR 03C3
ENCODING 963
SWIDTH 525 0
DWIDTH 14 0
BBX 11 14 2 0
BITMAP
3FE0
7FE0
E180
C180
C0C0
C0C0
C0C0
C0C0
C0C0
C0C0
C1C0
E180
7F00
3E00
ENDCHAR
STARTCHAR 03C4
ENCODING 964
SWIDTH 525 0
DWIDTH 14 0
BBX 10 14 2 0
BITMAP
FFC0
FFC0
1800
1800
1800
1800
1800
1800
1800
1800
1800
0C00
0FC0
03C0
ENDCHAR
STARTCHAR 03C5
ENCODING 965
SWIDTH 525 0
DWIDTH 14 0
BBX 10 14 2 0
BITMAP
C180
C180
C1C0
C0C0
C0C0
C0C0
C0C0
C0C0
C0C0
C1C0
C180
E380
7F00
3E00
ENDCHAR
STARTCHAR 03C6
ENCODING 966
SWIDTH 525 0
DWIDTH 14 0
BBX 12 20 1 -6
BITMAP
63C0
67E0
6660
C660
C660
C630
C630
C630
C660
C660
6660
66E0
3FC0
1F80
0600
0600
0600
0600
0600
0600
ENDCHAR
STARTCHAR 03C7
ENCODING 967
SWIDTH 525 0
DWIDTH 14 0
BBX 11 20 1 -6
BITMAP
E060
60E0
70C0
31C0
3180
1980
1B00
0F00
0F00
0E00
0600
0E00
0F00
1B00
1980
3980
31C0
70C0
60E0
E060
ENDCHAR
STARTCHAR 03C8
ENCODING 968
SWIDTH 525 0
DWIDTH 14 0
BBX 11 26 1 -6
BITMAP
0600
0600
0600
0600
0600
0600
C660
C660
C660
C660
C660
C660
C660
C660
C660
C660
6660
66E0
7FC0
1F80
0600
0600
0600
0600
0600
0600
ENDCHAR
STARTCHAR 03C9
ENCODING 969
SWIDTH 525 0
DWIDTH 14 0
BBX 11 14 1 0
BITMAP
60C0
60E0
6060
4060
C060
C660
C660
C660
C660
C660
CE60
6E60
7BC0
31C0
ENDCHAR
STARTCHAR 03CA
ENCODING 970
SWIDTH 525 0
DWIDTH 14 0
BBX 10 19 2 0
BITMAP
6380
F380
6380
0000
0000
FC00
FC00
0C00
0C00
0C00
0C00
0C00
0C00
0C00
0C00
0C00
0E00
07C0
03C0
ENDCHAR
STARTCHAR 03CB
ENCODING 971
SWIDTH 525 0
DWIDTH 14 0
BBX 10 19 2 0
BITMAP
6380
F380
6380
0000
0000
C180
C180
C1C0
C0C0
C0C0
C0C0
C0C0
C0C0
C0C0
C1C0
C180
E380
7F00
3E00
ENDCHAR
STARTCHAR 03CC
ENCODING 972
SWIDTH 525 0
DWIDTH 14 0
BBX 10 20 2 0
BITMAP
0C00
0C00
0C00
0C00
0000
0000
3E00
7F80
E180
C0C0
C0C0
C0C0
C0C0
C0C0
C0C0
C0C0
C0C0
E180
7F80
3E00
ENDCHAR
STARTCHAR 03CD
ENCODING 973
SWIDTH 525 0
DWIDTH 14 0
BBX 10 20 2 0
BITMAP
0C00
0C00
0C00
0C00
0000
0000
C180
C180
C1C0
C0C0
C0C0
C0C0
C0C0
C0C0
C0C0
C1C0
C180
E380
7F00
3E00
ENDCHAR
STARTCHAR 03CE
ENCODING 974
SWIDTH 525 0
DWIDTH 14 0
BBX 11 20 1 0
BITMAP
0600
0600
0600
0600
0000
0000
60C0
60E0
6060
4060
C060
C660
C660
C660
C660
C660
CE60
6E60
7BC0
31C0
ENDCHAR
STARTCHAR 03CF
ENCODING 975
SWIDTH 525 0
DWIDTH 14 0
BBX 10 25 2 -5
BITMAP
C1C0
C180
C380
C300
C600
C600
CC00
DC00
D800
F800
F800
EC00
EC00
C600
C600
C300
C300
C180
C180
C0C0
01C0
0380
0700
1C00
0800
ENDCHAR
STARTCHAR 03D0
ENCODING 976
SWIDTH 525 0
DWIDTH 14 0
BBX 10 20 2 0
BITMAP
3E00
7F00
E180
C1C0
C0C0
C0C0
C0C0
C180
C380
CF00
CF00
C180
C0C0
C0C0
C0C0
C0C0
C0C0
E1C0
7F80
3F00
ENDCHAR
STARTCHAR 03D1
ENCODING 977
SWIDTH 525 0
DWIDTH 14 0
BBX 11 20 2 0
BITMAP
0F00
1F80
31C0
30C0
30C0
30C0
30C0
18C0
1CC0
0FE0
03E0
C0C0
C0C0
C0C0
C0C0
C0C0
C1C0
E180
7F80
3E00
ENDCHAR
STARTCHAR 03D2
ENCODING 978
SWIDTH 525 0
DWIDTH 14 0
BBX 13 20 0 0
BITMAP
E038
F078
3860
1860
18C0
18C0
0CC0
0D80
0D80
0780
0700
0700
0300
0300
0300
0300
0300
0300
0300
0300
ENDCHAR
STARTCHAR 03D3
ENCODING 979
SWIDTH 525 0
DWIDTH 14 0
BBX 16 22 -3 0
BITMAP
3000
6000
7C07
DE0F
C70C
030C
0318
0318
0198
01B0
01B0
00F0
00E0
00E0
0060
0060
0060
0060
0060
0060
0060
0060
ENDCHAR
STARTCHAR 03D4
ENCODING 980
SWIDTH 525 0
DWIDTH 14 0
BBX 13 25 0 0
BITMAP
18E0
3CE0
1CE0
0000
0000
E038
F078
3860
1860
18C0
18C0
0CC0
0D80
0D80
0780
0700
0700
0300
0300
0300
0300
0300
0300
0300
0300
ENDCHAR
STARTCHAR 03D5
ENCODING 981
SWIDTH 525 0
DWIDTH 14 0
BBX 11 26 1 -6
BITMAP
0600
0600
0600
0600
0600
0600
3F80
7FC0
66E0
C660
C660
C660
C660
C660
C660
C660
C660
66E0
7FC0
3F80
0600
0600
0600
0600
0600
0600
ENDCHAR
STARTCHAR 03D6
ENCODING 982
SWIDTH 525 0
DWIDTH 14 0
BBX 11 14 1 0
BITMAP
FFE0
FFE0
6060
C060
C060
C660
C660
C660
C660
C660
CE60
6E60
7BC0
31C0
ENDCHAR
STARTCHAR 03D7
ENCODING 983
SWIDTH 525 0
DWIDTH 14 0
BBX 11 20 1 -6
BITMAP
C060
E060
30C0
31C0
33C0
33C0
3680
3F80
3D80
3980
7180
70C0
E0E0
4060
0060
0060
0060
00E0
03C0
0380
ENDCHAR
STARTCHAR 03D8
ENCODING 984
SWIDTH 525 0
DWIDTH 14 0
BBX 10 20 2 0
BITMAP
3E00
7F80
E180
C1C0
C0C0
C0C0
C0C0
C0C0
C0C0
C0C0
C0C0
C0C0
C0C0
C0C0
C1C0
E180
7F00
1C00
0C00
0C00
ENDCHAR
STARTCHAR 03D9
ENCODING 985
SWIDTH 525 0
DWIDTH 14 0
BBX 10 20 2 -6
BITMAP
3E00
7F80
E180
C1C0
C0C0
C0C0
C0C0
C0C0
C0C0
C0C0
C0C0
C1C0
E180
7F00
1E00
0C00
0C00
0C00
0C00
0C00
ENDCHAR
STARTCHAR 03DA
ENCODING 986
SWIDTH 525 0
DWIDTH 14 0
BBX 10 20 2 0
BITMAP
3E00
7F80
E180
C1C0
C0C0
C000
C000
C000
C000
C000
C000
C000
C000
C000
C000
E000
7C00
1C00
0C00
0C00
ENDCHAR
STARTCHAR 03DB
ENCODING 987
SWIDTH 525 0
DWIDTH 14 0
BBX 10 21 2 -6
BITMAP
00C0
3FC0
7F80
E000
C000
C000
C000
C000
C000
C000
C000
C000
E000
7C00
3F00
0380
0180
01C0
0180
0780
0600
ENDCHAR
STARTCHAR 03DC
ENCODING 988
SWIDTH 525 0
DWIDTH 14 0
BBX 9 20 3 0
BITMAP
FF80
FF80
C000
C000
C000
C000
C000
C000
C000
FE00
FE00
C000
C000
C000
C000
C000
C000
C000
C000
C000
ENDCHAR
STARTCHAR 03DD
ENCODING 989
SWIDTH 525 0
DWIDTH 14 0
BBX 9 20 3 -6
BITMAP
FF80
FF80
C000
C000
C000
C000
FE00
FE00
C000
C000
C000
C000
C000
C000
C000
C000
C000
C000
C000
C000
ENDCHAR
STARTCHAR 03DE
ENCODING 990
SWIDTH 525 0
DWIDTH 14 0
BBX 11 20 1 0
BITMAP
1800
3800
3000
3000
3000
3000
6000
6000
6000
7FE0
FFE0
00E0
00C0
00C0
00C0
00C0
01C0
0180
0180
0180
ENDCHAR
STARTCHAR 03DF
ENCODING 991
SWIDTH 525 0
DWIDTH 14 0
BBX 10 20 2 0
BITMAP
C000
C000
C000
C000
C000
C000
C000
C040
C3C0
CFC0
FCC0
F0C0
80C0
00C0
00C0
00C0
00C0
00C0
00C0
00C0
ENDCHAR
STARTCHAR 03E0
ENCODING 992
SWIDTH 525 0
DWIDTH 14 0
BBX 10 20 2 0
BITMAP
0C00
0C00
1C00
1C00
1E00
1E00
3600
3600
3300
3300
2700
6700
6700
6780
6580
4D80
CD80
CD80
C8C0
D8C0
ENDCHAR
STARTCHAR 03E1
ENCODING 993
SWIDTH 525 0
DWIDTH 14 0
BBX 11 20 1 -6
BITMAP
E000
F800
3C00
0E00
0700
0700
1F80
7980
20C0
00C0
00C0
00E0
07E0
0F60
0460
0060
0060
0060
00E0
00C0
ENDCHAR
STARTCHAR 03F0
ENCODING 1008
SWIDTH 525 0
DWIDTH 14 0
BBX 11 14 1 0
BITMAP
C060
E060
30C0
31C0
33C0
33C0
3680
3F80
3D80
3980
7180
70C0
E0E0
4060
ENDCHAR
STARTCHAR 03F1
ENCODING 1009
SWIDTH 525 0
DWIDTH 14 0
BBX 10 20 2 -6
BITMAP
3E00
7F80
E180
C0C0
C0C0
C0C0
C0C0
C0C0
C0C0
C0C0
C0C0
E1C0
FF80
CF00
C000
C000
C000
E000
7FC0
3FC0
ENDCHAR
STARTCHAR 03F2
ENCODING 1010
SWIDTH 525 0
DWIDTH 14 0
BBX 10 14 2 0
BITMAP
3E00
7F80
E180
C1C0
C0C0
C000
C000
C000
C000
C0C0
C1C0
E180
7F80
3E00
ENDCHAR
STARTCHAR 03F3
ENCODING 1011
SWIDTH 525 0
DWIDTH 14 0
BBX 9 25 1 -6
BITMAP
0380
0380
0380
0000
0000
1F80
1F80
0380
0380
0380
0380
0380
0380
0380
0380
0380
0380
0380
0380
0380
0300
C300
C300
FE00
3C00
ENDCHAR
STARTCHAR 03F4
ENCODING 1012
SWIDTH 525 0
DWIDTH 14 0
BBX 10 20 2 0
BITMAP
3E00
7F80
E180
C1C0
C0C0
C0C0
C0C0
C0C0
C0C0
FFC0
FFC0
C0C0
C0C0
C0C0
C0C0
C0C0
C0C0
E180
7F80
3E00
ENDCHAR
STARTCHAR 03F5
ENCODING 1013
SWIDTH 525 0
DWIDTH 14 0
BBX 10 14 2 0
BITMAP
1FC0
3FC0
7000
E000
C000
C000
FF00
FF00
C000
C000
E000
7000
3FC0
1FC0
ENDCHAR
STARTCHAR 03F6
ENCODING 1014
SWIDTH 525 0
DWIDTH 14 0
BBX 10 14 2 0
BITMAP
FC00
FF00
0380
0180
01C0
00C0
3FC0
3FC0
00C0
01C0
0180
0380
FF00
FC00
ENDCHAR
STARTCHAR 03F7
ENCODING 1015
SWIDTH 525 0
DWIDTH 14 0
BBX 10 20 2 0
BITMAP
C000
C000
C000
FC00
FF00
C780
C180
C1C0
C0C0
C0C0
C0C0
C0C0
C0C0
C1C0
C180
C700
FE00
F800
C000
C000
ENDCHAR
STARTCHAR 03F8
ENCODING 1016
SWIDTH 525 0
DWIDTH 14 0
BBX 10 26 2 -6
BITMAP
C000
C000
C000
C000
C000
C000
CF00
DF80
E180
C0C0
C0C0
C0C0
C0C0
C0C0
C0C0
C0C0
C0C0
E1C0
FF80
CF00
C000
C000
C000
C000
C000
C000
ENDCHAR
STARTCHAR 03F9
ENCODING 1017
SWIDTH 525 0
DWIDTH 14 0
BBX 10 20 2 0
BITMAP
3E00
7F80
E180
C1C0
C0C0
C000
C000
C000
C000
C000
C000
C000
C000
C000
C000
C0C0
C1C0
E180
7F80
3E00
ENDCHAR
STARTCHAR 03FA
ENCODING 1018
SWIDTH 525 0
DWIDTH 14 0
BBX 11 20 1 0
BITMAP
E0E0
F0E0
F1E0
D1E0
D960
DB60
CF60
CE60
C660
C060
C060
C060
C060
C060
C060
C060
C060
C060
C060
C060
ENDCHAR
STARTCHAR 03FB
ENCODING 1019
SWIDTH 525 0
DWIDTH 14 0
BBX 11 20 1 -6
BITMAP
E0E0
F0E0
D1E0
DB60
CF60
CE60
C060
C060
C060
C060
C060
C060
C060
C060
C000
C000
C000
C000
C000
C000
ENDCHAR
STARTCHAR 03FC
ENCODING 1020
SWIDTH 525 0
DWIDTH 14 0
BBX 12 20 0 -6
BITMAP
0F80
1FE0
3860
3030
3030
3030
3030
3030
3030
3030
3030
3870
3FE0
33C0
3000
3000
FE00
FE00
3000
3000
ENDCHAR
STARTCHAR 03FD
ENCODING 1021
SWIDTH 525 0
DWIDTH 14 0
BBX 10 20 2 0
BITMAP
3E00
7F80
E180
C1C0
C0C0
00C0
00C0
00C0
00C0
00C0
00C0
00C0
00C0
00C0
00C0
C0C0
C0C0
E180
7F80
3E00
ENDCHAR
STARTCHAR 03FE
ENCODING 1022
SWIDTH 525 0
DWIDTH 14 0
BBX 10 20 2 0
BITMAP
3E00
7F80
E180
C1C0
C0C0
C000
C000
C000
C000
CC00
DC00
DC00
C000
C000
C000
C0C0
C1C0
E180
7F80
3E00
ENDCHAR
STARTCHAR 03FF
ENCODING 1023
SWIDTH 525 0
DWIDTH 14 0
BBX 10 20 2 0
BITMAP
3E00
7F80
E180
C1C0
C0C0
00C0
00C0
00C0
00C0
0CC0
1CC0
1CC0
00C0
00C0
00C0
C0C0
C0C0
E180
7F80
3E00
ENDCHAR
STARTCHAR 0400
ENCODING 1024
SWIDTH 525 0
DWIDTH 14 0
BBX 10 26 2 0
BITMAP
3000
3800
1C00
0C00
0400
0000
FFC0
FFC0
C000
C000
C000
C000
C000
C000
C000
FF00
FF00
C000
C000
C000
C000
C000
C000
C000
FFC0
FFC0
ENDCHAR
STARTCHAR 0401
ENCODING 1025
SWIDTH 525 0
DWIDTH 14 0
BBX 10 25 2 0
BITMAP
6380
F380
7380
0000
0000
FFC0
FFC0
C000
C000
C000
C000
C000
C000
C000
FF00
FF00
C000
C000
C000
C000
C000
C000
C000
FFC0
FFC0
ENDCHAR
STARTCHAR 0402
ENCODING 1026
SWIDTH 525 0
DWIDTH 14 0
BBX 12 20 0 0
BITMAP
FF80
FF80
0C00
0C00
0C00
0C00
0DC0
0FE0
0C70
0C30
0C30
0C30
0C30
0C30
0C30
0C30
0C30
0C70
0CE0
0CC0
ENDCHAR
STARTCHAR 0403
ENCODING 1027
SWIDTH 525 0
DWIDTH 14 0
BBX 9 26 3 0
BITMAP
0600
0C00
1800
3000
1000
0000
FF80
FF80
C000
C000
C000
C000
C000
C000
C000
C000
C000
C000
C000
C000
C000
C000
C000
C000
C000
C000
ENDCHAR
STARTCHAR 0404
ENCODING 1028
SWIDTH 525 0
DWIDTH 14 0
BBX 10 20 2 0
BITMAP
3E00
7F80
E180
C1C0
C0C0
C000
C000
C000
C000
FC00
FC00
C000
C000
C000
C000
C0C0
C1C0
E180
7F80
3E00
ENDCHAR
STARTCHAR 0405
ENCODING 1029
SWIDTH 525 0
DWIDTH 14 0
BBX 11 20 1 0
BITMAP
1F00
3FC0
70C0
60E0
6060
6000
6000
7000
3800
1E00
0F80
03C0
00C0
0060
0060
E060
6060
70C0
3FC0
1F00
ENDCHAR
STARTCHAR 0406
ENCODING 1030
SWIDTH 525 0
DWIDTH 14 0
BBX 9 20 2 0
BITMAP
FF80
FF80
0C00
0C00
0C00
0C00
0C00
0C00
0C00
0C00
0C00
0C00
0C00
0C00
0C00
0C00
0C00
0C00
FF80
FF80
ENDCHAR
STARTCHAR 0407
ENCODING 1031
SWIDTH 525 0
DWIDTH 14 0
BBX 9 25 2 0
BITMAP
6380
F380
7380
0000
0000
FF80
FF80
0C00
0C00
0C00
0C00
0C00
0C00
0C00
0C00
0C00
0C00
0C00
0C00
0C00
0C00
0C00
0C00
FF80
FF80
ENDCHAR
STARTCHAR 0408
ENCODING 1032
SWIDTH 525 0
DWIDTH 14 0
BBX 10 20 1 0
BITMAP
0FC0
0FC0
00C0
00C0
00C0
00C0
00C0
00C0
00C0
00C0
00C0
00C0
00C0
00C0
00C0
C0C0
E0C0
61C0
7F80
1F00
ENDCHAR
STARTCHAR 0409
ENCODING 1033
SWIDTH 525 0
DWIDTH 14 0
BBX 13 20 0 0
BITMAP
3F00
3F00
3300
3300
3300
3300
3300
3300
33C0
33E0
3330
3330
3330
3318
3318
6310
6330
6330
E3E0
C3C0
ENDCHAR
STARTCHAR 040A
ENCODING 1034
SWIDTH 525 0
DWIDTH 14 0
BBX 12 20 1 0
BITMAP
C600
C600
C600
C600
C600
C600
C600
C600
C780
FFC0
FE60
C660
C660
C630
C630
C620
C660
C660
C7C0
C780
ENDCHAR
STARTCHAR 040B
ENCODING 1035
SWIDTH 525 0
DWIDTH 14 0
BBX 12 20 0 0
BITMAP
FF80
FF80
0C00
0C00
0C00
0C00
0DC0
0FE0
0C70
0C30
0C30
0C30
0C30
0C30
0C30
0C30
0C30
0C30
0C30
0C30
ENDCHAR
STARTCHAR 040C
ENCODING 1036
SWIDTH 525 0
DWIDTH 14 0
BBX 10 26 2 0
BITMAP
0300
0600
0C00
1800
0800
0000
C0C0
C180
C180
C300
C300
C600
C600
CC00
CC00
FC00
F800
CC00
CC00
C600
C600
C300
C300
C180
C180
C0C0
ENDCHAR
STARTCHAR 040D
ENCODING 1037
SWIDTH 525 0
DWIDTH 14 0
BBX 10 26 2 0
BITMAP
3000
3800
1C00
0C00
0400
0000
C1C0
C1C0
C3C0
C3C0
C3C0
C6C0
C6C0
C6C0
CCC0
CCC0
CCC0
D8C0
D8C0
D8C0
F0C0
F0C0
E0C0
E0C0
E0C0
C0C0
ENDCHAR
STARTCHAR 040E
ENCODING 1038
SWIDTH 525 0
DWIDTH 14 0
BBX 11 25 1 0
BITMAP
30C0
3FC0
1F00
0000
0000
E060
6060
60C0
70C0
30C0
31C0
3180
1980
1980
1B00
1B00
0F00
0E00
0E00
0600
0E00
0C00
0C00
0C00
1800
ENDCHAR
STARTCHAR 040F
ENCODING 1039
SWIDTH 525 0
DWIDTH 14 0
BBX 10 24 2 -4
BITMAP
C0C0
C0C0
C0C0
C0C0
C0C0
C0C0
C0C0
C0C0
C0C0
C0C0
C0C0
C0C0
C0C0
C0C0
C0C0
C0C0
C0C0
C0C0
FFC0
FFC0
0C00
0C00
0C00
0C00
ENDCHAR
STARTCHAR 0410
ENCODING 1040
SWIDTH 525 0
DWIDTH 14 0
BBX 11 20 1 0
BITMAP
0E00
0E00
0F00
0F00
0F00
1B00
1B00
1980
1980
3980
3180
3180
30C0
3FC0
7FC0
60C0
60E0
6060
E060
C060
ENDCHAR
STARTCHAR 0411
ENCODING 1041
SWIDTH 525 0
DWIDTH 14 0
BBX 10 20 2 0
BITMAP
FF80
FF80
C000
C000
C000
C000
C000
C000
FE00
FF00
C380
C1C0
C0C0
C0C0
C0C0
C0C0
C1C0
C180
FF80
FE00
ENDCHAR
STARTCHAR 0412
ENCODING 1042
SWIDTH 525 0
DWIDTH 14 0
BBX 10 20 2 0
BITMAP
FE00
FF00
C380
C180
C180
C1C0
C180
C180
C380
FF00
FF00
C180
C0C0
C0C0
C0C0
C0C0
C0C0
C1C0
FF80
FE00
ENDCHAR
STARTCHAR 0413
ENCODING 1043
SWIDTH 525 0
DWIDTH 14 0
BBX 9 20 3 0
BITMAP
FF80
FF80
C000
C000
C000
C000
C000
C000
C000
C000
C000
C000
C000
C000
C000
C000
C000
C000
C000
C000
ENDCHAR
STARTCHAR 0414
ENCODING 1044
SWIDTH 525 0
DWIDTH 14 0
BBX 12 24 1 -4
BITMAP
3FC0
3FC0
30C0
30C0
30C0
30C0
30C0
30C0
30C0
30C0
30C0
30C0
30C0
30C0
30C0
60C0
60C0
60C0
FFF0
FFF0
C070
C070
C070
C070
ENDCHAR
STARTCHAR 0415
ENCODING 1045
SWIDTH 525 0
DWIDTH 14 0
BBX 10 20 2 0
BITMAP
FFC0
FFC0
C000
C000
C000
C000
C000
C000
C000
FF00
FF00
C000
C000
C000
C000
C000
C000
C000
FFC0
FFC0
ENDCHAR
STARTCHAR 0416
ENCODING 1046
SWIDTH 525 0
DWIDTH 14 0
BBX 12 20 1 0
BITMAP
C630
C660
C660
6660
6660
66C0
66C0
36C0
36C0
3F80
3F80
36C0
36C0
66C0
66C0
6660
6660
C660
C660
C630
ENDCHAR
STARTCHAR 0417
ENCODING 1047
SWIDTH 525 0
DWIDTH 14 0
BBX 11 20 1 0
BITMAP
1F00
3FC0
70C0
60E0
6060
0060
0060
00C0
01C0
0F80
0F80
00C0
0060
0060
0060
E060
6060
70E0
3FC0
1F00
ENDCHAR
STARTCHAR 0418
ENCODING 1048
SWIDTH 525 0
DWIDTH 14 0
BBX 10 20 2 0
BITMAP
C1C0
C1C0
C3C0
C3C0
C3C0
C6C0
C6C0
C6C0
CCC0
CCC0
CCC0
D8C0
D8C0
D8C0
F0C0
F0C0
E0C0
E0C0
E0C0
C0C0
ENDCHAR
STARTCHAR 0419
ENCODING 1049
SWIDTH 525 0
DWIDTH 14 0
BBX 10 25 2 0
BITMAP
6180
7F80
3E00
0000
0000
C1C0
C1C0
C3C0
C3C0
C3C0
C6C0
C6C0
C6C0
CCC0
CCC0
CCC0
D8C0
D8C0
D8C0
F0C0
F0C0
E0C0
E0C0
E0C0
C0C0
ENDCHAR
STARTCHAR 041A
ENCODING 1050
SWIDTH 525 0
DWIDTH 14 0
BBX 10 20 2 0
BITMAP
C0C0
C180
C180
C300
C300
C600
C600
CC00
CC00
FC00
F800
CC00
CC00
C600
C600
C300
C300
C180
C180
C0C0
ENDCHAR
STARTCHAR 041B
ENCODING 1051
SWIDTH 525 0
DWIDTH 14 0
BBX 12 20 0 0
BITMAP
3FF0
3FF0
3830
3830
3830
3830
3830
3830
3830
3830
3830
3830
3830
3830
3030
3030
3030
3030
E030
C030
ENDCHAR
STARTCHAR 041C
ENCODING 1052
SWIDTH 525 0
DWIDTH 14 0
BBX 11 20 1 0
BITMAP
E0E0
E0E0
F0E0
F0E0
F1E0
D1E0
D9E0
D960
DB60
CB60
CF60
CE60
C660
C660
C060
C060
C060
C060
C060
C060
ENDCHAR
STARTCHAR 041D
ENCODING 1053
SWIDTH 525 0
DWIDTH 14 0
BBX 10 20 2 0
BITMAP
C0C0
C0C0
C0C0
C0C0
C0C0
C0C0
C0C0
C0C0
C0C0
FFC0
FFC0
C0C0
C0C0
C0C0
C0C0
C0C0
C0C0
C0C0
C0C0
C0C0
ENDCHAR
STARTCHAR 041E
ENCODING 1054
SWIDTH 525 0
DWIDTH 14 0
BBX 10 20 2 0
BITMAP
3E00
7F80
E180
C1C0
C0C0
C0C0
C0C0
C0C0
C0C0
C0C0
C0C0
C0C0
C0C0
C0C0
C0C0
C0C0
C0C0
E180
7F80
3E00
ENDCHAR
STARTCHAR 041F
ENCODING 1055
SWIDTH 525 0
DWIDTH 14 0
BBX 10 20 2 0
BITMAP
FFC0
FFC0
C0C0
C0C0
C0C0
C0C0
C0C0
C0C0
C0C0
C0C0
C0C0
C0C0
C0C0
C0C0
C0C0
C0C0
C0C0
C0C0
C0C0
C0C0
ENDCHAR
STARTCHAR 0420
ENCODING 1056
SWIDTH 525 0
DWIDTH 14 0
BBX 10 20 2 0
BITMAP
FE00
FF80
C180
C0C0
C0C0
C0C0
C0C0
C0C0
C0C0
C180
FF80
FE00
C000
C000
C000
C000
C000
C000
C000
C000
ENDCHAR
STARTCHAR 0421
ENCODING 1057
SWIDTH 525 0
DWIDTH 14 0
BBX 10 20 2 0
BITMAP
3E00
7F80
E180
C1C0
C0C0
C000
C000
C000
C000
C000
C000
C000
C000
C000
C000
C0C0
C1C0
E180
7F80
3E00
ENDCHAR
STARTCHAR 0422
ENCODING 1058
SWIDTH 525 0
DWIDTH 14 0
BBX 10 20 2 0
BITMAP
FFC0
FFC0
0C00
0C00
0C00
0C00
0C00
0C00
0C00
0C00
0C00
0C00
0C00
0C00
0C00
0C00
0C00
0C00
0C00
0C00
ENDCHAR
STARTCHAR 0423
ENCODING 1059
SWIDTH 525 0
DWIDTH 14 0
BBX 11 20 1 0
BITMAP
E060
6060
60C0
70C0
30C0
31C0
3180
1980
1980
1B00
1B00
0F00
0E00
0E00
0600
0E00
0C00
0C00
0C00
1800
ENDCHAR
STARTCHAR 0424
ENCODING 1060
SWIDTH 525 0
DWIDTH 14 0
BBX 11 20 1 0
BITMAP
0600
0600
0600
3F80
7FC0
6660
C660
C660
C660
C660
C660
C660
C660
C660
C660
66E0
7FC0
1F80
0600
0600
ENDCHAR
STARTCHAR 0425
ENCODING 1061
SWIDTH 525 0
DWIDTH 14 0
BBX 11 20 1 0
BITMAP
E060
60E0
70C0
31C0
3180
1980
1B00
0F00
0F00
0E00
0600
0E00
0F00
1B00
1980
3980
31C0
70C0
60E0
E060
ENDCHAR
STARTCHAR 0426
ENCODING 1062
SWIDTH 525 0
DWIDTH 14 0
BBX 11 24 2 -4
BITMAP
C0C0
C0C0
C0C0
C0C0
C0C0
C0C0
C0C0
C0C0
C0C0
C0C0
C0C0
C0C0
C0C0
C0C0
C0C0
C0C0
C0C0
C0C0
FFE0
FFE0
0060
0060
0060
0060
ENDCHAR
STARTCHAR 0427
ENCODING 1063
SWIDTH 525 0
DWIDTH 14 0
BBX 10 20 2 0
BITMAP
C0C0
C0C0
C0C0
C0C0
C0C0
C0C0
C0C0
C0C0
C0C0
C0C0
C0C0
E1C0
7FC0
3FC0
00C0
00C0
00C0
00C0
00C0
00C0
ENDCHAR
STARTCHAR 0428
ENCODING 1064
SWIDTH 525 0
DWIDTH 14 0
BBX 11 20 1 0
BITMAP
C660
C660
C660
C660
C660
C660
C660
C660
C660
C660
C660
C660
C660
C660
C660
C660
C660
C660
FFE0
FFE0
ENDCHAR
STARTCHAR 0429
ENCODING 1065
SWIDTH 525 0
DWIDTH 14 0
BBX 12 24 1 -4
BITMAP
C660
C660
C660
C660
C660
C660
C660
C660
C660
C660
C660
C660
C660
C660
C660
C660
C660
C660
FFF0
FFF0
0010
0010
0010
0010
ENDCHAR
STARTCHAR 042A
ENCODING 1066
SWIDTH 525 0
DWIDTH 14 0
BBX 11 20 1 0
BITMAP
F000
F000
3000
3000
3000
3000
3000
3000
3F00
3FC0
30C0
30E0
3060
3060
3060
3060
30E0
30C0
3FC0
3F80
ENDCHAR
STARTCHAR 042B
ENCODING 1067
SWIDTH 525 0
DWIDTH 14 0
BBX 11 20 1 0
BITMAP
C060
C060
C060
C060
C060
C060
C060
C060
F860
FC60
CE60
C660
C660
C360
C360
C260
C660
C660
FC60
F860
ENDCHAR
STARTCHAR 042C
ENCODING 1068
SWIDTH 525 0
DWIDTH 14 0
BBX 10 20 2 0
BITMAP
C000
C000
C000
C000
C000
C000
C000
C000
FE00
FF00
C380
C1C0
C0C0
C0C0
C0C0
C0C0
C1C0
C180
FF80
FE00
ENDCHAR
STARTCHAR 042D
ENCODING 1069
SWIDTH 525 0
DWIDTH 14 0
BBX 10 20 2 0
BITMAP
3E00
7F80
E180
C1C0
C0C0
00C0
00C0
00C0
00C0
1FC0
1FC0
00C0
00C0
00C0
00C0
C0C0
C0C0
E180
7F80
3E00
ENDCHAR
STARTCHAR 042E
ENCODING 1070
SWIDTH 525 0
DWIDTH 14 0
BBX 11 20 1 0
BITMAP
C3C0
C7E0
CC60
CC60
CC60
CC60
CC60
CC60
CC60
FC60
FC60
CC60
CC60
CC60
CC60
CC60
CC60
CC60
C7E0
C3C0
ENDCHAR
STARTCHAR 042F
ENCODING 1071
SWIDTH 525 0
DWIDTH 14 0
BBX 11 20 1 0
BITMAP
1FE0
3FE0
7060
6060
6060
6060
6060
6060
6060
7060
3FE0
1FE0
0C60
1C60
1860
3860
3060
7060
6060
E060
ENDCHAR
STARTCHAR 0430
ENCODING 1072
SWIDTH 525 0
DWIDTH 14 0
BBX 10 14 2 0
BITMAP
3E00
7F80
E180
C1C0
00C0
00C0
3FC0
7FC0
C0C0
C0C0
C1C0
C1C0
FEC0
7CC0
ENDCHAR
STARTCHAR 0431
ENCODING 1073
SWIDTH 525 0
DWIDTH 14 0
BBX 11 20 1 0
BITMAP
0060
0FE0
3F80
3000
6000
6000
6F80
DFC0
F0C0
E060
E060
6060
6060
6060
6060
6060
6060
70C0
3FC0
1F00
ENDCHAR
STARTCHAR 0432
ENCODING 1074
SWIDTH 525 0
DWIDTH 14 0
BBX 10 14 2 0
BITMAP
FE00
FF80
C180
C1C0
C180
C180
FF00
FF80
C1C0
C0C0
C0C0
C1C0
FF80
FF00
ENDCHAR
STARTCHAR 0433
ENCODING 1075
SWIDTH 525 0
DWIDTH 14 0
BBX 9 14 3 0
BITMAP
FF80
FF80
C000
C000
C000
C000
C000
C000
C000
C000
C000
C000
C000
C000
ENDCHAR
STARTCHAR 0434
ENCODING 1076
SWIDTH 525 0
DWIDTH 14 0
BBX 12 18 1 -4
BITMAP
3FC0
3FC0
30C0
30C0
30C0
30C0
30C0
30C0
30C0
30C0
60C0
60C0
FFF0
FFF0
C070
C070
C070
C070
ENDCHAR
STARTCHAR 0435
ENCODING 1077
SWIDTH 525 0
DWIDTH 14 0
BBX 10 14 2 0
BITMAP
3E00
7F80
E180
C0C0
C0C0
C0C0
FFC0
FFC0
C000
C000
C0C0
E1C0
7F80
3E00
ENDCHAR
STARTCHAR 0436
ENCODING 1078
SWIDTH 525 0
DWIDTH 14 0
BBX 12 14 1 0
BITMAP
C630
C660
6660
6660
66C0
36C0
3FC0
3F80
36C0
66C0
6660
6660
C660
C630
ENDCHAR
STARTCHAR 0437
ENCODING 1079
SWIDTH 525 0
DWIDTH 14 0
BBX 11 14 1 0
BITMAP
1F80
3FC0
70E0
6060
0060
00C0
0FC0
0FC0
00E0
0060
E060
60E0
7FC0
1F80
ENDCHAR
STARTCHAR 0438
ENCODING 1080
SWIDTH 525 0
DWIDTH 14 0
BBX 10 14 2 0
BITMAP
C1C0
C3C0
C3C0
C7C0
C6C0
CEC0
CCC0
CCC0
D8C0
D8C0
F0C0
F0C0
E0C0
E0C0
ENDCHAR
STARTCHAR 0439
ENCODING 1081
SWIDTH 525 0
DWIDTH 14 0
BBX 10 20 2 0
BITMAP
4180
6180
7F00
3E00
0000
0000
C1C0
C3C0
C3C0
C7C0
C6C0
CEC0
CCC0
CCC0
D8C0
D8C0
F0C0
F0C0
E0C0
E0C0
ENDCHAR
STARTCHAR 043A
ENCODING 1082
SWIDTH 525 0
DWIDTH 14 0
BBX 10 14 2 0
BITMAP
C1C0
C180
C300
C700
C600
CC00
FC00
FC00
CC00
C600
C700
C300
C180
C1C0
ENDCHAR
STARTCHAR 043B
ENCODING 1083
SWIDTH 525 0
DWIDTH 14 0
BBX 12 14 0 0
BITMAP
3FF0
3FF0
3830
3830
3830
3830
3830
3830
3830
3030
3030
3030
F030
E030
ENDCHAR
STARTCHAR 043C
ENCODING 1084
SWIDTH 525 0
DWIDTH 14 0
BBX 11 14 1 0
BITMAP
F0E0
F0E0
F0E0
F1E0
D1E0
D9E0
D960
DB60
CB60
CF60
CE60
CE60
C660
C660
ENDCHAR
STARTCHAR 043D
ENCODING 1085
SWIDTH 525 0
DWIDTH 14 0
BBX 10 14 2 0
BITMAP
C0C0
C0C0
C0C0
C0C0
C0C0
C0C0
FFC0
FFC0
C0C0
C0C0
C0C0
C0C0
C0C0
C0C0
ENDCHAR
STARTCHAR 043E
ENCODING 1086
SWIDTH 525 0
DWIDTH 14 0
BBX 10 14 2 0
BITMAP
3E00
7F80
E180
C0C0
C0C0
C0C0
C0C0
C0C0
C0C0
C0C0
C0C0
E180
7F80
3E00
ENDCHAR
STARTCHAR 043F
ENCODING 1087
SWIDTH 525 0
DWIDTH 14 0
BBX 10 14 2 0
BITMAP
FFC0
FFC0
C0C0
C0C0
C0C0
C0C0
C0C0
C0C0
C0C0
C0C0
C0C0
C0C0
C0C0
C0C0
ENDCHAR
STARTCHAR 0440
ENCODING 1088
SWIDTH 525 0
DWIDTH 14 0
BBX 10 20 2 -6
BITMAP
CF00
DF80
E180
C0C0
C0C0
C0C0
C0C0
C0C0
C0C0
C0C0
C0C0
E1C0
FF80
CF00
C000
C000
C000
C000
C000
C000
ENDCHAR
STARTCHAR 0441
ENCODING 1089
SWIDTH 525 0
DWIDTH 14 0
BBX 10 14 2 0
BITMAP
3E00
7F80
E180
C1C0
C0C0
C000
C000
C000
C000
C0C0
C1C0
E180
7F80
3E00
ENDCHAR
STARTCHAR 0442
ENCODING 1090
SWIDTH 525 0
DWIDTH 14 0
BBX 10 14 2 0
BITMAP
FFC0
FFC0
0C00
0C00
0C00
0C00
0C00
0C00
0C00
0C00
0C00
0C00
0C00
0C00
ENDCHAR
STARTCHAR 0443
ENCODING 1091
SWIDTH 525 0
DWIDTH 14 0
BBX 11 20 1 -6
BITMAP
E060
6060
60C0
70C0
30C0
31C0
3180
1980
1980
1B00
1B00
0F00
0E00
0E00
0600
0E00
0C00
0C00
0C00
1800
ENDCHAR
STARTCHAR 0444
ENCODING 1092
SWIDTH 525 0
DWIDTH 14 0
BBX 11 26 1 -6
BITMAP
0600
0600
0600
0600
0600
0600
3F80
7FC0
6660
C660
C660
C660
C660
C660
C660
C660
C660
6660
7FC0
3F80
0600
0600
0600
0600
0600
0600
ENDCHAR
STARTCHAR 0445
ENCODING 1093
SWIDTH 525 0
DWIDTH 14 0
BBX 11 14 1 0
BITMAP
E0E0
70C0
31C0
1980
1B00
0F00
0E00
0E00
0F00
1B00
1980
31C0
70C0
E0E0
ENDCHAR
STARTCHAR 0446
ENCODING 1094
SWIDTH 525 0
DWIDTH 14 0
BBX 11 18 2 -4
BITMAP
C0C0
C0C0
C0C0
C0C0
C0C0
C0C0
C0C0
C0C0
C0C0
C0C0
C0C0
C0C0
FFE0
FFE0
0060
0060
0060
0060
ENDCHAR
STARTCHAR 0447
ENCODING 1095
SWIDTH 525 0
DWIDTH 14 0
BBX 10 14 2 0
BITMAP
C0C0
C0C0
C0C0
C0C0
C0C0
C0C0
C0C0
E1C0
7FC0
1EC0
00C0
00C0
00C0
00C0
ENDCHAR
STARTCHAR 0448
ENCODING 1096
SWIDTH 525 0
DWIDTH 14 0
BBX 11 14 1 0
BITMAP
C660
C660
C660
C660
C660
C660
C660
C660
C660
C660
C660
C660
FFE0
FFE0
ENDCHAR
STARTCHAR 0449
ENCODING 1097
SWIDTH 525 0
DWIDTH 14 0
BBX 12 18 1 -4
BITMAP
C660
C660
C660
C660
C660
C660
C660
C660
C660
C660
C660
C660
FFF0
FFF0
0010
0010
0010
0010
ENDCHAR
STARTCHAR 044A
ENCODING 1098
SWIDTH 525 0
DWIDTH 14 0
BBX 11 14 1 0
BITMAP
F000
F000
3000
3000
3000
3F80
3FC0
30E0
3060
3060
3060
30E0
3FC0
3F80
ENDCHAR
STARTCHAR 044B
ENCODING 1099
SWIDTH 525 0
DWIDTH 14 0
BBX 11 14 1 0
BITMAP
C060
C060
C060
C060
C060
F860
FE60
C660
C660
C360
C260
C660
FE60
FC60
ENDCHAR
STARTCHAR 044C
ENCODING 1100
SWIDTH 525 0
DWIDTH 14 0
BBX 10 14 2 0
BITMAP
C000
C000
C000
C000
C000
FF00
FF80
C1C0
C0C0
C0C0
C0C0
C1C0
FF80
FF00
ENDCHAR
STARTCHAR 044D
ENCODING 1101
SWIDTH 525 0
DWIDTH 14 0
BBX 10 14 2 0
BITMAP
3E00
7F80
E180
C0C0
C0C0
00C0
1FC0
1FC0
00C0
C0C0
C1C0
E180
7F80
3E00
ENDCHAR
STARTCHAR 044E
ENCODING 1102
SWIDTH 525 0
DWIDTH 14 0
BBX 11 14 1 0
BITMAP
C3C0
C7E0
CC60
CC60
CC60
CC60
FC60
FC60
CC60
CC60
CC60
CC60
C7E0
C3C0
ENDCHAR
STARTCHAR 044F
ENCODING 1103
SWIDTH 525 0
DWIDTH 14 0
BBX 11 14 1 0
BITMAP
1FE0
7FE0
6060
6060
6060
6060
6060
7FE0
1FE0
1C60
1860
3060
7060
E060
ENDCHAR
STARTCHAR 0450
ENCODING 1104
SWIDTH 525 0
DWIDTH 14 0
BBX 10 21 2 0
BITMAP
1000
3000
3800
1C00
0C00
0000
0000
3E00
7F80
E180
C0C0
C0C0
C0C0
FFC0
FFC0
C000
C000
C0C0
E1C0
7F80
3E00
ENDCHAR
STARTCHAR 0451
ENCODING 1105
SWIDTH 525 0
DWIDTH 14 0
BBX 10 19 2 0
BITMAP
6380
F380
6380
0000
0000
3E00
7F80
E180
C0C0
C0C0
C0C0
FFC0
FFC0
C000
C000
C0C0
E1C0
7F80
3E00
ENDCHAR
STARTCHAR 0452
ENCODING 1106
SWIDTH 525 0
DWIDTH 14 0
BBX 11 26 1 -6
BITMAP
6000
6000
6000
FC00
FC00
6000
6780
6FC0
70C0
60E0
6060
6060
6060
6060
6060
6060
6060
6060
6060
6060
0060
0060
00E0
00C0
07C0
0700
ENDCHAR
STARTCHAR 0453
ENCODING 1107
SWIDTH 525 0
DWIDTH 14 0
BBX 9 21 3 0
BITMAP
0400
0E00
0C00
1800
3000
0000
0000
FF80
FF80
C000
C000
C000
C000
C000
C000
C000
C000
C000
C000
C000
C000
ENDCHAR
STARTCHAR 0454
ENCODING 1108
SWIDTH 525 0
DWIDTH 14 0
BBX 10 14 2 0
BITMAP
3E00
7F80
E180
C1C0
C0C0
C000
FC00
FC00
C000
C0C0
C1C0
E180
7F80
3E00
ENDCHAR
STARTCHAR 0455
ENCODING 1109
SWIDTH 525 0
DWIDTH 14 0
BBX 10 14 2 0
BITMAP
3E00
7F80
E180
C1C0
C000
7000
7E00
1F00
0380
01C0
C0C0
C1C0
FF80
3F00
ENDCHAR
STARTCHAR 0456
ENCODING 1110
SWIDTH 525 0
DWIDTH 14 0
BBX 9 19 2 0
BITMAP
0C00
1E00
0C00
0000
0000
FC00
FC00
0C00
0C00
0C00
0C00
0C00
0C00
0C00
0C00
0C00
0C00
FF80
FF80
ENDCHAR
STARTCHAR 0457
ENCODING 1111
SWIDTH 525 0
DWIDTH 14 0
BBX 9 19 2 0
BITMAP
6380
F380
6380
0000
0000
FC00
FC00
0C00
0C00
0C00
0C00
0C00
0C00
0C00
0C00
0C00
0C00
FF80
FF80
ENDCHAR
STARTCHAR 0458
ENCODING 1112
SWIDTH 525 0
DWIDTH 14 0
BBX 9 25 1 -6
BITMAP
0380
0380
0380
0000
0000
1F80
1F80
0380
0380
0380
0380
0380
0380
0380
0380
0380
0380
0380
0380
0380
0300
C300
C300
FE00
3C00
ENDCHAR
STARTCHAR 0459
ENCODING 1113
SWIDTH 525 0
DWIDTH 14 0
BBX 13 14 0 0
BITMAP
3F00
3F00
3300
3300
3300
33E0
33F0
3330
3330
3318
6310
6330
E3F0
C3E0
ENDCHAR
STARTCHAR 045A
ENCODING 1114
SWIDTH 525 0
DWIDTH 14 0
BBX 12 14 1 0
BITMAP
C600
C600
C600
C600
C600
C780
FFE0
FE60
C660
C630
C620
C660
C7E0
C7C0
ENDCHAR
STARTCHAR 045B
ENCODING 1115
SWIDTH 525 0
DWIDTH 14 0
BBX 11 20 1 0
BITMAP
6000
6000
6000
FC00
FC00
6000
6780
6FC0
70C0
60E0
6060
6060
6060
6060
6060
6060
6060
6060
6060
6060
ENDCHAR
STARTCHAR 045C
ENCODING 1116
SWIDTH 525 0
DWIDTH 14 0
BBX 10 21 2 0
BITMAP
0200
0700
0600
0C00
1800
0000
0000
C1C0
C180
C300
C700
C600
CC00
FC00
FC00
CC00
C600
C700
C300
C180
C1C0
ENDCHAR
STARTCHAR 045D
ENCODING 1117
SWIDTH 525 0
DWIDTH 14 0
BBX 10 21 2 0
BITMAP
1000
3000
3800
1C00
0C00
0000
0000
C1C0
C3C0
C3C0
C7C0
C6C0
CEC0
CCC0
CCC0
D8C0
D8C0
F0C0
F0C0
E0C0
E0C0
ENDCHAR
STARTCHAR 045E
ENCODING 1118
SWIDTH 525 0
DWIDTH 14 0
BBX 11 26 1 -6
BITMAP
20C0
30C0
3F80
1F00
0000
0000
E060
6060
60C0
70C0
30C0
31C0
3180
1980
1980
1B00
1B00
0F00
0E00
0E00
0600
0E00
0C00
0C00
0C00
1800
ENDCHAR
STARTCHAR 045F
ENCODING 1119
SWIDTH 525 0
DWIDTH 14 0
BBX 10 18 2 -4
BITMAP
C0C0
C0C0
C0C0
C0C0
C0C0
C0C0
C0C0
C0C0
C0C0
C0C0
C0C0
C0C0
FFC0
FFC0
0C00
0C00
0C00
0C00
ENDCHAR
STARTCHAR 0460
ENCODING 1120
SWIDTH 525 0
DWIDTH 14 0
BBX 11 20 1 0
BITMAP
C460
C460
C460
C660
4660
6E60
6E60
6E60
6E60
6E60
6E40
6EC0
6AC0
2BC0
2BC0
3BC0
3BC0
3980
3980
3180
ENDCHAR
STARTCHAR 0461
ENCODING 1121
SWIDTH 525 0
DWIDTH 14 0
BBX 11 14 1 0
BITMAP
C460
C460
C660
4660
6E60
6E60
6E60
6E40
6AC0
2BC0
3BC0
3BC0
3980
3980
ENDCHAR
STARTCHAR 0462
ENCODING 1122
SWIDTH 525 0
DWIDTH 14 0
BBX 11 20 1 0
BITMAP
1800
1800
1800
1800
FF00
FF00
1800
1800
1800
1F80
1FC0
18E0
1860
1860
1860
1860
1860
18E0
1FC0
1F80
ENDCHAR
STARTCHAR 0463
ENCODING 1123
SWIDTH 525 0
DWIDTH 14 0
BBX 11 20 1 0
BITMAP
1800
1800
1800
1800
1800
FF00
FF00
1800
1800
1800
1800
1F80
1FE0
1860
1860
1860
1860
1860
1FE0
1FC0
ENDCHAR
STARTCHAR 0464
ENCODING 1124
SWIDTH 525 0
DWIDTH 14 0
BBX 11 20 1 0
BITMAP
C380
C7C0
CCE0
CC60
CC60
CC00
CC00
CC00
CC00
FF00
FF00
CC00
CC00
CC00
CC00
CC60
CC60
CC60
C7C0
C380
ENDCHAR
STARTCHAR 0465
ENCODING 1125
SWIDTH 525 0
DWIDTH 14 0
BBX 11 14 1 0
BITMAP
C380
C7C0
CC60
CC60
CC60
CC00
FF00
FF00
CC00
CC60
CC60
CC60
C7C0
C380
ENDCHAR
STARTCHAR 0466
ENCODING 1126
SWIDTH 525 0
DWIDTH 14 0
BBX 12 20 1 0
BITMAP
0600
0E00
0E00
0F00
0B00
1B00
1900
1980
1980
3180
3F80
3FC0
36C0
66C0
66C0
6660
6660
4660
C660
C670
ENDCHAR
STARTCHAR 0467
ENCODING 1127
SWIDTH 525 0
DWIDTH 14 0
BBX 12 14 1 0
BITMAP
0E00
0E00
0F00
1B00
1900
1980
3180
3F80
3FC0
66C0
66C0
6660
C660
C670
ENDCHAR
STARTCHAR 0468
ENCODING 1128
SWIDTH 525 0
DWIDTH 14 0
BBX 12 20 1 0
BITMAP
C380
C380
C380
C380
C280
C280
C6C0
C6C0
C6C0
C6C0
FFC0
FFC0
CD60
CD60
CD60
CD60
C960
C920
D930
D930
ENDCHAR
STARTCHAR 0469
ENCODING 1129
SWIDTH 525 0
DWIDTH 14 0
BBX 12 14 1 0
BITMAP
C380
C380
C380
C280
C6C0
C6C0
C6C0
FFC0
FFE0
CD60
CD60
C960
D930
D930
ENDCHAR
STARTCHAR 046A
ENCODING 1130
SWIDTH 525 0
DWIDTH 14 0
BBX 12 20 1 0
BITMAP
FFF0
7FE0
6040
60C0
30C0
3180
1980
1B00
0F00
3FC0
3FC0
26C0
66C0
66C0
6660
6660
6660
C660
C660
C630
ENDCHAR
STARTCHAR 046B
ENCODING 1131
SWIDTH 525 0
DWIDTH 14 0
BBX 12 14 1 0
BITMAP
FFF0
7FE0
20C0
3080
1980
1B00
3FC0
3FC0
66C0
66C0
6660
6660
C660
C630
ENDCHAR
STARTCHAR 046C
ENCODING 1132
SWIDTH 525 0
DWIDTH 14 0
BBX 12 20 1 0
BITMAP
DFF0
DFF0
C820
CC60
CC60
C440
C6C0
C6C0
C280
FFC0
FFE0
CD60
CD60
CD60
CD60
C920
D920
D930
D930
D930
ENDCHAR
STARTCHAR 046D
ENCODING 1133
SWIDTH 525 0
DWIDTH 14 0
BBX 12 14 1 0
BITMAP
DFF0
CFE0
CC60
C440
C6C0
C6C0
FEC0
FFE0
CD60
CD60
C960
D920
D930
D930
ENDCHAR
STARTCHAR 046E
ENCODING 1134
SWIDTH 525 0
DWIDTH 14 0
BBX 10 32 2 -6
BITMAP
6180
3300
3E00
1C00
0000
0000
3E00
7F00
E180
C1C0
C0C0
00C0
00C0
01C0
0180
1F00
1F00
0180
00C0
00C0
00C0
00C0
00C0
01C0
3F80
7F00
E000
C000
C000
C000
F800
3800
ENDCHAR
STARTCHAR 046F
ENCODING 1135
SWIDTH 525 0
DWIDTH 14 0
BBX 10 27 2 -6
BITMAP
2100
6380
3300
3E00
1C00
0000
0000
3F00
7F80
E1C0
C0C0
00C0
0180
1F80
1F80
01C0
00C0
00C0
01C0
3F80
7F00
E000
C000
C000
C000
F800
3800
ENDCHAR
STARTCHAR 0470
ENCODING 1136
SWIDTH 525 0
DWIDTH 14 0
BBX 11 20 1 0
BITMAP
C660
C660
C660
C660
C660
C660
C660
C660
C660
C660
6660
66E0
3FC0
1F00
0600
0600
0600
0600
0600
0600
ENDCHAR
STARTCHAR 0471
ENCODING 1137
SWIDTH 525 0
DWIDTH 14 0
BBX 11 20 1 -6
BITMAP
C660
C660
C660
C660
C660
C660
C660
C660
C660
C660
6660
66E0
7FC0
1F80
0600
0600
0600
0600
0600
0600
ENDCHAR
STARTCHAR 0472
ENCODING 1138
SWIDTH 525 0
DWIDTH 14 0
BBX 10 20 2 0
BITMAP
3E00
7F80
E180
C0C0
C0C0
C0C0
C0C0
C0C0
F0C0
FCC0
CFC0
C7C0
C0C0
C0C0
C0C0
C0C0
C0C0
E180
7F80
3E00
ENDCHAR
STARTCHAR 0473
ENCODING 1139
SWIDTH 525 0
DWIDTH 14 0
BBX 10 14 2 0
BITMAP
3E00
7F80
E180
C0C0
C0C0
F0C0
FCC0
CFC0
C7C0
C0C0
C0C0
E180
7F80
3E00
ENDCHAR
STARTCHAR 0474
ENCODING 1140
SWIDTH 525 0
DWIDTH 14 0
BBX 12 20 1 0
BITMAP
C070
60F0
60C0
60C0
61C0
6180
3180
3180
3180
3180
3180
1980
1980
1900
1B00
0B00
0F00
0F00
0E00
0E00
ENDCHAR
STARTCHAR 0475
ENCODING 1141
SWIDTH 525 0
DWIDTH 14 0
BBX 12 14 1 0
BITMAP
E070
60F0
60C0
60C0
31C0
3180
3180
1980
1980
1980
1B00
0F00
0F00
0E00
ENDCHAR
STARTCHAR 0476
ENCODING 1142
SWIDTH 525 0
DWIDTH 14 0
BBX 12 26 1 0
BITMAP
C600
6700
3380
19C0
1080
0000
C070
60F0
60C0
60C0
61C0
6180
3180
3180
3180
3180
3180
1980
1980
1900
1B00
0B00
0F00
0F00
0E00
0E00
ENDCHAR
STARTCHAR 0477
ENCODING 1143
SWIDTH 525 0
DWIDTH 14 0
BBX 12 21 1 0
BITMAP
4200
E600
6700
3380
19C0
0000
0000
E070
60F0
60C0
60C0
31C0
3180
3180
1980
1980
1980
1B00
0F00
0F00
0E00
ENDCHAR
STARTCHAR 0478
ENCODING 1144
SWIDTH 525 0
DWIDTH 14 0
BBX 13 26 0 -6
BITMAP
3800
7800
4C00
CC00
C400
C400
C588
C588
C498
C498
C498
C4D8
C4D0
C4D0
C450
C450
C470
4C70
7860
3860
0060
0060
0060
0060
0040
0040
ENDCHAR
STARTCHAR 0479
ENCODING 1145
SWIDTH 525 0
DWIDTH 14 0
BBX 13 20 0 -6
BITMAP
3988
7988
4C98
CC98
C498
C4D8
C4D0
C4D0
C450
C450
C470
4C70
7860
3860
0060
0060
0060
0060
0040
0040
ENDCHAR
STARTCHAR 047A
ENCODING 1146
SWIDTH 525 0
DWIDTH 14 0
BBX 11 22 1 -1
BITMAP
0E00
3F80
7FC0
6E60
C060
C060
C060
C060
C060
C060
C060
C060
C060
C060
C060
C060
C060
C060
6E60
7FC0
3F80
0E00
ENDCHAR
STARTCHAR 047B
ENCODING 1147
SWIDTH 525 0
DWIDTH 14 0
BBX 11 16 1 -1
BITMAP
0E00
3F80
7FC0
6E60
C060
C060
C060
C060
C060
C060
C060
C060
6E60
7FC0
3F80
0E00
ENDCHAR
STARTCHAR 047C
ENCODING 1148
SWIDTH 525 0
DWIDTH 14 0
BBX 11 28 1 0
BITMAP
0F00
19E0
3660
0E00
0600
0600
0C00
0000
3180
71C0
60E0
6060
C060
C060
C060
C060
C060
C060
C060
C060
C060
C060
C660
C660
C660
6E60
7BC0
39C0
ENDCHAR
STARTCHAR 047D
ENCODING 1149
SWIDTH 525 0
DWIDTH 14 0
BBX 11 22 1 0
BITMAP
0F00
1DE0
3E60
0600
0600
0400
0C00
0000
3180
71C0
60E0
6060
C060
C060
C060
C060
C060
C660
C660
6E60
7FC0
3980
ENDCHAR
STARTCHAR 047E
ENCODING 1150
SWIDTH 525 0
DWIDTH 14 0
BBX 11 26 1 0
BITMAP
7FE0
7FE0
6660
6660
0000
0000
C460
C460
C460
C660
4660
6E60
6E60
6E60
6E60
6E60
6E40
6EC0
6AC0
2BC0
2BC0
3BC0
3BC0
3980
3980
3180
ENDCHAR
STARTCHAR 047F
ENCODING 1151
SWIDTH 525 0
DWIDTH 14 0
BBX 11 20 1 0
BITMAP
7FE0
7FE0
6660
6660
0000
0000
C460
C460
C660
4660
6E60
6E60
6E60
6E40
6AC0
2BC0
3BC0
3BC0
3980
3980
ENDCHAR
STARTCHAR 0480
ENCODING 1152
SWIDTH 525 0
DWIDTH 14 0
BBX 10 26 2 -6
BITMAP
3E00
7F80
E180
C1C0
C0C0
C000
C000
C000
C000
C000
C000
C000
C000
C000
C000
C000
C000
E200
7E00
3E00
0600
0600
0600
0600
0600
0600
ENDCHAR
STARTCHAR 0481
ENCODING 1153
SWIDTH 525 0
DWIDTH 14 0
BBX 10 20 2 -6
BITMAP
3E00
7F80
E180
C1C0
C0C0
C000
C000
C000
C000
C000
C000
E200
7E00
3E00
0600
0600
0600
0600
0600
0600
ENDCHAR
STARTCHAR 0482
ENCODING 1154
SWIDTH 525 0
DWIDTH 14 0
BBX 11 16 1 -4
BITMAP
00E0
00C0
11C0
3D80
0F80
03C0
07E0
0660
6E00
FC00
3C00
1F00
3B80
3180
6000
6000
ENDCHAR
STARTCHAR 0483
ENCODING 1155
SWIDTH 525 0
DWIDTH 14 0
BBX 7 3 -10 16
BITMAP
06
FE
80
ENDCHAR
STARTCHAR 0484
ENCODING 1156
SWIDTH 525 0
DWIDTH 14 0
BBX 9 4 -12 16
BITMAP
0E00
3F80
F180
C180
ENDCHAR
STARTCHAR 0485
ENCODING 1157
SWIDTH 525 0
DWIDTH 14 0
BBX 3 5 -8 15
BITMAP
C0
E0
C0
C0
60
ENDCHAR
STARTCHAR 0486
ENCODING 1158
SWIDTH 525 0
DWIDTH 14 0
BBX 3 5 -8 15
BITMAP
C0
E0
40
40
C0
ENDCHAR
STARTCHAR 0487
ENCODING 1159
SWIDTH 525 0
DWIDTH 14 0
BBX 10 4 -11 16
BITMAP
3C00
7F00
E3C0
C0C0
ENDCHAR
STARTCHAR 048A
ENCODING 1162
SWIDTH 525 0
DWIDTH 14 0
BBX 12 30 2 -4
BITMAP
4180
6180
6380
7F00
1E00
0000
C1C0
C1C0
C3C0
C3C0
C3C0
C6C0
C6C0
C6C0
CCC0
CCC0
CCC0
D8C0
D8C0
D8C0
F0C0
F0C0
E0C0
E0C0
E0F0
C0E0
0060
0060
00C0
00C0
ENDCHAR
STARTCHAR 048B
ENCODING 1163
SWIDTH 525 0
DWIDTH 14 0
BBX 12 24 2 -4
BITMAP
6180
6380
7F00
3E00
0000
0000
C1C0
C3C0
C3C0
C6C0
C6C0
CCC0
CCC0
D8C0
D8C0
F8C0
F0C0
F0C0
E0F0
E0E0
0060
0060
00C0
00C0
ENDCHAR
STARTCHAR 048C
ENCODING 1164
SWIDTH 525 0
DWIDTH 14 0
BBX 12 20 0 0
BITMAP
3000
3000
3000
FE00
FE00
3000
3000
3000
3F80
3FC0
30E0
3070
3030
3030
3030
3030
3070
3060
3FE0
3F80
ENDCHAR
STARTCHAR 048D
ENCODING 1165
SWIDTH 525 0
DWIDTH 14 0
BBX 12 14 0 0
BITMAP
3000
3000
FE00
FE00
3000
3FC0
3FE0
3070
3030
3030
3030
3070
3FE0
3FC0
ENDCHAR
STARTCHAR 048E
ENCODING 1166
SWIDTH 525 0
DWIDTH 14 0
BBX 10 20 2 0
BITMAP
FE00
FF80
C180
C0C0
C0C0
C0C0
C0C0
CCC0
C6C0
C780
FF80
FF00
C180
C180
C000
C000
C000
C000
C000
C000
ENDCHAR
STARTCHAR 048F
ENCODING 1167
SWIDTH 525 0
DWIDTH 14 0
BBX 10 20 2 -6
BITMAP
CF00
DF80
E180
C0C0
C0C0
C0C0
C0C0
C0C0
C0C0
C4C0
CCC0
E7C0
FF80
CF00
C100
C180
C180
C000
C000
C000
ENDCHAR
STARTCHAR 0490
ENCODING 1168
SWIDTH 525 0
DWIDTH 14 0
BBX 9 24 3 0
BITMAP
0180
0180
0180
0180
FF80
FF80
C000
C000
C000
C000
C000
C000
C000
C000
C000
C000
C000
C000
C000
C000
C000
C000
C000
C000
ENDCHAR
STARTCHAR 0491
ENCODING 1169
SWIDTH 525 0
DWIDTH 14 0
BBX 9 18 3 0
BITMAP
0180
0180
0180
0180
FF80
FF80
C000
C000
C000
C000
C000
C000
C000
C000
C000
C000
C000
C000
ENDCHAR
STARTCHAR 0492
ENCODING 1170
SWIDTH 525 0
DWIDTH 14 0
BBX 11 20 1 0
BITMAP
3FE0
3FE0
3000
3000
3000
3000
3000
3000
3000
3000
FC00
FC00
3000
3000
3000
3000
3000
3000
3000
3000
ENDCHAR
STARTCHAR 0493
ENCODING 1171
SWIDTH 525 0
DWIDTH 14 0
BBX 11 14 1 0
BITMAP
3FE0
3FE0
3000
3000
3000
3000
FC00
FC00
3000
3000
3000
3000
3000
3000
ENDCHAR
STARTCHAR 0494
ENCODING 1172
SWIDTH 525 0
DWIDTH 14 0
BBX 9 26 3 -6
BITMAP
FF80
FF80
C000
C000
C000
C000
C000
C000
C000
DE00
FF00
E300
C380
C180
C180
C180
C180
C180
C180
C180
0180
0180
0380
0300
1F00
1C00
ENDCHAR
STARTCHAR 0495
ENCODING 1173
SWIDTH 525 0
DWIDTH 14 0
BBX 9 20 3 -6
BITMAP
FF80
FF80
C000
C000
C000
C000
DE00
FF00
E300
C380
C180
C180
C180
C180
0180
0180
0380
0300
1F00
1C00
ENDCHAR
STARTCHAR 0496
ENCODING 1174
SWIDTH 525 0
DWIDTH 14 0
BBX 13 24 1 -4
BITMAP
C630
C660
C660
6660
6660
66C0
66C0
36C0
36C0
3F80
3F80
36C0
36C0
66C0
66C0
6660
6660
C660
C678
C638
0018
0018
0018
0018
ENDCHAR
STARTCHAR 0497
ENCODING 1175
SWIDTH 525 0
DWIDTH 14 0
BBX 13 18 1 -4
BITMAP
C630
C660
6660
6660
66C0
36C0
3FC0
3F80
36C0
66C0
6660
6660
C678
C638
0018
0018
0018
0018
ENDCHAR
STARTCHAR 0498
ENCODING 1176
SWIDTH 525 0
DWIDTH 14 0
BBX 11 24 1 -4
BITMAP
1F00
3FC0
70C0
60E0
6060
0060
0060
00C0
01C0
0F80
0F80
00C0
0060
0060
0060
E060
6060
70E0
3FC0
1F80
0600
0600
0600
0600
ENDCHAR
STARTCHAR 0499
ENCODING 1177
SWIDTH 525 0
DWIDTH 14 0
BBX 11 18 1 -4
BITMAP
1F80
3FC0
70E0
6060
0060
00C0
0FC0
0FC0
00E0
0060
E060
60E0
7FC0
1F80
0600
0600
0600
0600
ENDCHAR
STARTCHAR 049A
ENCODING 1178
SWIDTH 525 0
DWIDTH 14 0
BBX 11 24 2 -4
BITMAP
C0C0
C180
C180
C300
C300
C600
C600
CC00
CC00
FC00
F800
CC00
CC00
C600
C600
C300
C300
C180
C1E0
C0E0
0060
0060
0060
0060
ENDCHAR
STARTCHAR 049B
ENCODING 1179
SWIDTH 525 0
DWIDTH 14 0
BBX 11 18 2 -4
BITMAP
C1C0
C180
C300
C700
C600
CC00
FC00
FC00
CC00
C600
C700
C300
C1E0
C1E0
0060
0060
0060
0060
ENDCHAR
STARTCHAR 049C
ENCODING 1180
SWIDTH 525 0
DWIDTH 14 0
BBX 10 20 2 0
BITMAP
C0C0
C1C0
C180
C180
C180
C300
DB00
DB00
DE00
FE00
FE00
DE00
DB00
DB00
DB00
C180
C180
C180
C0C0
C0C0
ENDCHAR
STARTCHAR 049D
ENCODING 1181
SWIDTH 525 0
DWIDTH 14 0
BBX 10 14 2 0
BITMAP
C0C0
C180
C180
C380
DB00
DB00
FE00
FE00
DB00
DB00
DB00
C180
C180
C0C0
ENDCHAR
STARTCHAR 049E
ENCODING 1182
SWIDTH 525 0
DWIDTH 14 0
BBX 11 20 1 0
BITMAP
6060
60C0
FCC0
FD80
6180
6300
6300
6600
6600
7E00
7C00
6600
6600
6300
6300
6180
6180
60C0
60C0
6060
ENDCHAR
STARTCHAR 049F
ENCODING 1183
SWIDTH 525 0
DWIDTH 14 0
BBX 11 20 1 0
BITMAP
6000
6000
FC00
FC00
6000
6000
60E0
60C0
6180
6380
6300
6600
7E00
7E00
6600
6300
6380
6180
60C0
60E0
ENDCHAR
STARTCHAR 04A0
ENCODING 1184
SWIDTH 525 0
DWIDTH 14 0
BBX 11 20 1 0
BITMAP
F860
F8C0
18C0
18C0
1980
1980
1980
1B00
1B00
1E00
1E00
1B00
1B00
1B80
1980
1980
18C0
18C0
18C0
1860
ENDCHAR
STARTCHAR 04A1
ENCODING 1185
SWIDTH 525 0
DWIDTH 14 0
BBX 11 14 1 0
BITMAP
F860
F8C0
18C0
1980
1980
1B00
1F00
1F00
1B00
1B80
1980
18C0
18C0
1860
ENDCHAR
STARTCHAR 04A2
ENCODING 1186
SWIDTH 525 0
DWIDTH 14 0
BBX 11 24 2 -4
BITMAP
C0C0
C0C0
C0C0
C0C0
C0C0
C0C0
C0C0
C0C0
C0C0
FFC0
FFC0
C0C0
C0C0
C0C0
C0C0
C0C0
C0C0
C0C0
C0E0
C0E0
0060
0060
0060
0060
ENDCHAR
STARTCHAR 04A3
ENCODING 1187
SWIDTH 525 0
DWIDTH 14 0
BBX 11 18 2 -4
BITMAP
C0C0
C0C0
C0C0
C0C0
C0C0
C0C0
FFC0
FFC0
C0C0
C0C0
C0C0
C0C0
C0E0
C0E0
0060
0060
0060
0060
ENDCHAR
STARTCHAR 04A4
ENCODING 1188
SWIDTH 525 0
DWIDTH 14 0
BBX 12 20 1 0
BITMAP
C3F0
C3F0
C300
C300
C300
C300
C300
C300
C300
FF00
FF00
C300
C300
C300
C300
C300
C300
C300
C300
C300
ENDCHAR
STARTCHAR 04A5
ENCODING 1189
SWIDTH 525 0
DWIDTH 14 0
BBX 12 14 1 0
BITMAP
C3F0
C3F0
C300
C300
C300
C300
FF00
FF00
C300
C300
C300
C300
C300
C300
ENDCHAR
STARTCHAR 04A6
ENCODING 1190
SWIDTH 525 0
DWIDTH 14 0
BBX 11 26 1 -6
BITMAP
FE00
FE00
C600
C600
C600
C600
C600
C7C0
C7E0
C660
C660
C660
C660
C660
C660
C660
C660
C660
C660
C660
0060
0060
0060
00E0
01C0
0180
ENDCHAR
STARTCHAR 04A7
ENCODING 1191
SWIDTH 525 0
DWIDTH 14 0
BBX 11 20 1 -6
BITMAP
FE00
FE00
C600
C600
C600
C7C0
C7E0
C660
C660
C660
C660
C660
C660
C660
0060
0060
0060
00E0
01C0
0180
ENDCHAR
STARTCHAR 04A8
ENCODING 1192
SWIDTH 525 0
DWIDTH 14 0
BBX 11 20 1 0
BITMAP
1C00
3C00
6000
E000
C000
C180
C3C0
C660
C660
C660
C660
C660
C660
C660
C660
C660
E360
63C0
3FE0
1F60
ENDCHAR
STARTCHAR 04A9
ENCODING 1193
SWIDTH 525 0
DWIDTH 14 0
BBX 11 14 1 0
BITMAP
1C00
3C00
6000
E180
C3E0
C660
C660
C660
C660
C660
E660
63C0
3FE0
1FE0
ENDCHAR
STARTCHAR 04AA
ENCODING 1194
SWIDTH 525 0
DWIDTH 14 0
BBX 10 24 2 -4
BITMAP
3E00
7F80
E180
C1C0
C0C0
C000
C000
C000
C000
C000
C000
C000
C000
C000
C000
C0C0
C1C0
E380
7F80
3E00
0C00
0C00
0C00
0C00
ENDCHAR
STARTCHAR 04AB
ENCODING 1195
SWIDTH 525 0
DWIDTH 14 0
BBX 10 18 2 -4
BITMAP
3E00
7F80
E180
C1C0
C0C0
C000
C000
C000
C000
C0C0
C1C0
E380
7F80
3E00
0C00
0C00
0C00
0C00
ENDCHAR
STARTCHAR 04AC
ENCODING 1196
SWIDTH 525 0
DWIDTH 14 0
BBX 10 24 2 -4
BITMAP
FFC0
FFC0
0C00
0C00
0C00
0C00
0C00
0C00
0C00
0C00
0C00
0C00
0C00
0C00
0C00
0C00
0C00
0C00
0E00
0E00
0600
0600
0600
0600
ENDCHAR
STARTCHAR 04AD
ENCODING 1197
SWIDTH 525 0
DWIDTH 14 0
BBX 10 18 2 -4
BITMAP
FFC0
FFC0
0C00
0C00
0C00
0C00
0C00
0C00
0C00
0C00
0C00
0C00
0E00
0E00
0600
0600
0600
0600
ENDCHAR
STARTCHAR 04AE
ENCODING 1198
SWIDTH 525 0
DWIDTH 14 0
BBX 11 20 1 0
BITMAP
E060
60E0
60C0
30C0
31C0
3180
1980
1B00
1B00
0F00
0E00
0600
0600
0600
0600
0600
0600
0600
0600
0600
ENDCHAR
STARTCHAR 04AF
ENCODING 1199
SWIDTH 525 0
DWIDTH 14 0
BBX 11 20 1 -6
BITMAP
E060
6060
60E0
60C0
30C0
31C0
3180
1980
1980
1B00
0F00
0F00
0E00
0600
0600
0600
0600
0600
0600
0600
ENDCHAR
STARTCHAR 04B0
ENCODING 1200
SWIDTH 525 0
DWIDTH 14 0
BBX 11 20 1 0
BITMAP
E060
60E0
60C0
30C0
31C0
3180
1980
1B00
1B00
0F00
0E00
3F80
3F80
0600
0600
0600
0600
0600
0600
0600
ENDCHAR
STARTCHAR 04B1
ENCODING 1201
SWIDTH 525 0
DWIDTH 14 0
BBX 11 20 1 -6
BITMAP
E060
6060
60E0
60C0
30C0
31C0
3180
1980
1980
1B00
0F00
0F00
0E00
3F80
3F80
0600
0600
0600
0600
0600
ENDCHAR
STARTCHAR 04B2
ENCODING 1202
SWIDTH 525 0
DWIDTH 14 0
BBX 12 24 1 -4
BITMAP
E060
60E0
70C0
31C0
3180
1980
1B00
0F00
0E00
0E00
0E00
0E00
0F00
1B00
1980
3180
31C0
70C0
60F0
E070
0030
0030
0030
0030
ENDCHAR
STARTCHAR 04B3
ENCODING 1203
SWIDTH 525 0
DWIDTH 14 0
BBX 12 18 1 -4
BITMAP
E0E0
70C0
31C0
1980
1B00
0F00
0E00
0E00
0F00
1B00
1980
31C0
70F0
E0F0
0030
0030
0030
0030
ENDCHAR
STARTCHAR 04B4
ENCODING 1204
SWIDTH 525 0
DWIDTH 14 0
BBX 13 24 0 -4
BITMAP
FF30
FF30
1830
1830
1830
1830
1830
1830
1830
1830
1830
1830
1830
1830
1830
1830
1830
1830
1FF8
1FF8
0018
0018
0018
0018
ENDCHAR
STARTCHAR 04B5
ENCODING 1205
SWIDTH 525 0
DWIDTH 14 0
BBX 13 18 0 -4
BITMAP
FF30
FF30
1830
1830
1830
1830
1830
1830
1830
1830
1830
1830
1FF8
1FF8
0018
0018
0018
0018
ENDCHAR
STARTCHAR 04B6
ENCODING 1206
SWIDTH 525 0
DWIDTH 14 0
BBX 11 24 2 -4
BITMAP
C0C0
C0C0
C0C0
C0C0
C0C0
C0C0
C0C0
C0C0
C0C0
C0C0
C0C0
E1C0
7FC0
3FC0
00C0
00C0
00C0
00C0
00E0
00E0
0060
0060
0060
0060
ENDCHAR
STARTCHAR 04B7
ENCODING 1207
SWIDTH 525 0
DWIDTH 14 0
BBX 11 18 2 -4
BITMAP
C0C0
C0C0
C0C0
C0C0
C0C0
C0C0
C0C0
E1C0
7FC0
1EC0
00C0
00C0
00E0
00E0
0060
0060
0060
0060
ENDCHAR
STARTCHAR 04B8
ENCODING 1208
SWIDTH 525 0
DWIDTH 14 0
BBX 10 20 2 0
BITMAP
C0C0
C0C0
C0C0
C0C0
C0C0
C0C0
C0C0
C0C0
C0C0
CCC0
CCC0
EDC0
7FC0
1EC0
0CC0
0CC0
00C0
00C0
00C0
00C0
ENDCHAR
STARTCHAR 04B9
ENCODING 1209
SWIDTH 525 0
DWIDTH 14 0
BBX 10 14 2 0
BITMAP
C0C0
C0C0
C0C0
C0C0
C0C0
CCC0
CCC0
EDC0
7FC0
1EC0
0CC0
0CC0
00C0
00C0
ENDCHAR
STARTCHAR 04BA
ENCODING 1210
SWIDTH 525 0
DWIDTH 14 0
BBX 10 20 2 0
BITMAP
C000
C000
C000
C000
C000
C000
C000
C000
FE00
FF00
C380
C1C0
C0C0
C0C0
C0C0
C0C0
C0C0
C0C0
C0C0
C0C0
ENDCHAR
STARTCHAR 04BB
ENCODING 1211
SWIDTH 525 0
DWIDTH 14 0
BBX 10 20 2 0
BITMAP
C000
C000
C000
C000
C000
C000
CF00
DF80
E180
C1C0
C0C0
C0C0
C0C0
C0C0
C0C0
C0C0
C0C0
C0C0
C0C0
C0C0
ENDCHAR
STARTCHAR 04BC
ENCODING 1212
SWIDTH 525 0
DWIDTH 14 0
BBX 11 20 1 0
BITMAP
03C0
07E0
0C60
0C60
0C60
0C60
CC60
CC60
CC60
7FE0
3FE0
0C00
0C00
0C00
0C00
0C60
0C60
0C60
07C0
0380
ENDCHAR
STARTCHAR 04BD
ENCODING 1213
SWIDTH 525 0
DWIDTH 14 0
BBX 11 14 1 0
BITMAP
03C0
07E0
0C60
CC60
CC60
CC60
7FE0
3FE0
0C00
0C00
0C60
0C60
07C0
0380
ENDCHAR
STARTCHAR 04BE
ENCODING 1214
SWIDTH 525 0
DWIDTH 14 0
BBX 11 24 1 -4
BITMAP
03C0
07E0
0C60
0C60
0C60
0C60
CC60
CC60
EC60
7FE0
3FE0
0C00
0C00
0C00
0C00
0C60
0C60
0CE0
07C0
0380
0100
0100
0100
0100
ENDCHAR
STARTCHAR 04BF
ENCODING 1215
SWIDTH 525 0
DWIDTH 14 0
BBX 11 18 1 -4
BITMAP
03C0
07E0
0C60
CC60
CC60
CC60
7FE0
3FE0
0C00
0C00
0C60
0C60
07C0
0380
0100
0100
0100
0100
ENDCHAR
STARTCHAR 04C0
ENCODING 1216
SWIDTH 525 0
DWIDTH 14 0
BBX 9 20 2 0
BITMAP
FF80
FF80
0C00
0C00
0C00
0C00
0C00
0C00
0C00
0C00
0C00
0C00
0C00
0C00
0C00
0C00
0C00
0C00
FF80
FF80
ENDCHAR
STARTCHAR 04C1
ENCODING 1217
SWIDTH 525 0
DWIDTH 14 0
BBX 12 25 1 0
BITMAP
30C0
3FC0
1F00
0000
0000
C630
C660
C660
6660
6660
66C0
66C0
36C0
36C0
3F80
3F80
36C0
36C0
66C0
66C0
6660
6660
C660
C660
C630
ENDCHAR
STARTCHAR 04C2
ENCODING 1218
SWIDTH 525 0
DWIDTH 14 0
BBX 12 20 1 0
BITMAP
20C0
30C0
3F80
1F00
0000
0000
C630
C660
6660
6660
66C0
36C0
3FC0
3F80
36C0
66C0
6660
6660
C660
C630
ENDCHAR
STARTCHAR 04C3
ENCODING 1219
SWIDTH 525 0
DWIDTH 14 0
BBX 10 26 2 -6
BITMAP
C0C0
C180
C180
C380
C300
C700
C600
C600
CC00
CC00
FE00
FF80
C180
C1C0
C0C0
C0C0
C0C0
C0C0
C0C0
C0C0
00C0
00C0
0180
0380
0F00
0E00
ENDCHAR
STARTCHAR 04C4
ENCODING 1220
SWIDTH 525 0
DWIDTH 14 0
BBX 10 20 2 -6
BITMAP
C1C0
C180
C300
C700
C600
CE00
FE00
FF00
C380
C1C0
C0C0
C0C0
C0C0
C0C0
00C0
00C0
0180
0380
0F00
0E00
ENDCHAR
STARTCHAR 04C5
ENCODING 1221
SWIDTH 525 0
DWIDTH 14 0
BBX 14 24 0 -4
BITMAP
3FF0
3FF0
3830
3830
3830
3830
3830
3830
3830
3830
3830
3830
3830
3830
3030
3030
3030
3030
E03C
C038
0018
0018
0030
0030
ENDCHAR
STARTCHAR 04C6
ENCODING 1222
SWIDTH 525 0
DWIDTH 14 0
BBX 14 18 0 -4
BITMAP
3FF0
3FF0
3830
3830
3830
3830
3830
3830
3830
3030
3030
3030
F03C
E038
0018
0018
0030
0030
ENDCHAR
STARTCHAR 04C7
ENCODING 1223
SWIDTH 525 0
DWIDTH 14 0
BBX 10 26 2 -6
BITMAP
C0C0
C0C0
C0C0
C0C0
C0C0
C0C0
C0C0
C0C0
C0C0
FFC0
FFC0
C0C0
C0C0
C0C0
C0C0
C0C0
C0C0
C0C0
C0C0
C0C0
00C0
00C0
01C0
0180
0F80
0E00
ENDCHAR
STARTCHAR 04C8
ENCODING 1224
SWIDTH 525 0
DWIDTH 14 0
BBX 10 20 2 -6
BITMAP
C0C0
C0C0
C0C0
C0C0
C0C0
C0C0
FFC0
FFC0
C0C0
C0C0
C0C0
C0C0
C0C0
C0C0
00C0
00C0
01C0
0180
0F80
0E00
ENDCHAR
STARTCHAR 04C9
ENCODING 1225
SWIDTH 525 0
DWIDTH 14 0
BBX 12 24 2 -4
BITMAP
C0C0
C0C0
C0C0
C0C0
C0C0
C0C0
C0C0
C0C0
C0C0
FFC0
FFC0
C0C0
C0C0
C0C0
C0C0
C0C0
C0C0
C0C0
C0F0
C0E0
0060
0060
00C0
00C0
ENDCHAR
STARTCHAR 04CA
ENCODING 1226
SWIDTH 525 0
DWIDTH 14 0
BBX 12 18 2 -4
BITMAP
C0C0
C0C0
C0C0
C0C0
C0C0
C0C0
FFC0
FFC0
C0C0
C0C0
C0C0
C0C0
C0F0
C0E0
0060
0060
00C0
00C0
ENDCHAR
STARTCHAR 04CB
ENCODING 1227
SWIDTH 525 0
DWIDTH 14 0
BBX 10 24 2 -4
BITMAP
C0C0
C0C0
C0C0
C0C0
C0C0
C0C0
C0C0
C0C0
C0C0
C0C0
C0C0
E1C0
7FC0
3FC0
00C0
00C0
00C0
00C0
03C0
03C0
0300
0300
0300
0300
ENDCHAR
STARTCHAR 04CC
ENCODING 1228
SWIDTH 525 0
DWIDTH 14 0
BBX 10 18 2 -4
BITMAP
C0C0
C0C0
C0C0
C0C0
C0C0
C0C0
C0C0
E1C0
7FC0
1EC0
00C0
00C0
03C0
03C0
0300
0300
0300
0300
ENDCHAR
STARTCHAR 04CD
ENCODING 1229
SWIDTH 525 0
DWIDTH 14 0
BBX 13 24 1 -4
BITMAP
E0E0
E0E0
F0E0
F0E0
F1E0
D1E0
D9E0
D960
DB60
CB60
CF60
CE60
C660
C660
C060
C060
C060
C060
C078
C078
0030
0030
0030
0060
ENDCHAR
STARTCHAR 04CE
ENCODING 1230
SWIDTH 525 0
DWIDTH 14 0
BBX 13 18 1 -4
BITMAP
F0E0
F0E0
F0E0
F1E0
D1E0
D9E0
D960
DB60
CB60
CF60
CE60
CE60
C678
C678
0030
0030
0030
0060
ENDCHAR
STARTCHAR 04CF
ENCODING 1231
SWIDTH 525 0
DWIDTH 14 0
BBX 9 20 2 0
BITMAP
FC00
FC00
0C00
0C00
0C00
0C00
0C00
0C00
0C00
0C00
0C00
0C00
0C00
0C00
0C00
0C00
0C00
0C00
FF80
FF80
ENDCHAR
STARTCHAR 04D0
ENCODING 1232
SWIDTH 525 0
DWIDTH 14 0
BBX 11 25 1 0
BITMAP
30C0
3FC0
1F00
0000
0000
0E00
0E00
0F00
0F00
0F00
1B00
1B00
1980
1980
3980
3180
3180
30C0
3FC0
7FC0
60C0
60E0
6060
E060
C060
ENDCHAR
STARTCHAR 04D1
ENCODING 1233
SWIDTH 525 0
DWIDTH 14 0
BBX 10 20 2 0
BITMAP
4180
6180
7F00
3E00
0000
0000
3E00
7F80
E180
C1C0
00C0
00C0
3FC0
7FC0
C0C0
C0C0
C1C0
C1C0
FEC0
7CC0
ENDCHAR
STARTCHAR 04D2
ENCODING 1234
SWIDTH 525 0
DWIDTH 14 0
BBX 11 25 1 0
BITMAP
31C0
79C0
39C0
0000
0000
0E00
0E00
0F00
0F00
0F00
1B00
1B00
1980
1980
3980
3180
3180
30C0
3FC0
7FC0
60C0
60E0
6060
E060
C060
ENDCHAR
STARTCHAR 04D3
ENCODING 1235
SWIDTH 525 0
DWIDTH 14 0
BBX 10 19 2 0
BITMAP
6380
F380
6380
0000
0000
3E00
7F80
E180
C1C0
00C0
00C0
3FC0
7FC0
C0C0
C0C0
C1C0
C1C0
FEC0
7CC0
ENDCHAR
STARTCHAR 04D4
ENCODING 1236
SWIDTH 525 0
DWIDTH 14 0
BBX 11 20 1 0
BITMAP
0FE0
0FE0
0E00
0E00
1E00
1E00
1E00
1E00
3600
37E0
37E0
3600
2600
7E00
7E00
6600
6600
C600
C7E0
C7E0
ENDCHAR
STARTCHAR 04D5
ENCODING 1237
SWIDTH 525 0
DWIDTH 14 0
BBX 11 14 1 0
BITMAP
3BC0
7FE0
E660
C660
0660
0660
3FE0
7FE0
E600
C600
C660
CE60
7FE0
3BC0
ENDCHAR
STARTCHAR 04D6
ENCODING 1238
SWIDTH 525 0
DWIDTH 14 0
BBX 10 25 2 0
BITMAP
6180
7F80
3E00
0000
0000
FFC0
FFC0
C000
C000
C000
C000
C000
C000
C000
FF00
FF00
C000
C000
C000
C000
C000
C000
C000
FFC0
FFC0
ENDCHAR
STARTCHAR 04D7
ENCODING 1239
SWIDTH 525 0
DWIDTH 14 0
BBX 10 20 2 0
BITMAP
4180
6180
7F00
3E00
0000
0000
3E00
7F80
E180
C0C0
C0C0
C0C0
FFC0
FFC0
C000
C000
C0C0
E1C0
7F80
3E00
ENDCHAR
STARTCHAR 04D8
ENCODING 1240
SWIDTH 525 0
DWIDTH 14 0
BBX 10 20 2 0
BITMAP
3E00
7F80
E180
C1C0
C0C0
00C0
00C0
00C0
00C0
FFC0
FFC0
C0C0
C0C0
C0C0
C0C0
C0C0
C0C0
E180
7F80
3E00
ENDCHAR
STARTCHAR 04D9
ENCODING 1241
SWIDTH 525 0
DWIDTH 14 0
BBX 10 14 2 0
BITMAP
3E00
7F80
C180
C0C0
00C0
00C0
FFC0
FFC0
C0C0
C0C0
C0C0
E180
7F80
3E00
ENDCHAR
STARTCHAR 04DA
ENCODING 1242
SWIDTH 525 0
DWIDTH 14 0
BBX 10 25 2 0
BITMAP
6380
F380
7380
0000
0000
3E00
7F80
E180
C1C0
C0C0
00C0
00C0
00C0
00C0
FFC0
FFC0
C0C0
C0C0
C0C0
C0C0
C0C0
C0C0
E180
7F80
3E00
ENDCHAR
STARTCHAR 04DB
ENCODING 1243
SWIDTH 525 0
DWIDTH 14 0
BBX 10 19 2 0
BITMAP
6380
F380
6380
0000
0000
3E00
7F80
C180
C0C0
00C0
00C0
FFC0
FFC0
C0C0
C0C0
C0C0
E180
7F80
3E00
ENDCHAR
STARTCHAR 04DC
ENCODING 1244
SWIDTH 525 0
DWIDTH 14 0
BBX 12 25 1 0
BITMAP
31C0
79C0
39C0
0000
0000
C630
C660
C660
6660
6660
66C0
66C0
36C0
36C0
3F80
3F80
36C0
36C0
66C0
66C0
6660
6660
C660
C660
C630
ENDCHAR
STARTCHAR 04DD
ENCODING 1245
SWIDTH 525 0
DWIDTH 14 0
BBX 12 19 1 0
BITMAP
31C0
79C0
31C0
0000
0000
C630
C660
6660
6660
66C0
36C0
3FC0
3F80
36C0
66C0
6660
6660
C660
C630
ENDCHAR
STARTCHAR 04DE
ENCODING 1246
SWIDTH 525 0
DWIDTH 14 0
BBX 11 25 1 0
BITMAP
31C0
79C0
39C0
0000
0000
1F00
3FC0
70C0
60E0
6060
0060
0060
00C0
01C0
0F80
0F80
00C0
0060
0060
0060
E060
6060
70E0
3FC0
1F00
ENDCHAR
STARTCHAR 04DF
ENCODING 1247
SWIDTH 525 0
DWIDTH 14 0
BBX 11 19 1 0
BITMAP
31C0
79C0
31C0
0000
0000
1F80
3FC0
70E0
6060
0060
00C0
0FC0
0FC0
00E0
0060
E060
60E0
7FC0
1F80
ENDCHAR
STARTCHAR 04E0
ENCODING 1248
SWIDTH 525 0
DWIDTH 14 0
BBX 10 20 2 0
BITMAP
FF80
FF80
0380
0700
0600
0C00
1800
3800
3E00
3F00
0380
01C0
00C0
00C0
00C0
C0C0
C1C0
E180
7F80
3E00
ENDCHAR
STARTCHAR 04E1
ENCODING 1249
SWIDTH 525 0
DWIDTH 14 0
BBX 10 20 2 -6
BITMAP
FF80
FF80
0380
0700
0600
0C00
1800
3800
3E00
3F00
0380
01C0
00C0
00C0
00C0
C0C0
C1C0
E180
7F80
3E00
ENDCHAR
STARTCHAR 04E2
ENCODING 1250
SWIDTH 525 0
DWIDTH 14 0
BBX 10 25 2 0
BITMAP
7F80
7F80
0000
0000
0000
C1C0
C1C0
C3C0
C3C0
C3C0
C6C0
C6C0
C6C0
CCC0
CCC0
CCC0
D8C0
D8C0
D8C0
F0C0
F0C0
E0C0
E0C0
E0C0
C0C0
ENDCHAR
STARTCHAR 04E3
ENCODING 1251
SWIDTH 525 0
DWIDTH 14 0
BBX 10 19 2 0
BITMAP
7F80
7F80
0000
0000
0000
C1C0
C3C0
C3C0
C7C0
C6C0
CEC0
CCC0
CCC0
D8C0
D8C0
F0C0
F0C0
E0C0
E0C0
ENDCHAR
STARTCHAR 04E4
ENCODING 1252
SWIDTH 525 0
DWIDTH 14 0
BBX 10 25 2 0
BITMAP
6380
F380
7380
0000
0000
C1C0
C1C0
C3C0
C3C0
C3C0
C6C0
C6C0
C6C0
CCC0
CCC0
CCC0
D8C0
D8C0
D8C0
F0C0
F0C0
E0C0
E0C0
E0C0
C0C0
ENDCHAR
STARTCHAR 04E5
ENCODING 1253
SWIDTH 525 0
DWIDTH 14 0
BBX 10 19 2 0
BITMAP
6380
F380
6380
0000
0000
C1C0
C3C0
C3C0
C7C0
C6C0
CEC0
CCC0
CCC0
D8C0
D8C0
F0C0
F0C0
E0C0
E0C0
ENDCHAR
STARTCHAR 04E6
ENCODING 1254
SWIDTH 525 0
DWIDTH 14 0
BBX 10 25 2 0
BITMAP
6380
F380
7380
0000
0000
3E00
7F80
E180
C1C0
C0C0
C0C0
C0C0
C0C0
C0C0
C0C0
C0C0
C0C0
C0C0
C0C0
C0C0
C0C0
C0C0
E180
7F80
3E00
ENDCHAR
STARTCHAR 04E7
ENCODING 1255
SWIDTH 525 0
DWIDTH 14 0
BBX 10 19 2 0
BITMAP
6380
F380
6380
0000
0000
3E00
7F80
E180
C0C0
C0C0
C0C0
C0C0
C0C0
C0C0
C0C0
C0C0
E180
7F80
3E00
ENDCHAR
STARTCHAR 04E8
ENCODING 1256
SWIDTH 525 0
DWIDTH 14 0
BBX 10 20 2 0
BITMAP
3E00
7F80
E180
C1C0
C0C0
C0C0
C0C0
C0C0
C0C0
FFC0
FFC0
C0C0
C0C0
C0C0
C0C0
C0C0
C0C0
E180
7F80
3E00
ENDCHAR
STARTCHAR 04E9
ENCODING 1257
SWIDTH 525 0
DWIDTH 14 0
BBX 10 14 2 0
BITMAP
3E00
7F80
E180
C0C0
C0C0
C0C0
FFC0
FFC0
C0C0
C0C0
C0C0
E180
7F80
3E00
ENDCHAR
STARTCHAR 04EA
ENCODING 1258
SWIDTH 525 0
DWIDTH 14 0
BBX 10 25 2 0
BITMAP
6380
F380
7380
0000
0000
3E00
7F80
E180
C1C0
C0C0
C0C0
C0C0
C0C0
C0C0
FFC0
FFC0
C0C0
C0C0
C0C0
C0C0
C0C0
C0C0
E180
7F80
3E00
ENDCHAR
STARTCHAR 04EB
ENCODING 1259
SWIDTH 525 0
DWIDTH 14 0
BBX 10 19 2 0
BITMAP
6380
F380
6380
0000
0000
3E00
7F80
E180
C0C0
C0C0
C0C0
FFC0
FFC0
C0C0
C0C0
C0C0
E180
7F80
3E00
ENDCHAR
STARTCHAR 04EC
ENCODING 1260
SWIDTH 525 0
DWIDTH 14 0
BBX 10 25 2 0
BITMAP
6380
F380
7380
0000
0000
3E00
7F80
E180
C1C0
C0C0
00C0
00C0
00C0
00C0
1FC0
1FC0
00C0
00C0
00C0
00C0
C0C0
C0C0
E180
7F80
3E00
ENDCHAR
STARTCHAR 04ED
ENCODING 1261
SWIDTH 525 0
DWIDTH 14 0
BBX 10 19 2 0
BITMAP
6380
F380
6380
0000
0000
3E00
7F80
E180
C0C0
C0C0
00C0
1FC0
1FC0
00C0
C0C0
C1C0
E180
7F80
3E00
ENDCHAR
STARTCHAR 04EE
ENCODING 1262
SWIDTH 525 0
DWIDTH 14 0
BBX 11 25 1 0
BITMAP
3FC0
3FC0
0000
0000
0000
E060
6060
60C0
70C0
30C0
31C0
3180
1980
1980
1B00
1B00
0F00
0E00
0E00
0600
0E00
0C00
0C00
0C00
1800
ENDCHAR
ENDFONT
